<svg width="20" height="20" viewBox="0 0 20 20" fill="none" xmlns="http://www.w3.org/2000/svg">
<g clip-path="url(#clip0_10_1809)">
<path d="M4.84837 18.2536C4.25501 17.7132 4.25493 16.7796 4.84821 16.2391L7.31372 13.9929L11.2907 10.3696L11.6964 10L11.2907 9.63039L7.31372 6.00713L4.84821 3.76094C4.25493 3.22043 4.25501 2.28681 4.84837 1.74641C5.51426 1.13996 6.53234 1.14004 7.19814 1.7466L11.175 5.36961L15.0404 8.89116C15.6935 9.48614 15.6935 10.5139 15.0404 11.1088L11.175 14.6304L7.19814 18.2534C6.53234 18.86 5.51427 18.86 4.84837 18.2536ZM4.84837 18.2536L4.5117 18.6233L4.84837 18.2536Z" fill="white" stroke="#0071BC"/>
</g>
<defs>
<clipPath id="clip0_10_1809">
<rect width="20" height="20" fill="white" transform="translate(0 20) rotate(-90)"/>
</clipPath>
</defs>
</svg>
