<svg width="14" height="20" viewBox="0 0 14 20" fill="none" xmlns="http://www.w3.org/2000/svg">
<path d="M12.1516 18.2536C12.745 17.7132 12.7451 16.7796 12.1518 16.2391L9.68628 13.9929L5.70925 10.3696L5.30356 10L5.70925 9.63039L9.68628 6.00713L12.1518 3.76094C12.7451 3.22043 12.745 2.28681 12.1516 1.74641C11.4857 1.13996 10.4677 1.14004 9.80186 1.7466L5.82503 5.36961L1.95957 8.89116C1.30648 9.48614 1.30648 10.5139 1.95957 11.1088L5.82503 14.6304L9.80186 18.2534C10.4677 18.86 11.4857 18.86 12.1516 18.2536ZM12.1516 18.2536L12.4883 18.6233L12.1516 18.2536Z" fill="#0071BC" stroke="white"/>
</svg>
