<svg width="36" height="36" viewBox="0 0 36 36" fill="none" xmlns="http://www.w3.org/2000/svg">
<rect width="36" height="36" rx="10" fill="#0071BC"/>
<path fill-rule="evenodd" clip-rule="evenodd" d="M10.5746 9.06384C9.84215 9.25655 9.24455 9.85985 9.05703 10.596C9.00755 10.7903 9.00012 11.4785 9.00012 15.882C9.00012 21.4603 8.98689 21.1358 9.23502 21.635C9.39649 21.96 9.79975 22.3631 10.1248 22.5246C10.4977 22.7098 10.7487 22.7594 11.3135 22.7594H11.8117V22.0661V21.3727L11.4275 21.3725C11.2161 21.3724 10.9761 21.3537 10.8941 21.3309C10.703 21.2778 10.4821 21.0569 10.429 20.8659C10.3705 20.6554 10.3705 11.1087 10.429 10.8982C10.4821 10.7071 10.703 10.4862 10.8941 10.4332C11.1047 10.3747 20.6538 10.3747 20.8643 10.4332C21.0554 10.4862 21.2764 10.7071 21.3295 10.8982C21.3522 10.9802 21.3709 11.2117 21.371 11.4127L21.3713 11.7781H22.0648H22.7583V11.2987C22.7583 10.9933 22.7377 10.7384 22.7014 10.596C22.5117 9.85142 21.9114 9.25119 21.1666 9.06155C20.8386 8.97805 10.8925 8.98018 10.5746 9.06384ZM14.9738 13.2429C14.1223 13.3871 13.4346 14.0533 13.2552 14.9076C13.1727 15.3004 13.1727 24.8964 13.2552 25.2892C13.4287 26.1152 14.0784 26.7647 14.9045 26.9382C15.2975 27.0206 24.8959 27.0206 25.2888 26.9382C26.117 26.7643 26.7642 26.1173 26.9381 25.2892C27.0206 24.8964 27.0206 15.3004 26.9381 14.9076C26.7811 14.1599 26.2388 13.5572 25.495 13.304L25.2513 13.221L20.2091 13.2156C17.4359 13.2126 15.08 13.2249 14.9738 13.2429ZM25.1872 14.6975C25.3463 14.7787 25.4229 14.8572 25.5092 15.0275C25.5643 15.1363 25.57 15.6082 25.57 20.0984C25.57 24.5886 25.5643 25.0605 25.5092 25.1693C25.4229 25.3396 25.3463 25.4182 25.1872 25.4993C25.0528 25.5679 24.8814 25.5703 20.0963 25.5703C15.6053 25.5703 15.1333 25.5647 15.0245 25.5096C14.8541 25.4233 14.7756 25.3467 14.6944 25.1877C14.6258 25.0533 14.6234 24.882 14.6234 20.0984C14.6234 15.3149 14.6258 15.1435 14.6944 15.0092C14.7738 14.8535 14.8517 14.7762 15.017 14.6889C15.118 14.6356 15.6363 14.6293 20.0888 14.628C24.8829 14.6265 25.0527 14.6289 25.1872 14.6975Z" fill="white"/>
</svg>
