<svg width="18" height="18" viewBox="0 0 18 18" fill="none" xmlns="http://www.w3.org/2000/svg">
<path fill-rule="evenodd" clip-rule="evenodd" d="M1.57463 0.0638375C0.842149 0.256554 0.244547 0.859852 0.0570302 1.59601C0.00754561 1.7903 0.000122931 2.47845 0.000122931 6.88204C0.000122931 12.4603 -0.0131104 12.1358 0.235025 12.635C0.396487 12.96 0.799749 13.3631 1.12477 13.5246C1.49771 13.7098 1.74865 13.7594 2.31353 13.7594H2.81175V13.0661V12.3727L2.42749 12.3725C2.21613 12.3724 1.97613 12.3537 1.89415 12.3309C1.70303 12.2778 1.48207 12.0569 1.42899 11.8659C1.37055 11.6554 1.37055 2.10869 1.42899 1.8982C1.48207 1.70714 1.70303 1.48624 1.89415 1.43317C2.10468 1.37474 11.6538 1.37474 11.8643 1.43317C12.0554 1.48624 12.2764 1.70714 12.3295 1.8982C12.3522 1.98017 12.3709 2.21172 12.371 2.41268L12.3713 2.7781H13.0648H13.7583V2.29874C13.7583 1.99325 13.7377 1.73839 13.7014 1.59601C13.5117 0.851419 12.9114 0.251195 12.1666 0.0615513C11.8386 -0.0219517 1.89253 -0.0198154 1.57463 0.0638375ZM5.97378 4.24288C5.1223 4.3871 4.43462 5.05325 4.2552 5.90758C4.17273 6.30044 4.17273 15.8964 4.2552 16.2892C4.42866 17.1152 5.07837 17.7647 5.90454 17.9382C6.29749 18.0206 15.8959 18.0206 16.2888 17.9382C17.117 17.7643 17.7642 17.1173 17.9381 16.2892C18.0206 15.8964 18.0206 6.30044 17.9381 5.90758C17.7811 5.15992 17.2388 4.55722 16.495 4.30401L16.2513 4.22103L11.2091 4.2156C8.43594 4.2126 6.08002 4.22486 5.97378 4.24288ZM16.1872 5.69748C16.3463 5.77866 16.4229 5.85718 16.5092 6.02752C16.5643 6.13632 16.57 6.60818 16.57 11.0984C16.57 15.5886 16.5643 16.0605 16.5092 16.1693C16.4229 16.3396 16.3463 16.4182 16.1872 16.4993C16.0528 16.5679 15.8814 16.5703 11.0963 16.5703C6.60527 16.5703 6.13333 16.5647 6.0245 16.5096C5.85412 16.4233 5.77558 16.3467 5.69438 16.1877C5.62577 16.0533 5.62337 15.882 5.62337 11.0984C5.62337 6.31487 5.62577 6.14351 5.69438 6.00915C5.77381 5.85354 5.85172 5.77622 6.017 5.68889C6.11796 5.63556 6.63631 5.62934 11.0888 5.62799C15.8829 5.62653 16.0527 5.62885 16.1872 5.69748Z" fill="white"/>
</svg>
