<svg width="20" height="20" viewBox="0 0 20 20" fill="none" xmlns="http://www.w3.org/2000/svg">
<path fill-rule="evenodd" clip-rule="evenodd" d="M8.71201 0.0651116C5.39182 0.500052 2.48848 2.59082 1.01771 5.60595C-0.339235 8.38759 -0.339235 11.6076 1.01771 14.3893C2.53169 17.493 5.50251 19.574 8.96595 19.9569C9.76346 20.045 11.0379 19.9939 11.8452 19.8414C15.3901 19.1719 18.3196 16.6242 19.477 13.2042C20.1743 11.1438 20.1743 8.85146 19.477 6.79109C18.2333 3.11599 14.9534 0.471541 11.105 0.041063C10.5344 -0.0227689 9.28703 -0.0102279 8.71201 0.0651116ZM10.7925 5.09543C11.1264 5.18247 11.6056 5.43639 11.9105 5.68782C12.967 6.55896 13.2981 8.06153 12.7011 9.27584C12.4856 9.71411 12.1216 10.0855 11.4985 10.5029C11.0022 10.8354 11.0005 10.8372 10.9762 11.0531C10.9179 11.5711 10.4976 11.9465 9.97887 11.944C9.29688 11.9407 8.91504 11.4164 8.98242 10.5759C9.03131 9.96601 9.3841 9.50463 10.2411 8.92981C10.8944 8.49163 10.988 8.37909 10.9866 8.03302C10.9824 6.93651 9.60562 6.59382 9.10652 7.56506C9.0573 7.66092 9.017 7.80479 9.017 7.88478C9.017 8.5758 8.42059 9.10975 7.80377 8.971C7.3265 8.86368 6.99941 8.44555 6.99941 7.94274C6.99941 7.125 7.43629 6.22787 8.10087 5.6811C8.34786 5.47786 8.83527 5.2067 9.11304 5.11798C9.58201 4.96814 10.2691 4.95894 10.7925 5.09543ZM10.4016 13.0913C11.1446 13.4292 11.1846 14.4837 10.4695 14.8813C9.96775 15.1602 9.31086 14.932 9.08963 14.4019C8.745 13.5762 9.59679 12.7253 10.4016 13.0913Z" fill="#FA3131"/>
</svg>
