<svg width="18" height="18" viewBox="0 0 18 18" fill="none" xmlns="http://www.w3.org/2000/svg">
  <g clip-path="url(#clip0_1108_2828)">
    <path fill-rule="evenodd" clip-rule="evenodd" d="M17.1561 0.0546244C17.0942 0.0827542 13.2174 3.93447 8.54105 8.61399C0.927523 16.2327 0.0358907 17.1369 0.0132361 17.2629C-0.0274972 17.4895 0.0252011 17.6663 0.179433 17.8205C0.333777 17.9749 0.510775 18.0275 0.737097 17.9865C0.860609 17.9641 1.09942 17.74 2.69687 16.1474L4.51599 14.3339L4.77855 14.486C5.60372 14.964 6.73232 15.3482 7.79791 15.5138C8.39841 15.6071 9.64498 15.6077 10.2172 15.515C11.1862 15.3579 11.9964 15.1018 12.8427 14.685C14.9038 13.6698 16.6172 11.9073 17.7592 9.62779C17.9323 9.28206 18 9.10582 18 9.00024C18 8.89199 17.9258 8.70664 17.7175 8.29444C16.999 6.87261 15.9286 5.54125 14.6615 4.49328L14.493 4.35394L16.2252 2.61796C17.7449 1.09483 17.9604 0.864725 17.9828 0.741329C18.0734 0.242494 17.6028 -0.148323 17.1561 0.0546244ZM8.32302 2.42413C7.38109 2.50964 6.37536 2.77027 5.49877 3.15603C3.32625 4.11203 1.3547 6.08588 0.187234 8.47368C-0.070481 9.0008 -0.0687182 9.02683 0.269826 9.68739C0.868448 10.8554 1.65086 11.9265 2.56335 12.8273L2.8478 13.108L4.48385 11.4721L6.1199 9.83606L6.05385 9.5035C5.82741 8.36368 6.35826 7.14978 7.37273 6.48757C7.65959 6.3003 7.9134 6.19044 8.30427 6.08441C8.58858 6.00726 9.26852 6.0013 9.59224 6.07309L9.83004 6.12578L11.252 4.70429C12.034 3.92243 12.6739 3.27226 12.6739 3.25947C12.6739 3.24664 12.5576 3.18416 12.4153 3.12055C11.8058 2.84803 10.9809 2.61275 10.2156 2.49314C9.85296 2.43651 8.66427 2.39311 8.32302 2.42413ZM11.6674 7.6724C11.8911 8.08568 11.9762 8.45028 11.9776 9.00211C11.9793 9.6536 11.8474 10.115 11.5128 10.6275C11.0865 11.2804 10.4972 11.699 9.69205 11.9207C9.34593 12.016 8.61236 12.0043 8.23679 11.8975C7.95155 11.8164 7.59252 11.6543 7.44159 11.5386C7.36976 11.4835 7.45315 11.3945 9.41063 9.43516C10.5349 8.30993 11.471 7.3947 11.491 7.40138C11.5109 7.40801 11.5903 7.52998 11.6674 7.6724Z" fill="#0071BC"/>
  </g>
  <defs>
    <clipPath id="clip0_1108_2828">
      <rect width="18" height="18" fill="white"/>
    </clipPath>
  </defs>
</svg>
