<svg width="100" height="100" viewBox="0 0 100 100" fill="none" xmlns="http://www.w3.org/2000/svg">
<g clip-path="url(#clip0_10_4720)">
<path fill-rule="evenodd" clip-rule="evenodd" d="M11.8145 0.28847C9.65287 0.771406 7.40603 2.00922 5.81936 3.59127C1.43433 7.96367 1.01724 14.5095 4.80725 19.4758C7.00764 22.3593 10.5282 24.0809 14.2715 24.1039C16.479 24.1176 17.7527 23.821 19.8645 22.8016C24.1561 20.7304 26.8269 16.1036 26.5019 11.304L26.3878 9.61839L28.7088 9.53634C31.5023 9.43749 32.1437 9.16281 32.8447 7.76558C33.1998 7.05758 33.2761 6.67252 33.1767 6.08917C33.0037 5.07172 32.0593 3.96968 31.1446 3.71747C30.7435 3.6069 28.721 3.51605 26.6501 3.51547C23.4351 3.51449 22.847 3.46858 22.6232 3.20074C22.0604 2.52771 19.9647 1.29556 18.4371 0.739562C16.4649 0.021605 13.8167 -0.158714 11.8145 0.28847ZM83.3631 0.196845C79.3093 1.00154 75.8575 3.84504 74.3553 7.6169C73.0028 11.0127 73.1546 14.2045 74.8283 17.5745C76.3291 20.5962 79.4664 23.0468 82.871 23.8572C85.2997 24.4353 88.8738 24.0018 91.1407 22.8538C92.4772 22.1771 94.2751 20.6782 95.1927 19.4758C98.9828 14.5095 98.5657 7.96367 94.1806 3.59127C91.4065 0.82513 87.0634 -0.537718 83.3631 0.196845ZM36.2963 12.9771C35.9586 13.123 35.4271 13.5741 35.1153 13.9799L34.5486 14.7172V27.3678C34.5486 39.8978 34.5526 40.0236 34.9604 40.57C35.187 40.8734 35.6678 41.3212 36.029 41.5652L36.6859 42.0089L49.4939 41.9559C61.9525 41.9044 62.3164 41.8923 62.8268 41.5123C63.1153 41.2974 63.5139 40.8578 63.7125 40.5355C64.0528 39.983 64.0735 39.226 64.0735 27.3139C64.0735 14.857 64.0678 14.6711 63.6677 14.1391C62.6591 12.7983 62.6658 12.7999 57.2824 12.7358L52.3891 12.6774L52.3264 17.0338C52.2693 20.9979 52.2276 21.4509 51.863 22.0669C50.7397 23.9644 47.912 23.9486 46.7523 22.0384C46.3958 21.4513 46.3527 20.9785 46.2958 17.0431L46.2332 12.6963L41.5718 12.7039C38.0916 12.7096 36.7549 12.7788 36.2963 12.9771ZM4.19215 31.6363C3.84297 31.7211 3.3255 31.9413 3.04206 32.1257C1.93527 32.8454 1.88685 33.1684 0.907211 46.3963C0.405682 53.1656 -0.00235179 58.8142 1.02032e-05 58.9484C0.00355319 59.141 2.47597 59.1926 11.6936 59.1926H23.3829L23.4949 58.3623C23.5565 57.9057 23.6642 56.6939 23.7343 55.6694L23.8616 53.8068L18.6747 50.5871C13.9021 47.6244 13.4512 47.2972 13.0325 46.4911C11.992 44.4886 13.3441 42.2937 15.6179 42.2937C16.5822 42.2937 16.8432 42.4229 20.4751 44.6973C22.8131 46.1613 24.3315 47.0012 24.3596 46.8463C24.4864 46.1482 25.1991 35.9599 25.1991 34.8465C25.1991 33.3428 24.8472 32.6094 23.8213 31.9749C23.1412 31.5543 23.0147 31.5484 13.9796 31.5154C8.94565 31.497 4.54133 31.5515 4.19215 31.6363ZM77.0428 31.6316C75.5046 32.0077 74.804 33.0035 74.8023 34.8162C74.8011 35.9484 75.5107 46.1312 75.6404 46.8463C75.6685 47.0012 77.1869 46.1613 79.5249 44.6973C83.1568 42.4229 83.4178 42.2937 84.3821 42.2937C86.6559 42.2937 88.008 44.4886 86.9675 46.4911C86.5488 47.2972 86.0979 47.6244 81.3253 50.5871L76.1384 53.8068L76.2657 55.6694C76.3358 56.6939 76.4435 57.9057 76.5051 58.3623L76.6171 59.1926H88.3064C97.524 59.1926 99.9964 59.141 100 58.9484C100.002 58.8142 99.5961 53.1656 99.0971 46.3963C98.0872 32.6985 98.0998 32.7724 96.6493 31.9428C95.9879 31.5646 95.5939 31.5474 86.8077 31.5154C81.7737 31.497 77.3796 31.5494 77.0428 31.6316ZM24.3976 47.3243C24.2988 47.6621 23.8843 53.6511 23.9545 53.7224C24.0075 53.7762 27.6686 53.8201 32.0902 53.8201C39.9029 53.8201 40.1448 53.8088 40.6731 53.4173C41.6783 52.6724 42.0283 52.0197 42.0283 50.8897C42.0283 49.6911 41.6092 48.98 40.5314 48.35C39.9045 47.9835 39.4102 47.9532 32.5406 47.8616C27.0548 47.7883 25.1564 47.7025 24.9723 47.5197C24.7531 47.3017 24.4356 47.1938 24.3976 47.3243ZM75.0276 47.5197C74.8436 47.7025 72.9452 47.7883 67.4594 47.8616C60.5898 47.9532 60.0955 47.9835 59.4686 48.35C58.3908 48.98 57.9717 49.6911 57.9717 50.8897C57.9717 52.0197 58.3217 52.6724 59.3269 53.4173C59.8552 53.8088 60.0971 53.8201 67.9098 53.8201C72.3314 53.8201 75.9925 53.7762 76.0455 53.7224C76.1157 53.6511 75.7012 47.6621 75.6024 47.3243C75.5644 47.1938 75.2469 47.3017 75.0276 47.5197ZM0.282071 65.7861C0.343483 66.0815 1.54574 73.2245 2.95368 81.6593C4.36162 90.094 5.61446 97.3701 5.73787 97.8282C6.02997 98.9131 6.99229 99.7611 8.11561 99.9239C8.58033 99.9913 11.722 100.019 15.0975 99.986C20.9381 99.9286 21.2605 99.9061 21.7776 99.5228C22.0764 99.3013 22.5033 98.8773 22.7265 98.5806C23.1278 98.0472 23.1329 97.8595 23.1849 81.645L23.2373 65.2488H11.7037H0.170074L0.282071 65.7861ZM76.8151 81.645C76.867 97.8595 76.8722 98.0472 77.2735 98.5806C77.4967 98.8773 77.9236 99.3013 78.2224 99.5228C78.7395 99.9061 79.0619 99.9286 84.9025 99.986C88.278 100.019 91.4197 99.9913 91.8844 99.9239C93.0077 99.7611 93.97 98.9131 94.2621 97.8282C94.3855 97.3701 95.6384 90.094 97.0463 81.6593C98.4543 73.2245 99.6565 66.0815 99.7179 65.7861L99.8299 65.2488H88.2963H76.7627L76.8151 81.645Z" fill="#0071BC"/>
</g>
<defs>
<clipPath id="clip0_10_4720">
<rect width="100" height="100" fill="white"/>
</clipPath>
</defs>
</svg>
