<svg width="100" height="100" viewBox="0 0 100 100" fill="none" xmlns="http://www.w3.org/2000/svg">
<path fill-rule="evenodd" clip-rule="evenodd" d="M56.0687 0.194157C52.4217 0.791487 48.8341 2.17769 45.7814 4.16866C43.9086 5.39012 40.8381 8.33666 39.4333 10.2601C36.0924 14.8341 34.5907 19.8178 34.7955 25.6518C34.9456 29.9293 35.9763 33.5221 38.0654 37.0503C41.6242 43.061 47.191 47.1357 54.1832 48.8478C56.5563 49.4289 61.353 49.5819 63.8361 49.1558C74.2647 47.3654 82.3011 39.7294 84.4539 29.5648C84.9469 27.2366 85.0466 23.5045 84.6784 21.1375C83.8395 15.7414 81.4631 11.1271 77.5223 7.24217C73.9547 3.72531 70.0436 1.59934 65.0992 0.489203C62.8787 -0.00932192 58.2366 -0.160953 56.0687 0.194157ZM61.2679 6.95828C62.119 7.46991 62.5856 8.21907 62.712 9.27697C62.8124 10.1171 62.8531 10.1639 63.6909 10.4071C65.6551 10.9772 67.6941 12.9326 68.513 15.0317C69.082 16.4901 69.1046 18.4983 68.5602 19.2173C67.5468 20.5562 65.9779 21.0021 64.7086 20.3122C63.7466 19.7894 63.2856 19.1009 63.0931 17.9C62.9815 17.2042 62.7622 16.7047 62.421 16.3684C61.9421 15.8961 61.801 15.8691 59.8188 15.8691H57.7232L57.144 16.5081C56.4619 17.2608 56.3946 18.0487 56.9533 18.7487C57.1668 19.0164 59.2879 20.6509 61.667 22.3808C64.0459 24.111 66.3661 25.9069 66.8228 26.3718C70.7791 30.3989 69.1028 37.0981 63.6603 39.0102C62.789 39.3164 62.7175 39.3913 62.7175 39.9998C62.7175 41.5568 61.4735 42.7957 59.8863 42.8194C58.2612 42.8436 57.1083 41.8141 56.8487 40.1068C56.7334 39.3485 56.656 39.2628 55.801 38.9452C52.9852 37.8993 50.9812 35.3262 50.7046 32.4018C50.5632 30.908 50.9272 30.042 51.9998 29.3203C53.7297 28.1563 56.5613 29.4858 56.5641 31.4633C56.5663 33.0312 57.4296 33.5757 59.9139 33.5757C61.5289 33.5757 61.7502 33.5298 62.2908 33.0813C62.975 32.5137 63.2183 31.7184 62.9337 30.98C62.8031 30.6417 61.0619 29.2399 57.7903 26.8394C55.07 24.8433 52.6226 22.9232 52.3515 22.5724C50.5525 20.2431 50.1401 17.1493 51.2966 14.6592C52.2352 12.6379 53.5622 11.3603 55.5501 10.5638C56.6155 10.1369 56.658 10.0911 56.8779 9.12847C57.0027 8.58142 57.2738 7.94692 57.48 7.718C58.5175 6.56737 60.0919 6.25139 61.2679 6.95828ZM41.1503 53.4308C35.258 54.4848 29.739 58.1954 26.8298 63.0593L26.2384 64.0481L32.3216 74.4412L38.4046 84.8345H50.8092C64.2642 84.8345 65.447 84.7629 68.8668 83.7404C72.8276 82.5561 74.7091 81.4096 86.3484 73.0891C100.752 62.792 99.8743 63.5455 99.9912 61.38C100.078 59.7796 99.5292 58.6189 98.2746 57.7479C97.2116 57.0099 95.3761 56.8473 94.2466 57.391C93.8493 57.5824 89.4517 60.6444 84.4748 64.1955C79.4977 67.7466 74.9518 70.9371 74.3729 71.2853C73.7941 71.6336 72.6174 72.0959 71.7582 72.3125C70.3205 72.6751 69.5635 72.7064 62.2523 72.7064C54.6369 72.7064 54.2737 72.6898 53.4639 72.3033C52.5317 71.8584 51.7989 70.6913 51.8047 69.6608C51.8095 68.8287 52.5869 67.6188 53.3861 67.1995C54.028 66.8628 54.6778 66.8368 62.4274 66.8368H70.7769L71.7598 66.3539C73.454 65.5218 74.3082 63.6889 73.8257 61.922C73.5278 60.8318 72.23 59.5248 71.1521 59.23C70.6515 59.093 68.1341 59.0124 64.3319 59.0118L58.3049 59.0107L57.1363 57.9441C53.0448 54.2099 46.7424 52.4304 41.1503 53.4308ZM16.0174 62.344C15.7119 62.4316 12.1559 64.3809 8.11478 66.6756C0.136947 71.2057 0 71.3114 0 72.9351C0 73.7193 0.691878 74.9844 7.21073 86.1186C11.1768 92.8925 14.5346 98.6109 14.6725 98.8261C15.1763 99.6116 15.9362 100 16.9695 100C17.8971 100 18.3951 99.7533 24.6107 96.2122C33.044 91.4079 33.045 91.4073 33.4243 90.6192C34.027 89.3674 33.8738 88.8724 31.7551 85.2235C22.2885 68.9189 18.7275 63.0219 18.1603 62.7105C17.3547 62.2679 16.6819 62.1528 16.0174 62.344Z" fill="white"/>
</svg>
