<svg width="100" height="100" viewBox="0 0 100 100" fill="none" xmlns="http://www.w3.org/2000/svg">
<path fill-rule="evenodd" clip-rule="evenodd" d="M47.8432 15.9606C38.9409 17.3402 33.0452 25.7758 34.8849 34.5014C35.8158 38.9166 38.8885 42.8485 43.0635 44.9678C49.4461 48.2075 57.3207 46.5242 62.0098 40.918C67.6812 34.1373 66.1115 23.5762 58.6846 18.5464C55.5882 16.4495 51.2953 15.4256 47.8432 15.9606ZM18.3263 29.8589C13.2823 31.6479 10.3555 36.8702 11.6272 41.8128C12.7135 46.0348 15.695 48.8064 20.0099 49.6055C22.7626 50.1151 26.16 49.081 28.3569 47.0647C33.7965 42.0722 32.4909 33.4374 25.8267 30.3305C23.6478 29.3147 20.4313 29.1125 18.3263 29.8589ZM75.5996 29.7507C70.8713 31.2395 67.902 35.5619 68.3067 40.3671C68.7925 46.1365 74.4675 50.6267 79.9824 49.6055C87.7293 48.171 91.2119 39.6508 86.6053 33.4026C85.5265 31.9392 83.1774 30.3039 81.3992 29.7781C79.879 29.3287 76.9834 29.315 75.5996 29.7507ZM37.2479 48.2891C26.985 51.164 20.5984 56.1059 18.8911 62.4929C18.6193 63.5104 18.5279 65.4543 18.5256 70.2664C18.5224 77.2174 18.5821 77.5741 19.9217 78.6234C21.2606 79.672 30.0317 82.1077 36.0476 83.1015C41.0532 83.9282 44.3052 84.1797 49.9961 84.1797C55.6793 84.1797 58.9014 83.931 63.9844 83.1003C69.9691 82.1223 78.7049 79.6929 80.0638 78.6287C81.4054 77.5778 81.4696 77.205 81.4696 70.4651C81.4696 63.5245 81.3222 62.425 80.0413 59.8043C77.8214 55.2623 72.5784 51.5042 64.8873 48.942C60.9976 47.6464 60.6009 47.6178 58.8349 48.5052C55.8122 50.0246 53.9905 50.4191 49.9961 50.4191C45.9211 50.4191 43.9577 49.9821 41.1196 48.444L39.6121 47.6268L37.2479 48.2891ZM12.0376 52.2011C7.94106 53.3785 4.04959 55.5965 2.33228 57.7325C1.87667 58.2991 1.20224 59.4036 0.833547 60.187C0.190839 61.5522 0.159615 61.8092 0.0816811 66.3989L0 71.1869L0.706155 71.885C1.22322 72.3964 2.16992 72.803 4.24442 73.4049C7.46946 74.3403 12.5077 75.4083 13.7142 75.412L14.526 75.4148V69.4854C14.526 64.391 14.5957 63.285 15.0203 61.6313C15.6885 59.03 16.66 56.9458 18.0718 55.0844L19.249 53.5317L18.5736 53.3882C17.4878 53.1577 15.7118 52.509 14.8807 52.0394C14.1368 51.6194 14.0427 51.6246 12.0376 52.2011ZM85.0988 52.0658C84.6907 52.3145 83.5526 52.7667 82.5702 53.0704L80.7837 53.6225L81.7906 54.881C82.3444 55.5732 83.2176 57.0349 83.731 58.1292C85.2349 61.3361 85.4663 62.8587 85.4663 69.5568V75.4148L86.2781 75.412C87.4846 75.4083 92.5228 74.3403 95.7478 73.4049C97.8291 72.8013 98.7685 72.3971 99.2901 71.8813L100 71.1792L99.9101 66.3952C99.8289 62.0613 99.7672 61.4953 99.2541 60.379C97.4954 56.5511 93.4865 53.7036 87.5852 52.0902C85.8946 51.6278 85.818 51.6271 85.0988 52.0658Z" fill="white"/>
</svg>
