<svg width="100" height="100" viewBox="0 0 100 100" fill="none" xmlns="http://www.w3.org/2000/svg">
<path fill-rule="evenodd" clip-rule="evenodd" d="M47.9003 0.424286C46.6388 0.955739 46.0748 1.35765 44.2478 3.02723C42.6497 4.48756 40.2877 6.26206 38.3975 7.42207C32.7358 10.8972 26.8466 12.7073 18.799 13.4459C17.1825 13.5942 15.7886 13.8435 14.9522 14.1336C11.5653 15.3089 9.00771 18.1383 8.06972 21.7475C7.8281 22.6773 7.74112 24.597 7.64927 31.0284C7.49795 41.6373 7.86827 47.9999 9.0512 55.1155C11.6374 70.6726 18.7411 82.4861 30.5971 90.9458C36.3497 95.0505 47.0099 100 50.0981 100C51.8579 100 56.5276 98.2312 61.7012 95.6046C67.1359 92.8457 70.8932 90.2863 74.9977 86.5476C81.8009 80.3505 86.9191 71.7867 89.5718 62.1621C91.9172 53.6532 92.7558 44.7953 92.5475 30.7353C92.4562 24.5681 92.3675 22.6726 92.1268 21.7475C91.1877 18.1375 88.6307 15.3089 85.244 14.1336C84.4076 13.8435 83.0136 13.5942 81.3972 13.4459C70.4144 12.4379 63.194 9.43085 55.5543 2.68316C53.3906 0.772075 52.065 0.0991616 50.2931 0.0124097C49.2933 -0.036437 48.7878 0.0505103 47.9003 0.424286ZM53.8033 25.3848C63.3769 26.7191 71.496 33.9543 74.0637 43.4401C75.1703 47.5278 75.2027 52.2728 74.1512 56.2333C71.5841 65.9032 63.8438 72.9221 53.9008 74.5964C51.0903 75.0696 46.7277 74.8455 43.8578 74.0805C35.0806 71.7414 28.3796 65.0275 26.045 56.2333C25.0294 52.4082 25.0294 47.5536 26.045 43.7285C28.8475 33.1721 37.9882 25.7019 48.8305 25.1073C50.1572 25.0347 52.0468 25.1402 53.8033 25.3848ZM49.123 30.9826C44.3513 31.2656 40.3462 33.0285 36.8908 36.3669C33.0983 40.0312 31.1605 44.6349 31.1605 49.9809C31.1605 55.3425 33.0872 59.9199 36.8908 63.5949C40.6489 67.2256 44.9102 68.9551 50.0981 68.9551C55.2859 68.9551 59.5473 67.2256 63.3053 63.5949C67.0979 59.9306 69.0382 55.3228 69.0382 49.9809C69.0382 44.6549 67.0866 40.0203 63.3053 36.3669C59.4079 32.6014 54.3306 30.6739 49.123 30.9826ZM60.6247 41.7262C62.0005 42.4186 62.6185 44.3022 61.9098 45.6433C61.7566 45.9335 58.3562 49.4373 54.3532 53.4297C46.5975 61.1654 46.6509 61.1227 45.0614 60.8272C44.4728 60.7178 43.7958 60.1492 41.2585 57.6332C39.5605 55.9498 38.0469 54.3351 37.8946 54.045C37.1282 52.5852 37.8786 50.6773 39.4564 50.0735C40.9535 49.5006 41.5245 49.7419 43.6706 51.8543C44.6979 52.8658 45.6216 53.6933 45.7232 53.6933C45.8246 53.6933 48.54 51.0467 51.7568 47.8123C54.9739 44.5779 57.8692 41.8116 58.191 41.6652C58.9941 41.3001 59.8191 41.3206 60.6247 41.7262Z" fill="white"/>
</svg>
