<svg width="50" height="50" viewBox="0 0 50 50" fill="none" xmlns="http://www.w3.org/2000/svg">
<path fill-rule="evenodd" clip-rule="evenodd" d="M0 24.9944V44.5201H0.878906H1.75781V24.9944V5.46875H0.878906H0V24.9944ZM2.63672 24.9944V44.5201H3.07617H3.51562V24.9944V5.46875H3.07617H2.63672V24.9944ZM5.27344 24.9944V44.5201H5.71289H6.15234V24.9944V5.46875H5.71289H5.27344V24.9944ZM9.66797 24.9944V44.5201H10.1074H10.5469V24.9944V5.46875H10.1074H9.66797V24.9944ZM13.1836 24.9982V44.5277L14.0381 44.4996L14.8926 44.4715L14.9172 24.9701L14.9419 5.46875H14.0627H13.1836V24.9982ZM17.5781 25V44.5312L17.9932 44.5013L18.4082 44.4715L18.4328 24.9701L18.4575 5.46875H18.0178H17.5781V25ZM19.3359 25V44.5312L19.751 44.5013L20.166 44.4715L20.1906 24.9701L20.2153 5.46875H19.7756H19.3359V25ZM21.0938 25V44.5312L21.5088 44.5013L21.9238 44.4715L21.9484 24.9701L21.9731 5.46875H21.5334H21.0938V25ZM24.5359 24.9701L24.5605 44.4715L25.415 44.4996L26.2695 44.5277V24.9982V5.46875H25.3904H24.5112L24.5359 24.9701ZM28.9062 24.9944V44.5201H29.7852H30.6641V24.9944V5.46875H29.7852H28.9062V24.9944ZM32.4219 24.9944V44.5201H33.3008H34.1797V24.9944V5.46875H33.3008H32.4219V24.9944ZM35.9375 24.9944V44.5201H36.8164H37.6953V24.9944V5.46875H36.8164H35.9375V24.9944ZM38.5742 24.9944V44.5201H39.4531H40.332V24.9944V5.46875H39.4531H38.5742V24.9944ZM42.9688 24.9944V44.5201H44.2871H45.6055V24.9944V5.46875H44.2871H42.9688V24.9944ZM46.4844 24.9944V44.5201H46.9238H47.3633V24.9944V5.46875H46.9238H46.4844V24.9944ZM48.2422 24.9944V44.5201H49.1211H50V24.9944V5.46875H49.1211H48.2422V24.9944Z" fill="white"/>
</svg>
