<svg width="50" height="50" viewBox="0 0 50 50" fill="none" xmlns="http://www.w3.org/2000/svg">
<path fill-rule="evenodd" clip-rule="evenodd" d="M23.847 5.08045C22.6046 5.2871 21.2282 5.97757 20.2413 6.88929C19.6005 7.48123 18.8333 8.56266 18.8333 8.87401C18.8333 9.17595 19.1842 9.48846 19.5233 9.48846C19.8282 9.48846 19.9781 9.35826 20.3555 8.76573C20.8623 7.96989 22.0634 7.02858 23 6.69331C23.5208 6.50683 24.5196 6.32077 25 6.32077C27.2347 6.32077 29.4878 7.84501 30.2448 9.86884C30.5971 10.8107 30.6087 10.7982 29.8223 10.3251C29.4388 10.0943 29.0378 9.90552 28.9311 9.90543C28.7138 9.90527 28.25 10.3237 28.25 10.5201C28.25 10.8731 28.4843 11.0791 29.7371 11.8282C30.4546 12.2573 31.1555 12.6222 31.2946 12.6392C31.646 12.6823 31.7752 12.5504 32.7441 11.1603C33.6625 9.84258 33.7483 9.58925 33.3905 9.25289C33.1892 9.06374 32.8401 9.01756 32.5966 9.14794C32.5183 9.18987 32.3092 9.4347 32.1321 9.69195C31.9549 9.94928 31.8003 10.1494 31.7883 10.1368C31.7763 10.124 31.6509 9.81357 31.5096 9.44678C30.8302 7.68379 29.3149 6.17847 27.5 5.46341C26.4323 5.04277 24.9854 4.89114 23.847 5.08045ZM18.3606 11.4262C18.0553 11.6026 16.4167 14.0288 16.4167 14.3044C16.4167 14.6178 16.7509 14.9346 17.0816 14.9346C17.3804 14.9346 17.5771 14.7694 17.9264 14.2248C18.0703 14.0004 18.1983 13.8277 18.2108 13.8409C18.2233 13.854 18.3491 14.1659 18.4905 14.5339C19.1473 16.2427 20.6507 17.7828 22.3202 18.4574C23.3209 18.8618 23.8072 18.9489 25.0417 18.945C26.374 18.941 26.8903 18.8321 27.9689 18.3281C29.1036 17.7979 30.0098 17.0288 30.7617 15.9576C31.0198 15.5902 31.1667 15.2934 31.1667 15.1399C31.1667 14.8286 30.811 14.4901 30.4841 14.4901C30.2046 14.4901 30.0371 14.6473 29.4859 15.4271C28.5588 16.7387 26.7145 17.6578 25.0098 17.6578C22.6328 17.6578 20.4175 16.0918 19.6724 13.8847C19.5783 13.6057 19.5163 13.3623 19.5348 13.3437C19.5534 13.3252 19.8662 13.4818 20.23 13.6917C20.5938 13.9016 20.9908 14.0733 21.1123 14.0733C21.5358 14.0733 21.8726 13.4995 21.6707 13.1221C21.5572 12.9099 19.0887 11.4162 18.7568 11.3587C18.6384 11.3382 18.4602 11.3686 18.3606 11.4262ZM9.29167 17.0788C7.7755 17.2754 6.27642 18.3342 5.58517 19.6965C5.28892 20.2804 5.28908 20.5311 5.58592 20.8281C5.73317 20.9754 5.74542 21.0671 5.70008 21.6803C5.485 24.588 8.15525 26.8679 10.9922 26.1989C12.8999 25.7491 14.2573 24.0439 14.2741 22.0759C14.2774 21.6862 14.2521 21.283 14.2178 21.1798L14.1554 20.9922H15.3732C16.555 20.9922 16.5969 20.9862 16.7954 20.7876C16.9244 20.6586 17 20.4877 17 20.3253C17 20.1629 16.9244 19.992 16.7954 19.8631C16.5984 19.6659 16.5495 19.6584 15.4621 19.6584C14.8413 19.6584 14.3333 19.6258 14.3333 19.5861C14.3333 19.4104 13.4603 18.4063 13.0228 18.0787C11.9538 17.2783 10.5837 16.9112 9.29167 17.0788ZM39.4502 17.7409C37.8697 17.9727 36.5408 19.0234 36.0002 20.4689C34.7927 23.6972 37.6504 26.9871 40.98 26.2017C43.2428 25.6681 44.7163 23.3804 44.2392 21.1422C43.8565 19.3475 42.3747 17.9769 40.5626 17.7415C40.2303 17.6983 39.9396 17.6665 39.9167 17.6708C39.8937 17.675 39.6838 17.7066 39.4502 17.7409ZM17 23.7687C16.591 23.8976 15.8934 24.6202 15.768 25.0449C15.6295 25.5139 15.6255 31.1304 15.7634 31.5908C15.9003 32.0481 16.3776 32.5687 16.8703 32.7982L17.2917 32.9944L20.9487 32.9953C23.4852 32.9958 24.7046 32.9664 24.9285 32.8993C25.3857 32.7624 25.9061 32.285 26.1355 31.792C26.33 31.3742 26.3317 31.3448 26.3325 28.3793C26.3331 26.2722 26.3034 25.2865 26.232 25.0449C26.0968 24.587 25.4064 23.8964 24.9487 23.7611C24.76 23.7053 24.2444 23.6597 23.8028 23.6597H23V25.4557C23 27.2516 23 27.2518 22.7954 27.4564C22.5509 27.701 22.3958 27.7069 21.6042 27.5012C21.0125 27.3474 20.9875 27.3474 20.3958 27.5012C19.6043 27.7069 19.4491 27.701 19.2046 27.4564C19 27.2518 19 27.2516 19 25.4557V23.6597L18.1458 23.6682C17.6761 23.6729 17.1604 23.7182 17 23.7687ZM20.3333 24.9013V26.1428L20.6667 26.0582C20.8923 26.0009 21.1077 26.0009 21.3333 26.0582L21.6667 26.1428V24.9013V23.6597H21H20.3333V24.9013ZM30.7879 23.8644C30.6417 24.0106 30.5833 24.1603 30.5833 24.3895C30.5833 24.6834 30.5578 24.7192 30.2747 24.8215C29.8202 24.986 29.1411 25.7035 28.973 26.197C28.6574 27.1236 28.8773 28.1244 29.4881 28.5412C29.862 28.7963 30.1397 28.8736 31.232 29.0261C31.7034 29.092 32.144 29.1915 32.2112 29.2473C32.4763 29.4674 32.309 30.0907 31.8762 30.4953C31.7037 30.6566 31.5644 30.7037 31.2604 30.7037C30.7478 30.7037 30.4452 30.4993 30.2319 30.009C29.9887 29.4494 29.8571 29.3282 29.4932 29.3282C29.1281 29.3282 28.8328 29.6228 28.8342 29.9855C28.8364 30.5888 29.5498 31.5395 30.2292 31.8446C30.5481 31.9878 30.5833 32.0326 30.5833 32.2952C30.5833 32.8676 31.2302 33.1997 31.6627 32.8494C31.7764 32.7573 31.8617 32.5695 31.8918 32.3447C31.9353 32.0207 31.9762 31.9683 32.3241 31.7904C33.5585 31.1591 34.0483 29.5177 33.3144 28.4715C33.0414 28.0823 32.4215 27.8312 31.4034 27.6974C30.2295 27.5431 30.1667 27.5088 30.1667 27.0231C30.1667 26.6905 30.2085 26.5993 30.4902 26.3174C30.7804 26.0271 30.8569 25.9938 31.2338 25.9938C31.7529 25.9938 32.1155 26.2622 32.2634 26.7559C32.4483 27.3733 32.9594 27.5813 33.3872 27.2132C33.5638 27.0613 33.615 26.9459 33.6084 26.7148C33.5899 26.0595 32.9513 25.1848 32.2655 24.8755C31.9647 24.7398 31.9327 24.6942 31.8932 24.3425C31.8194 23.6881 31.2223 23.4297 30.7879 23.8644ZM8.42133 27.5852C7.31208 27.8028 6.07067 28.7485 5.52108 29.7945C4.9965 30.7927 5.00258 30.6972 5.00125 37.9806L5 44.5908L5.20458 44.7954L5.40908 45H9.33333H13.2576L13.4621 44.7954L13.6667 44.5908L13.664 41.8152L13.6613 39.0397L10.9809 37.2475C9.50658 36.2617 8.15892 35.3112 7.986 35.1351C6.86725 33.9961 6.87117 32.0023 7.99433 30.8446C8.89617 29.9149 10.3858 29.583 11.4373 30.0773C11.6345 30.1701 12.2003 30.5498 12.6948 30.9211C13.1892 31.2925 13.6101 31.5801 13.63 31.5601C13.7219 31.4682 13.4587 30.4768 13.1966 29.9277C12.3629 28.1815 10.3688 27.2032 8.42133 27.5852ZM39.6063 27.6226C38.0353 28.0458 36.8052 29.3253 36.448 30.9077C36.374 31.2354 36.3358 31.5258 36.3629 31.553C36.3902 31.5802 36.7978 31.3105 37.2688 30.9534C38.482 30.0339 38.6815 29.9534 39.75 29.9534C40.5402 29.9534 40.6712 29.9761 41.1014 30.1874C41.7291 30.4957 42.2923 31.0549 42.5683 31.644C42.7662 32.0663 42.7917 32.2208 42.7917 32.9961C42.7917 33.7953 42.7708 33.9126 42.5517 34.3452C42.4197 34.6058 42.1739 34.9624 42.0054 35.1378C41.837 35.3132 40.4931 36.2628 39.019 37.2481L36.3389 39.0397L36.3362 41.8152L36.3333 44.5908L36.5379 44.7954L36.7424 45H40.6667H44.5909L44.7954 44.7954L45 44.5908L44.9987 37.9806C44.9974 30.6972 45.0035 30.7927 44.4789 29.7945C43.5794 28.0825 41.4394 27.1287 39.6063 27.6226ZM9.91667 31.2446C8.49517 31.51 7.95358 33.3396 9.01275 34.2985C9.12033 34.396 10.286 35.1931 11.6031 36.0699L13.9978 37.6643H16.6116C19.1923 37.6643 19.2289 37.6619 19.5065 37.4747C19.6612 37.3705 19.8763 37.1548 19.9845 36.9954C20.261 36.5883 20.2189 35.8155 19.8973 35.3936C19.5004 34.8732 19.3077 34.83 17.3823 34.83H15.6649L13.4957 33.1997C12.3025 32.3029 11.206 31.5009 11.059 31.4173C10.7381 31.2348 10.3133 31.1706 9.91667 31.2446ZM39.5417 31.2034C39.4958 31.2185 39.3553 31.2537 39.2294 31.2815C39.1035 31.3092 37.953 32.117 36.6727 33.0765L34.3448 34.8209L32.5116 34.8463C30.812 34.8699 30.6617 34.8842 30.4485 35.0436C30.0277 35.3582 29.8849 35.631 29.8508 36.1856C29.8236 36.6267 29.8486 36.7497 30.0155 36.9954C30.1238 37.1548 30.3388 37.3705 30.4935 37.4747C30.7711 37.6619 30.8078 37.6643 33.3884 37.6643H36.0022L38.3969 36.0699C39.714 35.1931 40.8797 34.396 40.9873 34.2985C41.7018 33.6517 41.7013 32.3544 40.9862 31.6872C40.6775 31.3992 39.8188 31.1115 39.5417 31.2034Z" fill="white"/>
<path fill-rule="evenodd" clip-rule="evenodd" d="M23.3021 0.669407C18.5684 1.12984 15.0382 2.3315 11.5118 4.66353C6.51809 7.966 2.85518 13.0914 1.41647 18.7785C-0.604119 26.7659 1.28592 34.8709 6.60725 41.0605L6.13331 41.468C0.677982 35.1225 -1.25941 26.8079 0.810557 18.6253C2.28824 12.7841 6.0462 7.52876 11.1671 4.14221C14.788 1.74761 18.4183 0.516489 23.2416 0.0473423C24.0428 -0.0306533 26.2095 -0.00885755 27.2501 0.0876107L27.1924 0.709943C26.1801 0.616104 24.0544 0.596175 23.3021 0.669407ZM16.3488 48.5141C22.2152 50.6739 29.0789 50.4694 34.8012 47.9644C40.4539 45.4899 45.2513 40.7771 47.7592 35.2351C51.1868 27.6603 50.6578 18.95 46.3398 11.858C44.4368 8.73251 41.2779 5.57457 38.1514 3.67218C34.873 1.67733 31.1329 0.447485 27.2501 0.0876107L27.1924 0.709943C30.9822 1.06119 34.6306 2.26147 37.8265 4.20611C40.8676 6.05658 43.9549 9.14289 45.8059 12.183C50.0164 19.0984 50.5323 27.5905 47.1898 34.9774C44.7466 40.3764 40.0639 44.9784 34.5506 47.3919C28.9763 49.8321 22.2798 50.0317 16.5648 47.9276L16.3488 48.5141ZM16.3488 48.5141L16.5648 47.9276C12.8279 46.5519 9.14074 44.0075 6.60725 41.0605L6.13331 41.468C8.73779 44.4975 12.5145 47.1025 16.3488 48.5141ZM27.4209 4.45441C30.7653 4.84799 33.9083 6.02378 36.76 7.94468L38.1767 8.89912L36.5201 10.63C35.8861 11.2925 29.6017 17.6481 22.561 24.7475L9.26652 38.1529L8.60537 37.3503C8.08916 36.7239 7.21162 35.3391 6.69531 34.351C4.29738 29.7608 3.79153 24.2414 5.28334 19.0973C6.69006 14.2463 9.85154 10.033 14.0723 7.39306L14.4037 7.92294C10.3156 10.48 7.24827 14.5654 5.88361 19.2714C4.43477 24.2673 4.92899 29.62 7.24925 34.0615C7.69751 34.9195 8.42262 36.0769 8.91497 36.7322C8.97652 36.8141 9.03443 36.8882 9.08771 36.9529L9.30945 37.222L22.1172 24.3074C29.1615 17.2044 35.4397 10.8551 36.0686 10.1979L37.2122 9.00296L36.4108 8.46305C33.6397 6.59643 30.591 5.4568 27.3479 5.07513C26.0508 4.92256 25.4539 4.90604 23.8771 4.97915C20.4932 5.13602 17.2465 6.14488 14.4037 7.92294L14.0723 7.39306C17.007 5.55743 20.3581 4.51661 23.8481 4.35482C25.4522 4.28045 26.0839 4.29714 27.4209 4.45441ZM26.7224 26.7532C34.4 19.0779 40.7145 12.8183 40.7547 12.843C40.7948 12.8678 41.0358 13.1841 41.2901 13.546C43.466 16.6407 44.66 20.2554 44.8166 24.222C45.0035 28.9564 43.5815 33.4717 40.7071 37.2701C39.9438 38.2788 38.0799 40.1407 37.0604 40.9128C34.3739 42.9476 31.6226 44.1647 28.3507 44.766C26.8157 45.0481 23.2886 45.0723 21.9217 44.8101C18.5372 44.161 15.9347 43.0554 13.4316 41.2032L12.763 40.7086L26.7224 26.7532ZM13.0598 41.7056L11.808 40.7795L26.2805 26.3112C30.1197 22.4731 33.6184 18.9887 36.1626 16.4667C37.4345 15.2058 38.4685 14.1849 39.1874 13.4803C39.5466 13.1283 39.8284 12.854 40.0223 12.6679C40.1188 12.5753 40.1962 12.502 40.2514 12.4511C40.278 12.4266 40.3048 12.4024 40.328 12.3827C40.3378 12.3744 40.3577 12.3576 40.3813 12.3405C40.3903 12.334 40.4197 12.3127 40.4597 12.2915C40.4771 12.2822 40.5245 12.2578 40.5896 12.24L40.5916 12.2395C40.6254 12.2301 40.85 12.1678 41.0822 12.3107L41.0838 12.3117C41.1669 12.3632 41.2272 12.4297 41.2354 12.4387L41.2362 12.4396C41.2586 12.4637 41.2808 12.4896 41.3004 12.5133C41.3405 12.5616 41.3883 12.6225 41.4392 12.6894C41.5421 12.8244 41.6707 13.0005 41.8014 13.1866C44.05 16.3846 45.28 20.1169 45.4411 24.1973C45.6338 29.0771 44.1666 33.7342 41.2055 37.6473C40.4072 38.7021 38.5025 40.6047 37.4377 41.4111C34.6745 43.5039 31.8329 44.7615 28.4637 45.3807C27.6411 45.5319 26.3315 45.6085 25.0775 45.6171C23.8278 45.6257 22.5519 45.5674 21.8039 45.4239C18.3375 44.7591 15.6459 43.6192 13.0598 41.7056ZM23.2416 0.0473423C18.4183 0.516489 14.788 1.74761 11.1671 4.14221C6.0462 7.52876 2.28824 12.7841 0.810557 18.6253C-1.25941 26.8079 0.677982 35.1225 6.13331 41.468C8.73779 44.4975 12.5145 47.1025 16.3488 48.5141C22.2152 50.6739 29.0789 50.4694 34.8012 47.9644C40.4539 45.4899 45.2513 40.7771 47.7592 35.2351C51.1868 27.6603 50.6578 18.95 46.3398 11.858C44.4368 8.73251 41.2779 5.57457 38.1514 3.67218C34.873 1.67733 31.1329 0.447485 27.2501 0.0876107C26.2095 -0.00885755 24.0428 -0.0306533 23.2416 0.0473423ZM27.3479 5.07513C30.591 5.4568 33.6397 6.59643 36.4108 8.46305L37.2122 9.00296L36.0686 10.1979C35.4397 10.8551 29.1615 17.2044 22.1172 24.3074L9.30945 37.222L9.08771 36.9529C8.60825 36.371 7.75355 35.0267 7.24925 34.0615C4.92899 29.62 4.43477 24.2673 5.88361 19.2714C7.24827 14.5654 10.3156 10.48 14.4037 7.92294C17.2465 6.14488 20.4932 5.13602 23.8771 4.97915C25.4539 4.90604 26.0508 4.92256 27.3479 5.07513ZM41.2901 13.546C43.466 16.6407 44.66 20.2554 44.8166 24.222C45.0035 28.9564 43.5815 33.4717 40.7071 37.2701C39.9438 38.2788 38.0799 40.1407 37.0604 40.9128C34.3739 42.9476 31.6226 44.1647 28.3507 44.766C26.8157 45.0481 23.2886 45.0723 21.9217 44.8101C18.5372 44.161 15.9347 43.0554 13.4316 41.2032L12.763 40.7086L26.7224 26.7532C34.4 19.0779 40.7145 12.8183 40.7547 12.843C40.7948 12.8678 41.0358 13.1841 41.2901 13.546Z" fill="#FA3131"/>
</svg>
