<svg width="100" height="100" viewBox="0 0 100 100" fill="none" xmlns="http://www.w3.org/2000/svg">
<path fill-rule="evenodd" clip-rule="evenodd" d="M34.7657 15.135C27.0181 17.9582 20.4852 20.3952 20.248 20.5505C20.0108 20.7058 19.6336 21.1455 19.4097 21.5273C18.7875 22.5888 18.8593 23.4163 19.7936 25.9501L20.5723 28.0616L31.6223 28.1018L42.6721 28.1419L42.6812 24.6608C42.6914 20.701 42.8536 19.7422 43.7714 18.218C44.0704 17.7214 44.7258 16.9334 45.228 16.467C46.9154 14.8994 48.4383 14.3758 51.3101 14.3758C52.3247 14.3758 53.1547 14.3529 53.1547 14.3249C53.1547 14.1582 52.3699 12.0093 52.1629 11.609C51.6658 10.648 50.5125 9.99502 49.3215 10C49.0634 10.0011 42.5132 12.3118 34.7657 15.135ZM49.1651 19.3637C48.4077 19.7131 47.9309 20.2083 47.608 20.9813C47.4154 21.4419 47.3658 22.2349 47.3658 24.8502V28.1398H61.0557H74.7456V24.8502C74.7456 22.2349 74.696 21.4419 74.5034 20.9813C74.1805 20.2083 73.7037 19.7131 72.9463 19.3637C72.3562 19.0914 71.6772 19.0749 61.0557 19.0749C50.4342 19.0749 49.7552 19.0914 49.1651 19.3637ZM14.3984 33.0583C12.308 33.7138 10.5749 35.6112 10.1369 37.724C10.0186 38.2946 9.9801 45.5955 10.0094 61.9325L10.0511 85.324L10.6355 86.506C11.3392 87.9294 12.2453 88.8161 13.6997 89.505L14.7448 90H46.5134H78.2821L79.4643 89.4158C80.8883 88.7123 81.7753 87.8067 82.4643 86.3525L82.9595 85.3077L83.007 79.256L83.0545 73.2045L76.4359 73.151C70.01 73.099 69.7853 73.0869 68.722 72.7353C64.7247 71.4132 61.7979 68.3752 60.7174 64.427C60.2867 62.853 60.3272 59.8523 60.7997 58.327C61.4576 56.2029 62.3017 54.801 63.8656 53.2352C65.0613 52.038 65.5098 51.7069 66.7663 51.093C69.3447 49.8333 69.2943 49.8402 76.5839 49.7659L83.0377 49.7002V44.0363C83.0377 37.9022 82.9678 37.2448 82.1703 35.8846C81.6159 34.9385 80.3698 33.823 79.3169 33.3295L78.4223 32.9103L46.74 32.8809C20.8485 32.8568 14.9372 32.8892 14.3984 33.0583ZM70.3521 54.7015C67.7931 55.3743 65.9587 57.2333 65.2787 59.8431C64.6708 62.1767 65.2988 64.4684 67.063 66.3539C67.9114 67.2608 68.7923 67.8009 70.0715 68.1989C70.9507 68.4725 71.6344 68.4936 79.6146 68.4936C89.0779 68.4936 88.9298 68.5079 89.6247 67.5337L90 67.0077V61.5057C90 56.1928 89.9889 55.989 89.6774 55.5718C89.5 55.3342 89.1605 54.9948 88.923 54.8174C88.5002 54.5018 88.3068 54.4943 79.9363 54.4629C72.2612 54.4341 71.2759 54.4586 70.3521 54.7015ZM72.9196 59.3224C73.962 59.7578 74.5977 60.9737 74.3565 62.0713C74.2022 62.7734 73.362 63.5967 72.6666 63.7272C71.748 63.8995 70.9837 63.6814 70.4229 63.0868C69.5753 62.1886 69.5359 60.9678 70.3241 60.0314C71.043 59.1774 71.9675 58.9248 72.9196 59.3224Z" fill="#0071BC"/>
</svg>
