<svg width="100" height="100" viewBox="0 0 100 100" fill="none" xmlns="http://www.w3.org/2000/svg">
<path fill-rule="evenodd" clip-rule="evenodd" d="M50.5618 0.140357C49.2648 0.471881 47.419 1.58321 46.5229 2.57215C46.0628 3.08007 45.3942 4.1226 45.0376 4.88844C44.4502 6.14969 44.3889 6.46932 44.3889 8.27289C44.3889 10.1526 44.432 10.3529 45.1544 11.84C46.0763 13.7378 47.263 14.9198 49.1685 15.8381C50.4066 16.4348 50.7239 16.498 52.4847 16.498C54.2455 16.498 54.5627 16.4348 55.8009 15.8381C57.7064 14.9198 58.8931 13.7378 59.8149 11.84C60.5382 10.3513 60.5805 10.1542 60.5805 8.26205C60.5805 6.36987 60.5382 6.17283 59.8149 4.6841C58.4301 1.83321 55.9696 0.160374 52.9456 0.014003C52.0721 -0.0283236 50.9994 0.0285985 50.5618 0.140357ZM45.4553 18.5585C43.6214 19.2536 42.1084 20.8368 41.6521 22.5374C41.5587 22.8854 40.3908 28.4879 39.0566 34.9872C36.6592 46.6664 36.634 46.8182 36.8947 48.0033C37.1138 48.9996 37.3368 49.3836 38.2117 50.2721C39.5155 51.5957 39.8639 51.6956 45.2087 52.2756C47.4633 52.5202 49.4694 52.8071 49.6665 52.913C50.686 53.4597 50.6805 53.2829 50.0225 64.3595C49.6858 70.029 49.4103 75.0385 49.4103 75.492V76.3165L48.7155 75.6315C47.8209 74.7493 47.0462 73.2915 46.6502 71.7446C46.2628 70.2321 46.253 69.1451 46.6135 67.7315L46.8908 66.6435H34.3526H21.8147L20.8751 68.3637C17.032 75.4011 15.5684 81.1194 16.6729 84.7835C17.3962 87.1827 19.4736 89.0044 22.0204 89.4732L23.2454 89.6985L23.5148 91.0461C24.2663 94.8084 27.1495 97.9105 30.9504 99.0462C32.3875 99.4756 35.0837 99.4739 36.512 99.0427C39.8875 98.0239 42.5617 95.4324 43.6599 92.1162C43.8919 91.416 44.0815 90.5588 44.0815 90.2113V89.5791L58.2747 89.5778C70.4645 89.5768 72.5507 89.5326 73.0549 89.2651C73.7464 88.8981 73.8001 88.8902 73.8001 89.1541C73.8001 89.6272 74.6997 91.7452 75.0534 92.1051C75.6837 92.7463 76.7843 92.6243 77.493 91.8349C77.9261 91.3526 78.1144 91.253 78.1833 91.47C78.2354 91.6341 78.3899 92.1437 78.5266 92.6024C78.9865 94.1464 79.7893 95.5014 81.0103 96.795C83.0832 98.9912 85.5041 100.007 88.6455 100C92.6907 99.9904 96.0046 97.8803 97.8667 94.1287C98.9288 91.9886 99.2604 89.0493 98.6799 86.9206C98.5871 86.5806 98.6389 86.4515 98.8685 86.4515C99.0425 86.4515 99.3854 86.1934 99.6305 85.8781C100.012 85.3877 100.058 85.1387 99.9486 84.1579C99.2466 77.8419 93.9852 72.7448 87.7431 72.3334L85.9485 72.2152L86.1206 71.4623C86.4215 70.1458 86.3223 68.004 85.8956 66.5983C85.2608 64.508 84.1182 62.9044 82.1392 61.3272C81.1898 60.5706 80.0224 59.4165 79.5448 58.7626C77.4949 55.9555 76.0491 51.9224 75.5494 47.6174L75.4102 46.4185L77.5258 46.4164C79.3194 46.4147 79.7973 46.3397 80.6661 45.9229C81.8873 45.337 82.4439 44.7605 83.0059 43.4994C83.3584 42.7081 83.4249 42.1273 83.4285 39.7918C83.4335 36.7134 83.2871 36.134 82.1795 34.8506C80.8742 33.3383 80.6278 33.2929 73.6976 33.2841L67.549 33.2766L65.0895 32.4357C60.371 30.8225 56.6617 28.7306 54.507 26.4677C53.4041 25.3094 53.3476 25.1971 53.2457 23.955C53.0645 21.7475 51.8327 19.8364 49.9625 18.8612C48.8719 18.2924 46.5653 18.1375 45.4553 18.5585ZM3.29523 23.5469C2.28931 23.8695 0.573621 25.6768 0.265162 26.7389C-0.0883873 27.9564 -0.0883873 46.9491 0.265162 48.1666C0.597806 49.3119 2.29566 51.0392 3.42149 51.3776C4.0423 51.5642 7.48249 51.6311 16.451 51.6311C30.3839 51.6311 29.9178 51.6828 31.4355 49.9656C31.9229 49.4141 32.4312 48.5907 32.5652 48.1357C32.9091 46.9679 32.9091 27.9376 32.5652 26.7698C32.4312 26.3148 31.9229 25.4915 31.4355 24.94C29.9137 23.2181 30.4035 23.2713 16.3247 23.2957C7.9752 23.3101 3.7818 23.391 3.29523 23.5469ZM51.8403 35.9632C55.0751 38.542 59.7959 40.484 64.8333 41.3076L65.6019 41.4333V59.668V77.9028H62.3681H59.1343L60.5147 64.7148C61.274 57.4613 61.8991 51.0686 61.9039 50.5085C61.9213 48.4848 61.0131 46.8111 59.46 46.005C59.0347 45.7842 56.9454 44.9423 54.8171 44.1337C52.6888 43.3253 50.7444 42.557 50.4962 42.4263C49.643 41.9769 49.6108 41.3024 50.2958 38.2197C50.6444 36.6511 50.9666 35.3677 51.0115 35.3677C51.0566 35.3677 51.4296 35.6357 51.8403 35.9632ZM18.5272 55.2989C18.0367 55.7979 18.0055 55.9368 18.1181 57.1234C18.2997 59.0347 18.784 60.4396 19.7647 61.8973L20.6431 63.2032L34.1044 63.2567L47.5657 63.3103V59.7541C47.5657 56.0592 47.3987 55.1866 46.6342 54.8882C46.4518 54.8171 40.1726 54.7587 32.6804 54.7587H19.0582L18.5272 55.2989ZM94.191 85.4081C95.6406 85.9688 96.1512 89.9688 95.0748 92.3305C94.3859 93.842 92.9598 95.2952 91.4665 96.0073C90.4657 96.4846 90.0359 96.5627 88.4545 96.5555C86.873 96.5481 86.4443 96.4654 85.4488 95.9754C83.166 94.8515 81.5462 92.4911 81.2743 89.8918C81.1597 88.7949 81.1974 88.5828 81.5809 88.1696C82.4146 87.2711 85.1528 86.0683 87.6347 85.5101C89.098 85.1811 93.4298 85.1137 94.191 85.4081ZM40.7366 90.3259C40.429 92.2557 38.7276 94.4608 36.8055 95.4214C35.9261 95.8609 35.4901 95.9341 33.7312 95.936C31.8677 95.9383 31.5738 95.883 30.4941 95.3263C28.5979 94.3488 27.1378 92.4715 26.6871 90.4316L26.4989 89.5791H33.6773H40.8559L40.7366 90.3259Z" fill="#0071BC"/>
</svg>
