<svg width="100" height="100" viewBox="0 0 100 100" fill="none" xmlns="http://www.w3.org/2000/svg">
<path fill-rule="evenodd" clip-rule="evenodd" d="M33.893 6.75318C27.0687 7.9599 21.2552 12.1746 18.1822 18.1435C15.9016 22.573 15.1585 27.1148 15.9488 31.7914C18.4096 46.3492 34.1605 54.3358 47.3643 47.7204C53.7481 44.522 58.1373 38.3407 59.1693 31.0949C59.5828 28.1925 59.3009 24.8922 58.3727 21.7682C57.4338 18.6083 54.7685 14.4051 52.2966 12.1867C47.2614 7.66757 40.3173 5.61739 33.893 6.75318ZM59.8594 6.63586C59.3225 6.71556 58.327 6.92389 57.6472 7.09871C56.9674 7.27352 56.3592 7.41656 56.2956 7.41656C56.2319 7.41656 56.8366 8.09631 57.6394 8.92691C61.5219 12.944 63.8846 17.3798 65.0679 22.8732C65.6804 25.7155 65.6804 30.8227 65.0679 33.665C63.9293 38.9501 61.5125 43.5511 57.8639 47.3792L56.2589 49.0634L56.9854 49.2791C58.3485 49.6843 61.1771 50.0961 62.5695 50.0922C69.1958 50.0739 75.6396 46.9021 79.6966 41.6623C86.2181 33.2392 85.8333 21.8171 78.7548 13.7033C76.5209 11.1429 72.7509 8.68389 69.28 7.52316C66.5309 6.60409 62.5789 6.23167 59.8594 6.63586ZM31.9407 56.7434C23.0324 57.5722 14.3768 60.3469 6.88832 64.7743C3.57907 66.7309 1.81316 68.7887 0.668489 72.0224C0.303507 73.0532 0.113899 74.1379 0.107549 75.2314L0.0585709 83.6648L0.017524 90.7326C0.00786226 92.3962 1.35381 93.75 3.01747 93.75H37.5049H71.9923C73.656 93.75 75.0019 92.3962 74.9922 90.7326L74.9512 83.6648L74.9022 75.2314C74.8959 74.1379 74.7063 73.0532 74.3413 72.0224C72.9346 68.0488 71.0443 66.2007 65.363 63.2453C58.3655 59.605 50.9629 57.4703 42.7763 56.7313C40.1917 56.498 34.5103 56.5042 31.9407 56.7434ZM68.4981 57.8727C69.9203 58.6193 71.8343 59.7183 72.7511 60.3148C76.6712 62.8654 79.3333 66.609 80.7044 71.4992C81.1049 72.9275 81.1269 73.463 81.1917 83.3725L81.2402 90.7696C81.251 92.4188 82.5909 93.75 84.2401 93.75H90.6298H96.9825C98.6462 93.75 99.9921 92.3962 99.9825 90.7326L99.9414 83.6648L99.8925 75.2314C99.8861 74.1379 99.6965 73.0532 99.3315 72.0224C97.9241 68.0466 96.0414 66.2069 90.3399 63.2363C83.6712 59.7619 75.6585 57.3824 68.7427 56.8227C67.9373 56.7574 66.9709 56.6617 66.5951 56.6097C66.0957 56.5407 66.6076 56.8806 68.4981 57.8727Z" fill="#0071BC"/>
</svg>
