<svg width="100" height="100" viewBox="0 0 100 100" fill="none" xmlns="http://www.w3.org/2000/svg">
<path fill-rule="evenodd" clip-rule="evenodd" d="M1.51859 0.402823C1.07148 0.638618 0.633967 1.08794 0.39349 1.55855C0.0037177 2.32141 0 2.65137 0 36.7413V71.154L0.427341 71.9132C0.699712 72.3969 1.14799 72.8139 1.66319 73.063C2.45486 73.4457 2.87125 73.4537 21.7811 73.4537C32.4012 73.4537 41.0905 73.3822 41.0905 73.2951C41.0905 73.2078 40.8234 72.3505 40.4968 71.3904C37.2223 61.759 37.6942 53.2061 41.9727 44.6388C45.6746 37.2266 52.2203 31.244 59.8289 28.319C63.4994 26.9077 66.833 26.2208 70.881 26.0415L73.5715 25.9223V14.1949C73.5715 2.67129 73.5642 2.45289 73.1596 1.61794C72.8773 1.03597 72.51 0.647409 71.9932 0.384265C71.272 0.0168006 70.7952 0 61.0624 0H50.8858L50.8309 11.6094C50.7769 23.0399 50.7698 23.2276 50.3667 23.7703C50.1415 24.0737 49.6662 24.5197 49.3105 24.7613C48.0891 25.5914 47.6233 25.4515 41.9588 22.5556L36.785 19.9103L31.5696 22.5776C26.6881 25.0741 26.2983 25.2386 25.482 25.1466C24.5416 25.0409 23.8383 24.6131 23.1989 23.7584C22.8034 23.2297 22.7942 22.9867 22.7406 11.6094L22.6857 0L12.468 0.00859565C2.68164 0.0169959 2.21928 0.0336012 1.51859 0.402823ZM28.5677 8.69333C28.5677 14.8564 28.6299 17.3867 28.7817 17.3867C28.8995 17.3867 30.5478 16.5785 32.4448 15.5909C36.9617 13.2391 36.6065 13.2391 41.1582 15.5909C43.0696 16.5785 44.717 17.3867 44.8187 17.3867C44.9324 17.3867 45.0038 14.0285 45.0038 8.69333V0H36.7857H28.5677V8.69333ZM68.5819 32.0518C55.0966 33.8831 44.8661 44.9822 44.2855 58.4113C44.201 60.3667 44.2562 61.621 44.4988 63.2624C46.3821 75.9941 57.844 93.609 67.5261 98.6513C70.974 100.447 73.261 100.449 76.8 98.6603C85.856 94.0829 97.1827 77.2467 99.5804 64.7993C100.098 62.1143 100.145 57.138 99.6767 54.6722C97.5335 43.3854 88.7294 34.5342 77.4489 32.3257C75.508 31.9457 70.5018 31.7912 68.5819 32.0518ZM75.7589 49.6707C79.3165 50.9697 81.9035 53.9131 82.6679 57.5322C83.0319 59.2557 83.0321 60.3002 82.6687 62.0254C81.4937 67.602 75.9817 71.3165 70.3273 70.3417C66.255 69.6396 62.6821 66.2842 61.7347 62.2716C60.3879 56.5687 63.9553 50.7682 69.7113 49.3019C71.2626 48.9067 74.1481 49.0827 75.7589 49.6707ZM70.8309 55.0657C67.8302 56.0487 66.4597 59.207 67.8482 61.9402C69.1095 64.4232 71.9858 65.3347 74.4937 64.0464C77.7974 62.3489 77.8864 57.4633 74.6481 55.5687C73.6885 55.0073 71.778 54.7555 70.8309 55.0657Z" fill="#0071BC"/>
</svg>
