<svg width="100" height="100" viewBox="0 0 100 100" fill="none" xmlns="http://www.w3.org/2000/svg">
<path fill-rule="evenodd" clip-rule="evenodd" d="M6.75859 14.0799C3.49277 14.9356 0.83457 17.801 0.199414 21.1509C0.0701172 21.832 0 31.0986 0 47.466V69.7643C0 71.4076 1.32208 72.7451 2.96529 72.7641L4.54102 72.7824L9.08203 72.8347L9.22773 74.2967C9.90371 81.0771 15.8223 86.3908 22.7154 86.4062C26.7227 86.415 30.8742 84.4448 33.3092 81.3785C34.9812 79.2731 36.3281 75.7706 36.3281 73.5287V72.737H50H63.6719V73.5287C63.6719 75.7706 65.0188 79.2731 66.6908 81.3785C69.1258 84.4448 73.2773 86.415 77.2846 86.4062C79.4525 86.4013 81.2764 85.9638 83.3082 84.961C87.4527 82.9156 90.3217 78.8166 90.7723 74.2967L90.918 72.8347L95.459 72.7824C97.9754 72.7532 100 70.7051 100 68.1885V61.4039V51.741C100 50.6613 99.6505 49.6106 99.0037 48.746L93.2129 41.0049L87.9233 33.9339C86.9806 32.6737 85.4996 31.9309 83.9258 31.929L79.541 31.9235L73.655 31.9161C73.1032 31.9154 72.6562 31.4679 72.6562 30.9161V22.8324V16.7513C72.6562 15.0939 71.3123 13.7506 69.6549 13.7513L40.2832 13.7641C11.7492 13.7766 7.77363 13.8139 6.75859 14.0799ZM88.3023 44.0611C90.6002 46.9818 92.5953 49.5307 92.7357 49.7255C92.9813 50.0663 92.6066 50.0798 82.8236 50.0798H73.6562C73.104 50.0798 72.6562 49.6321 72.6562 49.0798V44.4155V39.7511C72.6562 39.1988 73.104 38.7511 73.6562 38.7511H78.3902H83.6384C83.945 38.7511 84.2347 38.8918 84.4243 39.1327L88.3023 44.0611ZM25.7061 66.7129C26.9959 67.3552 28.2562 68.648 28.8709 69.9596C29.3174 70.9122 29.3945 71.336 29.3945 72.8347C29.3945 74.3205 29.3162 74.7588 28.8879 75.6669C28.2416 77.0369 26.9559 78.3227 25.5859 78.969C24.6779 79.3973 24.2396 79.4756 22.7539 79.4756C21.2553 79.4756 20.8314 79.3985 19.8789 78.952C15.617 76.9544 14.6346 71.3671 17.9604 68.0409C20.0029 65.9983 23.1779 65.4539 25.7061 66.7129ZM80.2262 66.7059C80.7355 66.9522 81.5516 67.553 82.0396 68.0409C85.3654 71.3671 84.383 76.9542 80.1211 78.952C79.1686 79.3985 78.7447 79.4756 77.2461 79.4756C75.7604 79.4756 75.3221 79.3973 74.4141 78.969C73.0441 78.3227 71.7584 77.0369 71.1121 75.6669C70.6838 74.7588 70.6053 73.9583 70.6055 72.8347C70.6057 71.6934 70.6826 70.9122 71.1291 69.9596C72.7217 66.5618 76.8639 65.0803 80.2262 66.7059Z" fill="#0071BC"/>
</svg>
