<svg width="100" height="100" viewBox="0 0 100 100" fill="none" xmlns="http://www.w3.org/2000/svg">
<g clip-path="url(#clip0_10_6838)">
<path d="M20.5078 32.1313H2.92969C1.31035 32.1313 0 33.4417 0 35.061V87.7955C0 89.4148 1.31035 90.7252 2.92969 90.7252H20.5078C25.3543 90.7252 29.2969 86.7826 29.2969 81.9361V40.9204C29.2969 36.0737 25.3543 32.1313 20.5078 32.1313ZM14.6485 79.0064C13.0305 79.0064 11.7188 77.6947 11.7188 76.0767C11.7188 74.4584 13.0305 73.147 14.6485 73.147C16.2664 73.147 17.5781 74.4584 17.5781 76.0767C17.5781 77.6945 16.2664 79.0064 14.6485 79.0064Z" fill="#0071BC"/>
<path d="M100 46.7788C100 41.9323 96.0575 37.9897 91.211 37.9897H69.0667C74.2565 28.7629 75.5155 20.4373 72.4655 14.6666C70.5085 10.9615 66.8694 8.75 62.7495 8.75C62.7266 8.75 62.7038 8.75 62.675 8.75C56.3578 8.75 55.2936 13.651 54.4352 17.5934C53.2621 22.9692 51.6715 30.2877 40.5076 37.9897H35.1562V84.9771L37.0961 85.52C46.2057 88.0778 56.0147 90.7243 65.7823 90.7243H79.4923C84.3387 90.7243 88.2813 86.7817 88.2813 81.9353C88.2813 80.7937 88.0639 79.7009 87.6634 78.6966C91.3942 77.681 94.1407 74.262 94.1407 70.2165C94.1407 69.0749 93.9233 67.9821 93.5227 66.9778C97.2536 65.9622 100 62.5432 100 58.4977C100 56.2489 99.1532 54.1948 97.7571 52.6383C99.1532 51.0817 100 49.0274 100 46.7788Z" fill="#0071BC"/>
</g>
<defs>
<clipPath id="clip0_10_6838">
<rect width="100" height="100" fill="white"/>
</clipPath>
</defs>
</svg>
