<svg width="100" height="100" viewBox="0 0 100 100" fill="none" xmlns="http://www.w3.org/2000/svg">
<path fill-rule="evenodd" clip-rule="evenodd" d="M0 36.5071V53.3598C0 55.3781 1.63638 57.0141 3.65466 57.0136C7.69195 57.0128 8.32712 56.8428 8.97076 55.5916C9.25593 55.0374 18.3381 25.3186 18.8752 23.1823C19.082 22.3604 19.0638 22.055 18.7602 21.2589C18.3161 20.0947 17.7233 19.6589 15.3263 18.7342C11.3697 17.2079 7.39725 16.3911 2.73114 16.1443C1.24666 16.0659 0 17.2484 0 18.735V36.5071ZM50.9534 20.8798C49.1523 21.1195 46.253 22.4355 43.6441 24.1972C40.1068 26.5857 35.4195 31.913 33.6369 35.5708C32.903 37.0766 32.7492 37.6219 32.6695 39.0034C32.589 40.3926 32.6472 40.7964 33.0468 41.623C34.4216 44.4673 39.1468 44.0805 42.789 40.8254C46.1377 37.8328 50.818 35.5406 52.9911 35.8288C53.3771 35.8801 57.6604 39.6786 67.071 48.315C74.51 55.142 80.8078 60.8961 81.0663 61.1019C81.5174 61.4612 81.5852 61.4578 82.7578 61.0183C83.6909 60.6689 84.3458 60.194 85.528 59.01C86.3794 58.1571 87.0712 57.2878 87.0648 57.0777C87.0585 56.8679 84.842 50.6862 82.139 43.3404L78.7627 34.1649C77.7837 31.5041 75.7211 29.384 73.0883 28.332L66.4195 25.6674C60.4767 23.2929 54.9947 21.2127 54.2373 21.0446C52.885 20.7444 52.2203 20.7109 50.9534 20.8798ZM93.8559 21.2901C93.5646 21.3323 92.4682 21.4707 91.4195 21.5976C87.9203 22.0213 81.5852 23.7544 80.1275 24.6867C79.3737 25.169 78.8153 26.2558 78.8144 27.2427C78.8133 28.4099 90.453 60.2468 91.1566 61.0016C92.1004 62.0137 92.5413 62.1068 96.3877 62.1068C98.3827 62.1068 100 60.4896 100 58.4945V41.6313V23.9631C100 22.4174 98.7385 21.1688 97.1928 21.1847C95.6487 21.2006 94.1472 21.2481 93.8559 21.2901ZM20.1542 26.3012C20.0345 26.6804 18.2561 32.5574 16.2019 39.361L13.1827 49.3603C12.7384 50.8318 13.096 52.4285 14.1254 53.5699C16.6487 56.368 22.1706 61.8181 25.9534 65.2444C34.3214 72.8235 47.4017 83.1361 49.0371 83.4434C51.2907 83.8667 53.2903 81.851 52.8699 79.5791C52.7394 78.8738 52.046 78.0847 47.7576 73.7626C44.5566 70.536 42.7966 68.6094 42.7966 68.3318C42.7966 67.8525 43.4127 67.1992 43.8646 67.1992C44.0258 67.1992 46.8784 69.9081 50.2038 73.219C56.697 79.6842 56.9502 79.8734 58.8214 79.6621C61.3663 79.375 63 76.5305 61.9987 74.1305C61.8396 73.749 59.3608 70.986 56.4903 67.9908C53.4581 64.8266 51.2712 62.3778 51.2712 62.1465C51.2712 61.6748 51.9064 61.0459 52.3828 61.0459C52.5682 61.0459 55.4994 63.9344 58.8968 67.4644C62.2943 70.9945 65.4244 74.0972 65.8528 74.3593C66.7144 74.8863 68.3869 75.0047 69.4248 74.612C70.764 74.1053 72.0197 72.2928 72.0292 70.8525C72.0394 69.3178 71.5636 68.7401 64.8252 62.1068C61.2095 58.5475 58.2538 55.5161 58.257 55.3701C58.265 54.9979 59.046 54.2561 59.4299 54.2561C59.6057 54.2561 63.1093 57.5184 67.2159 61.5055C72.561 66.6955 74.9472 68.8725 75.6153 69.1684C78.0896 70.265 80.9322 68.321 80.9322 65.5323C80.9322 64.193 80.3244 63.2441 78.2511 61.3462C77.2203 60.4028 71.0858 54.7817 64.6186 48.855C58.1515 42.9282 52.7424 38.0331 52.5983 37.9771C52.1159 37.7891 49.4867 38.7439 47.8814 39.6901C47.0074 40.205 45.4962 41.316 44.5229 42.159C41.7316 44.5764 39.3475 45.5949 36.5131 45.58C31.7892 45.5552 29.4157 41.6867 31.0025 36.5982C31.8314 33.9404 34.0608 30.5005 37.0273 27.3027C37.6249 26.6585 37.168 25.6116 36.2894 25.6116H29.4839H21.0949C20.6645 25.6116 20.2838 25.8907 20.1542 26.3012Z" fill="#0071BC"/>
</svg>
