<svg width="100" height="100" viewBox="0 0 100 100" fill="none" xmlns="http://www.w3.org/2000/svg">
<path fill-rule="evenodd" clip-rule="evenodd" d="M16.7186 0.18713C14.8759 0.445698 12.3114 1.28629 10.5055 2.22343C-1.26708 8.33369 -3.6091 23.7702 5.8451 32.9389C11.8647 38.7767 24.4594 45.1717 32.5563 46.5019L34.076 46.7515L34.3081 48.1665L34.5404 49.5813L31.8808 52.1873C28.2678 55.7273 25.5364 59.272 22.6103 64.2184C20.8896 67.1273 20.575 67.7385 19.2841 70.6789C17.241 75.3329 16.7202 77.6973 16.8693 81.6417C16.9489 83.7433 17.0801 84.6666 17.4916 86.0212C19.7628 93.4956 26.0153 98.7946 33.7855 99.8304C40.1307 100.676 46.6445 98.3183 50.8942 93.6375C53.5087 90.7579 54.9512 87.811 55.7405 83.7376C56.2454 81.1311 56.2369 71.8464 55.7262 68.2787C54.9568 62.9044 53.6739 57.9014 52.2856 54.8613C51.7207 53.6239 51.7461 53.4273 52.605 52.4021L52.9709 51.9652L54.4328 52.5596C61.9757 55.626 75.4883 56.8798 83.8352 55.2875C92.0058 53.7289 97.8738 48.1192 99.6825 40.1383C100.065 38.4519 100.112 34.5132 99.7696 32.9039C98.0431 24.7908 92.1899 19.0384 83.9347 17.3415C83.2784 17.2067 81.6676 17.1021 80.3551 17.1092C76.4544 17.1301 73.9366 17.8362 68.6221 20.4002C60.0883 24.5173 51.9808 30.7527 48.4784 35.8924C47.4272 37.4348 47.1963 37.2548 46.9068 34.6678C45.704 23.9205 38.2486 9.05662 31.5014 3.95405C27.4262 0.872346 21.8904 -0.538346 16.7186 0.18713ZM47.2725 37.6682C49.0752 38.2777 50.055 38.8594 51.2217 40.0131C53.1935 41.9622 54.0209 43.9342 54.0205 46.6825C54.0201 49.2128 53.1887 51.2081 51.3478 53.0959C49.5717 54.9172 47.2208 55.8823 44.5596 55.8823C41.8656 55.8823 39.8306 55.045 37.871 53.1307C34.8393 50.1686 34.2481 45.9578 36.3069 41.9913C36.8816 40.8843 38.7577 39.0409 39.8952 38.4656C42.2595 37.2697 45.1651 36.9556 47.2725 37.6682ZM43.2932 43.0131C42.3412 43.3275 41.3998 44.2838 40.988 45.355C39.8091 48.4203 43.0995 51.3942 46.1586 50.0284C48.9065 48.8018 49.1863 45.0855 46.6546 43.4389C45.7923 42.8782 44.2808 42.6867 43.2932 43.0131Z" fill="#0071BC"/>
</svg>
