<svg width="185" height="100" viewBox="0 0 185 100" fill="none" xmlns="http://www.w3.org/2000/svg">
<path d="M98.1894 0.551519C94.4086 2.53681 84.5713 9.00737 79.1021 13.0882C72.7151 17.9044 65.6675 23.5294 65.8143 23.7132C65.9245 23.7867 67.9433 22.5735 70.3292 20.9558C78.6983 15.3676 89.3431 8.86031 95.9136 5.25738L99.1804 3.52945L103.365 4.55886C105.677 5.11032 107.549 5.69856 107.549 5.80885C107.549 5.95591 106.118 6.83826 104.356 7.79414C102.557 8.75002 101.53 9.44854 102.044 9.30148C102.557 9.19119 105.127 8.52943 107.733 7.86767C110.376 7.16914 113.753 6.43385 115.258 6.1765C116.763 5.91915 118.121 5.58826 118.268 5.47797C118.415 5.33091 116.102 4.52209 113.129 3.63974C110.156 2.75739 106.191 1.54416 104.283 0.955928C100.355 -0.220536 99.731 -0.257301 98.1894 0.551519Z" fill="white"/>
<path d="M98.1894 0.551519C94.4086 2.53681 84.5713 9.00737 79.1021 13.0882C72.7151 17.9044 65.6675 23.5294 65.8143 23.7132C65.9245 23.7867 67.9433 22.5735 70.3292 20.9558C78.6983 15.3676 89.3431 8.86031 95.9136 5.25738L99.1804 3.52945L103.365 4.55886C105.677 5.11032 107.549 5.69856 107.549 5.80885C107.549 5.95591 106.118 6.83826 104.356 7.79414C102.557 8.75002 101.53 9.44854 102.044 9.30148C102.557 9.19119 105.127 8.52943 107.733 7.86767C110.376 7.16914 113.753 6.43385 115.258 6.1765C116.763 5.91915 118.121 5.58826 118.268 5.47797C118.415 5.33091 116.102 4.52209 113.129 3.63974C110.156 2.75739 106.191 1.54416 104.283 0.955928C100.355 -0.220536 99.731 -0.257301 98.1894 0.551519Z" fill="url(#paint0_linear_10_7098)"/>
<path d="M130.308 6.06608C120.581 6.94843 116.616 7.4999 110.303 8.78666C96.0242 11.7278 79.6898 17.8675 66.2553 25.3675C61.3366 28.1616 56.3446 31.3233 55.9775 31.9483C55.794 32.1689 56.418 31.9116 57.2989 31.2866C59.6481 29.6689 66.0351 26.3234 70.4398 24.4116C87.3615 16.9852 107.256 12.4263 129.133 10.9558C135.447 10.5514 146.459 10.4411 146.459 10.8455C146.459 10.9558 144.77 12.8308 142.678 14.9631C140.622 17.0954 137.576 20.2572 135.924 21.9484L132.988 25.0366L129.904 24.4484C113.019 21.2131 84.1313 27.2792 53.2245 40.5512C50.1045 41.9115 47.2414 43.088 46.911 43.1983C46.4706 43.3086 45.5529 42.8306 44.3049 41.8012C38.9824 37.463 35.9358 31.1763 36.0092 24.7057C36.0092 21.9484 36.0826 21.7645 37.1104 20.9557L38.1749 20.0734L42.5063 20.8822C49.4438 22.1322 49.9944 22.2425 50.2513 22.6101C51.7196 24.7792 54.0688 27.8675 54.1422 27.7939C54.289 27.6469 52.6005 20.6616 52.3436 20.1837C52.2335 19.9998 51.6829 19.7793 51.1323 19.7057C50.545 19.5954 47.2414 18.8234 43.791 18.0146C37.4775 16.4704 35.789 16.2131 35.532 16.7646C35.4953 16.9116 34.3941 17.8675 33.1094 18.8601L30.7602 20.6616L31.0172 22.3528C31.7146 27.3895 33.7334 33.4189 36.0459 37.3527C38.3951 41.3968 44.4517 46.6174 46.8009 46.6174C47.1313 46.6174 48.3426 46.1394 49.4805 45.5512C55.5737 42.3895 64.6402 38.5659 72.8624 35.7351C94.923 28.0513 115.405 26.2498 128.656 30.8086C131.042 31.6174 130.712 31.7277 133.208 29.338C143.339 19.669 155.966 7.09549 155.745 6.8749C154.938 6.13961 135.961 5.51461 130.308 6.06608Z" fill="white"/>
<path d="M130.308 6.06608C120.581 6.94843 116.616 7.4999 110.303 8.78666C96.0242 11.7278 79.6898 17.8675 66.2553 25.3675C61.3366 28.1616 56.3446 31.3233 55.9775 31.9483C55.794 32.1689 56.418 31.9116 57.2989 31.2866C59.6481 29.6689 66.0351 26.3234 70.4398 24.4116C87.3615 16.9852 107.256 12.4263 129.133 10.9558C135.447 10.5514 146.459 10.4411 146.459 10.8455C146.459 10.9558 144.77 12.8308 142.678 14.9631C140.622 17.0954 137.576 20.2572 135.924 21.9484L132.988 25.0366L129.904 24.4484C113.019 21.2131 84.1313 27.2792 53.2245 40.5512C50.1045 41.9115 47.2414 43.088 46.911 43.1983C46.4706 43.3086 45.5529 42.8306 44.3049 41.8012C38.9824 37.463 35.9358 31.1763 36.0092 24.7057C36.0092 21.9484 36.0826 21.7645 37.1104 20.9557L38.1749 20.0734L42.5063 20.8822C49.4438 22.1322 49.9944 22.2425 50.2513 22.6101C51.7196 24.7792 54.0688 27.8675 54.1422 27.7939C54.289 27.6469 52.6005 20.6616 52.3436 20.1837C52.2335 19.9998 51.6829 19.7793 51.1323 19.7057C50.545 19.5954 47.2414 18.8234 43.791 18.0146C37.4775 16.4704 35.789 16.2131 35.532 16.7646C35.4953 16.9116 34.3941 17.8675 33.1094 18.8601L30.7602 20.6616L31.0172 22.3528C31.7146 27.3895 33.7334 33.4189 36.0459 37.3527C38.3951 41.3968 44.4517 46.6174 46.8009 46.6174C47.1313 46.6174 48.3426 46.1394 49.4805 45.5512C55.5737 42.3895 64.6402 38.5659 72.8624 35.7351C94.923 28.0513 115.405 26.2498 128.656 30.8086C131.042 31.6174 130.712 31.7277 133.208 29.338C143.339 19.669 155.966 7.09549 155.745 6.8749C154.938 6.13961 135.961 5.51461 130.308 6.06608Z" fill="url(#paint1_linear_10_7098)"/>
<path d="M128.473 12.3161C120.397 12.8676 111.698 14.0441 104.54 15.5514C99.5113 16.5808 91.3258 18.7132 91.5093 18.9338C91.5827 19.0073 93.7117 18.5661 96.2077 17.9779C108.137 15.147 123.444 13.4926 132.694 14.0808C135.006 14.2279 136.915 14.4853 136.915 14.6323C136.915 14.7794 136.328 15.772 135.63 16.8014C134.896 17.8308 134.419 18.6764 134.566 18.6764C134.676 18.6764 136.401 17.3161 138.383 15.625C141.173 13.3088 141.87 12.5367 141.393 12.3529C140.769 12.1323 131.703 12.0588 128.473 12.3161Z" fill="white"/>
<path d="M128.473 12.3161C120.397 12.8676 111.698 14.0441 104.54 15.5514C99.5113 16.5808 91.3258 18.7132 91.5093 18.9338C91.5827 19.0073 93.7117 18.5661 96.2077 17.9779C108.137 15.147 123.444 13.4926 132.694 14.0808C135.006 14.2279 136.915 14.4853 136.915 14.6323C136.915 14.7794 136.328 15.772 135.63 16.8014C134.896 17.8308 134.419 18.6764 134.566 18.6764C134.676 18.6764 136.401 17.3161 138.383 15.625C141.173 13.3088 141.87 12.5367 141.393 12.3529C140.769 12.1323 131.703 12.0588 128.473 12.3161Z" fill="url(#paint2_linear_10_7098)"/>
<path d="M38.7984 23.0146C38.358 23.4925 38.1744 24.3749 38.1744 26.1028C38.1744 28.6028 39.3123 33.1616 40.0832 33.6028C40.3768 33.7866 40.4135 33.6395 40.2667 33.1983C39.0554 30.0734 39.0187 25.8454 40.1933 24.5587C40.7439 23.9337 41.3312 23.8234 43.8272 23.7866L46.8004 23.7499L44.231 23.2352C39.349 22.2793 39.4224 22.316 38.7984 23.0146Z" fill="white"/>
<path d="M38.7984 23.0146C38.358 23.4925 38.1744 24.3749 38.1744 26.1028C38.1744 28.6028 39.3123 33.1616 40.0832 33.6028C40.3768 33.7866 40.4135 33.6395 40.2667 33.1983C39.0554 30.0734 39.0187 25.8454 40.1933 24.5587C40.7439 23.9337 41.3312 23.8234 43.8272 23.7866L46.8004 23.7499L44.231 23.2352C39.349 22.2793 39.4224 22.316 38.7984 23.0146Z" fill="url(#paint3_linear_10_7098)"/>
<path d="M4.0377 60.7717C4.0377 60.9188 4.80854 61.985 5.72619 63.1982L7.41469 65.4041L5.54266 69.7055C4.51488 72.0585 2.8631 75.9187 1.83532 78.2349C0.844247 80.5143 0 82.5731 0 82.7202C0 82.8672 1.61508 83.0143 3.59722 83.0143H7.23116L9.54366 77.5732C10.7917 74.5952 12.4435 70.7717 13.2143 69.0438L14.6091 65.9188H20.5556C25.9881 65.9188 26.5387 65.9923 27.0159 66.6173C27.7133 67.61 27.6766 68.1614 26.7957 69.0438C26.1716 69.6688 25.5843 69.7791 22.7212 69.7791H19.3443L15.9306 71.8746C13.2143 73.5289 12.025 74.5585 12.025 74.5585C12.025 74.5585 15.6002 74.5585 19.381 74.5585C29.7322 74.5585 32.4117 73.7128 34.5407 69.8894C36.5228 66.6908 35.6419 63.0512 32.4117 61.4703C31.127 60.8453 29.9157 60.7718 17.5456 60.6615C10.0943 60.6247 4.0377 60.6615 4.0377 60.7717Z" fill="white"/>
<path d="M4.0377 60.7717C4.0377 60.9188 4.80854 61.985 5.72619 63.1982L7.41469 65.4041L5.54266 69.7055C4.51488 72.0585 2.8631 75.9187 1.83532 78.2349C0.844247 80.5143 0 82.5731 0 82.7202C0 82.8672 1.61508 83.0143 3.59722 83.0143H7.23116L9.54366 77.5732C10.7917 74.5952 12.4435 70.7717 13.2143 69.0438L14.6091 65.9188H20.5556C25.9881 65.9188 26.5387 65.9923 27.0159 66.6173C27.7133 67.61 27.6766 68.1614 26.7957 69.0438C26.1716 69.6688 25.5843 69.7791 22.7212 69.7791H19.3443L15.9306 71.8746C13.2143 73.5289 12.025 74.5585 12.025 74.5585C12.025 74.5585 15.6002 74.5585 19.381 74.5585C29.7322 74.5585 32.4117 73.7128 34.5407 69.8894C36.5228 66.6908 35.6419 63.0512 32.4117 61.4703C31.127 60.8453 29.9157 60.7718 17.5456 60.6615C10.0943 60.6247 4.0377 60.6615 4.0377 60.7717Z" fill="url(#paint4_linear_10_7098)"/>
<path d="M38.1749 60.8085C38.1749 60.9188 38.909 61.985 39.8266 63.1247L41.4784 65.257L40.3405 67.7938C38.7622 71.3599 38.5052 71.9114 35.8624 77.757L33.4764 83.0143H59.4646L60.3455 81.029C62.1074 77.0952 62.9884 77.4996 52.7106 77.4996C47.7552 77.4996 43.6808 77.4629 43.6808 77.3893C43.6808 77.1687 45.5161 72.7202 48.0489 66.8747C49.4804 63.5291 50.655 60.7717 50.655 60.6982C50.655 60.6247 47.8653 60.5879 44.4149 60.5879C41.0012 60.5879 38.1749 60.6982 38.1749 60.8085Z" fill="white"/>
<path d="M38.1749 60.8085C38.1749 60.9188 38.909 61.985 39.8266 63.1247L41.4784 65.257L40.3405 67.7938C38.7622 71.3599 38.5052 71.9114 35.8624 77.757L33.4764 83.0143H59.4646L60.3455 81.029C62.1074 77.0952 62.9884 77.4996 52.7106 77.4996C47.7552 77.4996 43.6808 77.4629 43.6808 77.3893C43.6808 77.1687 45.5161 72.7202 48.0489 66.8747C49.4804 63.5291 50.655 60.7717 50.655 60.6982C50.655 60.6247 47.8653 60.5879 44.4149 60.5879C41.0012 60.5879 38.1749 60.6982 38.1749 60.8085Z" fill="url(#paint5_linear_10_7098)"/>
<path d="M68.2735 60.7717C68.2735 60.9188 69.0076 61.9115 69.9253 63.0512C70.8429 64.1541 71.5771 65.2938 71.5771 65.5511C71.5771 65.8085 71.1733 66.9114 70.6961 67.9776C68.4203 73.0511 64.2358 82.6834 64.2358 82.8305C64.2358 82.9408 65.8142 83.0143 67.7229 83.0143H71.2467L72.458 80.3305C73.1187 78.8967 73.8529 77.132 74.1098 76.507C74.4035 75.8452 74.7338 75.3673 74.8806 75.4776C75.0275 75.5511 75.6148 77.2055 76.1654 79.154C76.7527 81.0658 77.3033 82.6467 77.4501 82.6467C77.5602 82.6467 78.5146 81.9481 79.5056 81.0658C80.5334 80.2202 82.1485 78.8599 83.1396 78.0511C84.0939 77.2423 85.1951 76.2496 85.5989 75.882C86.5166 74.8893 86.4799 75.7349 85.4888 77.8673C85.085 78.7864 84.4243 80.2937 84.0205 81.2496L83.3231 83.0143H90.334L91.3985 80.6981C92.5364 78.2349 99.8043 61.8012 100.098 61.0291C100.245 60.6982 99.4372 60.5879 96.7576 60.5879H93.2338L89.1227 64.8526C86.8469 67.2055 84.2775 69.8894 83.4332 70.8085C82.332 71.9849 81.8182 72.3158 81.708 71.9482C81.5979 71.6541 81.3777 69.0438 81.2309 66.1026L80.9372 60.7717L74.6237 60.6615C71.1366 60.6247 68.2735 60.6615 68.2735 60.7717Z" fill="white"/>
<path d="M68.2735 60.7717C68.2735 60.9188 69.0076 61.9115 69.9253 63.0512C70.8429 64.1541 71.5771 65.2938 71.5771 65.5511C71.5771 65.8085 71.1733 66.9114 70.6961 67.9776C68.4203 73.0511 64.2358 82.6834 64.2358 82.8305C64.2358 82.9408 65.8142 83.0143 67.7229 83.0143H71.2467L72.458 80.3305C73.1187 78.8967 73.8529 77.132 74.1098 76.507C74.4035 75.8452 74.7338 75.3673 74.8806 75.4776C75.0275 75.5511 75.6148 77.2055 76.1654 79.154C76.7527 81.0658 77.3033 82.6467 77.4501 82.6467C77.5602 82.6467 78.5146 81.9481 79.5056 81.0658C80.5334 80.2202 82.1485 78.8599 83.1396 78.0511C84.0939 77.2423 85.1951 76.2496 85.5989 75.882C86.5166 74.8893 86.4799 75.7349 85.4888 77.8673C85.085 78.7864 84.4243 80.2937 84.0205 81.2496L83.3231 83.0143H90.334L91.3985 80.6981C92.5364 78.2349 99.8043 61.8012 100.098 61.0291C100.245 60.6982 99.4372 60.5879 96.7576 60.5879H93.2338L89.1227 64.8526C86.8469 67.2055 84.2775 69.8894 83.4332 70.8085C82.332 71.9849 81.8182 72.3158 81.708 71.9482C81.5979 71.6541 81.3777 69.0438 81.2309 66.1026L80.9372 60.7717L74.6237 60.6615C71.1366 60.6247 68.2735 60.6615 68.2735 60.7717Z" fill="url(#paint6_linear_10_7098)"/>
<path d="M102.411 60.6614C102.411 60.6614 103.548 62.3894 104.319 63.4188L105.714 65.3673L111.624 65.4409L117.534 65.5511L114.854 67.3894C111.734 69.5217 100.208 77.3892 100.208 77.3892L98.3728 83.0878C98.3728 83.0878 105.127 82.9775 112.652 82.9408H126.453L127.408 80.257C127.995 78.8599 128.472 77.5364 128.472 77.4996C128.472 77.4996 124.838 77.4996 120.397 77.4996C115.955 77.4996 112.321 77.3526 112.321 77.2055C112.321 77.0217 113.533 76.0658 115.001 75.1099C116.432 74.1173 117.717 73.1982 117.827 73.0879C117.937 72.9776 119.846 71.6541 122.049 70.1835C128.472 65.8943 129.023 65.9922 130.308 63.2349C130.968 61.948 131.409 60.5879 131.409 60.5879C131.409 60.5879 124.875 60.5879 116.873 60.5879C105.384 60.5879 102.411 60.6614 102.411 60.6614Z" fill="white"/>
<path d="M102.411 60.6614C102.411 60.6614 103.548 62.3894 104.319 63.4188L105.714 65.3673L111.624 65.4409L117.534 65.5511L114.854 67.3894C111.734 69.5217 100.208 77.3892 100.208 77.3892L98.3728 83.0878C98.3728 83.0878 105.127 82.9775 112.652 82.9408H126.453L127.408 80.257C127.995 78.8599 128.472 77.5364 128.472 77.4996C128.472 77.4996 124.838 77.4996 120.397 77.4996C115.955 77.4996 112.321 77.3526 112.321 77.2055C112.321 77.0217 113.533 76.0658 115.001 75.1099C116.432 74.1173 117.717 73.1982 117.827 73.0879C117.937 72.9776 119.846 71.6541 122.049 70.1835C128.472 65.8943 129.023 65.9922 130.308 63.2349C130.968 61.948 131.409 60.5879 131.409 60.5879C131.409 60.5879 124.875 60.5879 116.873 60.5879C105.384 60.5879 102.411 60.6614 102.411 60.6614Z" fill="url(#paint7_linear_10_7098)"/>
<path d="M134.346 60.8453C134.346 60.9923 135.08 62.0585 135.997 63.235L137.686 65.3305L135.484 70.404C134.309 73.1982 132.657 77.0217 131.813 78.8967C130.969 80.7717 130.308 82.4628 130.308 82.6834C130.308 82.904 131.666 83.0143 133.832 82.9408L137.392 82.8305L141.21 74.007C145.101 64.9629 146.826 60.9188 146.826 60.6982C146.826 60.6247 144.036 60.5879 140.586 60.5879C137.172 60.5879 134.346 60.6982 134.346 60.8453Z" fill="white"/>
<path d="M134.346 60.8453C134.346 60.9923 135.08 62.0585 135.997 63.235L137.686 65.3305L135.484 70.404C134.309 73.1982 132.657 77.0217 131.813 78.8967C130.969 80.7717 130.308 82.4628 130.308 82.6834C130.308 82.904 131.666 83.0143 133.832 82.9408L137.392 82.8305L141.21 74.007C145.101 64.9629 146.826 60.9188 146.826 60.6982C146.826 60.6247 144.036 60.5879 140.586 60.5879C137.172 60.5879 134.346 60.6982 134.346 60.8453Z" fill="url(#paint8_linear_10_7098)"/>
<path d="M149.395 60.7854C149.395 60.9324 150.166 61.9986 151.084 63.2118L152.772 65.4177L150.9 69.7192C149.872 72.0721 148.22 75.9324 147.193 78.2485C146.202 80.5279 145.357 82.5868 145.357 82.7338C145.357 82.8809 146.972 83.0279 148.955 83.0279H152.589L154.901 77.5868C156.149 74.6089 157.801 70.7853 158.572 69.0574L159.966 65.9324H165.913C171.345 65.9324 171.896 66.006 172.373 66.6309C173.071 67.6236 173.034 68.1751 172.153 69.0574C171.529 69.6824 170.942 69.7927 168.079 69.7927H164.702L161.288 71.8883C158.572 73.5426 157.382 74.5721 157.382 74.5721C157.382 74.5721 160.958 74.5721 164.738 74.5721C175.09 74.5721 177.769 73.7264 179.898 69.903C181.88 66.7045 180.999 63.0648 177.769 61.4839C176.484 60.8589 175.273 60.7854 162.903 60.6751C155.452 60.6383 149.395 60.6751 149.395 60.7854Z" fill="white"/>
<path d="M149.395 60.7854C149.395 60.9324 150.166 61.9986 151.084 63.2118L152.772 65.4177L150.9 69.7192C149.872 72.0721 148.22 75.9324 147.193 78.2485C146.202 80.5279 145.357 82.5868 145.357 82.7338C145.357 82.8809 146.972 83.0279 148.955 83.0279H152.589L154.901 77.5868C156.149 74.6089 157.801 70.7853 158.572 69.0574L159.966 65.9324H165.913C171.345 65.9324 171.896 66.006 172.373 66.6309C173.071 67.6236 173.034 68.1751 172.153 69.0574C171.529 69.6824 170.942 69.7927 168.079 69.7927H164.702L161.288 71.8883C158.572 73.5426 157.382 74.5721 157.382 74.5721C157.382 74.5721 160.958 74.5721 164.738 74.5721C175.09 74.5721 177.769 73.7264 179.898 69.903C181.88 66.7045 180.999 63.0648 177.769 61.4839C176.484 60.8589 175.273 60.7854 162.903 60.6751C155.452 60.6383 149.395 60.6751 149.395 60.7854Z" fill="url(#paint9_linear_10_7098)"/>
<path d="M4.25839 93.1981C3.37744 93.4187 2.53319 94.4113 1.10165 96.9113C-0.293197 99.3378 0.000454386 99.926 2.64331 99.926C5.28617 99.926 6.6076 99.1539 8.00245 96.7642C9.28717 94.5216 9.4707 93.4922 8.58975 93.1613C7.92903 92.904 5.32288 92.9407 4.25839 93.1981ZM6.6076 95.2201C6.8208 95.8941 5.87348 96.8745 5.87348 96.8745C5.87348 96.8745 4.94075 97.9893 4.11157 98.0878C3.60608 98.1478 3.08379 98.1613 2.82685 97.8672C2.5699 97.5731 3.08937 95.9995 3.96474 95.404C4.82055 94.8217 6.29514 94.2323 6.6076 95.2201Z" fill="white"/>
<path d="M4.25839 93.1981C3.37744 93.4187 2.53319 94.4113 1.10165 96.9113C-0.293197 99.3378 0.000454386 99.926 2.64331 99.926C5.28617 99.926 6.6076 99.1539 8.00245 96.7642C9.28717 94.5216 9.4707 93.4922 8.58975 93.1613C7.92903 92.904 5.32288 92.9407 4.25839 93.1981ZM6.6076 95.2201C6.8208 95.8941 5.87348 96.8745 5.87348 96.8745C5.87348 96.8745 4.94075 97.9893 4.11157 98.0878C3.60608 98.1478 3.08379 98.1613 2.82685 97.8672C2.5699 97.5731 3.08937 95.9995 3.96474 95.404C4.82055 94.8217 6.29514 94.2323 6.6076 95.2201Z" fill="url(#paint10_linear_10_7098)"/>
<path d="M12.1134 94.1171C11.7096 94.7789 10.9388 96.2127 10.3515 97.2789C9.17689 99.5951 9.39713 99.9259 12.2969 99.9259C14.8297 99.9259 16.1878 99.0068 17.7662 96.1392C19.2711 93.4554 19.3813 92.9407 18.3902 92.9407C17.913 92.9407 17.2156 93.676 16.2979 95.2201C15.5271 96.5068 14.7196 97.6465 14.536 97.7936C14.0221 98.1612 12.1134 98.1612 12.1134 97.7936C12.1134 97.6465 12.6273 96.6539 13.2146 95.551C14.4993 93.198 14.536 92.9407 13.5817 92.9407C13.1412 92.9407 12.5539 93.4186 12.1134 94.1171Z" fill="white"/>
<path d="M12.1134 94.1171C11.7096 94.7789 10.9388 96.2127 10.3515 97.2789C9.17689 99.5951 9.39713 99.9259 12.2969 99.9259C14.8297 99.9259 16.1878 99.0068 17.7662 96.1392C19.2711 93.4554 19.3813 92.9407 18.3902 92.9407C17.913 92.9407 17.2156 93.676 16.2979 95.2201C15.5271 96.5068 14.7196 97.6465 14.536 97.7936C14.0221 98.1612 12.1134 98.1612 12.1134 97.7936C12.1134 97.6465 12.6273 96.6539 13.2146 95.551C14.4993 93.198 14.536 92.9407 13.5817 92.9407C13.1412 92.9407 12.5539 93.4186 12.1134 94.1171Z" fill="url(#paint11_linear_10_7098)"/>
<path d="M22.758 93.0143L20.3721 94.7791H23.1251L20.1886 99.8157H22.3909L25.3275 94.7791H27.3463L29.3652 93.0143H22.758Z" fill="white"/>
<path d="M22.758 93.0143L20.3721 94.7791H23.1251L20.1886 99.8157H22.3909L25.3275 94.7791H27.3463L29.3652 93.0143H22.758Z" fill="url(#paint12_linear_10_7098)"/>
<path d="M30.0995 96.0657C29.1084 97.7936 28.2641 99.3745 28.2641 99.5583C28.2641 99.7789 29.4387 99.9259 30.8703 99.9259C33.9169 99.9259 35.3485 99.2642 36.0092 97.573C36.2661 96.948 36.78 96.0289 37.1471 95.551C37.9546 94.4848 37.9913 93.4554 37.2205 93.1613C36.8901 93.051 35.6054 92.9407 34.3207 92.9407H31.9715L30.0995 96.0657ZM35.6054 95.1098C35.6054 95.5877 34.908 95.7716 33.6967 95.5877C32.155 95.3671 32.4487 94.7789 34.1372 94.7789C34.9447 94.7789 35.6054 94.926 35.6054 95.1098ZM34.1372 97.3157C34.1372 97.7201 33.2195 98.0877 32.0816 98.0877C31.2374 98.0877 30.9437 97.7201 31.4576 97.2421C31.8247 96.8745 34.1372 96.948 34.1372 97.3157Z" fill="white"/>
<path d="M30.0995 96.0657C29.1084 97.7936 28.2641 99.3745 28.2641 99.5583C28.2641 99.7789 29.4387 99.9259 30.8703 99.9259C33.9169 99.9259 35.3485 99.2642 36.0092 97.573C36.2661 96.948 36.78 96.0289 37.1471 95.551C37.9546 94.4848 37.9913 93.4554 37.2205 93.1613C36.8901 93.051 35.6054 92.9407 34.3207 92.9407H31.9715L30.0995 96.0657ZM35.6054 95.1098C35.6054 95.5877 34.908 95.7716 33.6967 95.5877C32.155 95.3671 32.4487 94.7789 34.1372 94.7789C34.9447 94.7789 35.6054 94.926 35.6054 95.1098ZM34.1372 97.3157C34.1372 97.7201 33.2195 98.0877 32.0816 98.0877C31.2374 98.0877 30.9437 97.7201 31.4576 97.2421C31.8247 96.8745 34.1372 96.948 34.1372 97.3157Z" fill="url(#paint13_linear_10_7098)"/>
<path d="M41.9922 93.3085C40.524 93.8967 37.8811 98.235 38.2849 99.3011C38.5785 100.11 42.1758 100.147 43.6807 99.3746C45.149 98.6026 47.6083 94.2276 46.9843 93.4923C46.4704 92.8673 43.3137 92.757 41.9922 93.3085ZM44.5617 95.0732C44.6718 95.257 44.3414 95.9923 43.8276 96.7276C43.1301 97.7938 42.6897 98.0879 41.8454 98.0879C40.5607 98.0879 40.4873 97.61 41.4784 95.9556C42.0289 95.0732 42.4694 94.7791 43.277 94.7791C43.901 94.7791 44.4516 94.9261 44.5617 95.0732Z" fill="white"/>
<path d="M41.9922 93.3085C40.524 93.8967 37.8811 98.235 38.2849 99.3011C38.5785 100.11 42.1758 100.147 43.6807 99.3746C45.149 98.6026 47.6083 94.2276 46.9843 93.4923C46.4704 92.8673 43.3137 92.757 41.9922 93.3085ZM44.5617 95.0732C44.6718 95.257 44.3414 95.9923 43.8276 96.7276C43.1301 97.7938 42.6897 98.0879 41.8454 98.0879C40.5607 98.0879 40.4873 97.61 41.4784 95.9556C42.0289 95.0732 42.4694 94.7791 43.277 94.7791C43.901 94.7791 44.4516 94.9261 44.5617 95.0732Z" fill="url(#paint14_linear_10_7098)"/>
<path d="M51.7557 93.1981C51.4621 93.3084 50.9115 93.676 50.5444 94.0069C49.7736 94.6687 47.351 98.8598 47.351 99.4848C47.351 100.294 48.7825 99.926 49.4065 99.0069C49.847 98.3084 50.3242 98.0878 51.2418 98.0878C52.4164 98.0878 52.4899 98.1613 52.2696 99.0069C51.9026 100.551 53.4075 100.22 54.4353 98.529C56.344 95.5143 56.968 94.0069 56.4909 93.4555C56.0871 92.9408 52.9303 92.7569 51.7557 93.1981ZM54.3252 95.0363C54.2885 95.7716 53.591 96.3231 52.5266 96.3966C51.1317 96.5069 50.8014 96.1393 51.6089 95.3672C52.1595 94.779 54.3252 94.5216 54.3252 95.0363Z" fill="white"/>
<path d="M51.7557 93.1981C51.4621 93.3084 50.9115 93.676 50.5444 94.0069C49.7736 94.6687 47.351 98.8598 47.351 99.4848C47.351 100.294 48.7825 99.926 49.4065 99.0069C49.847 98.3084 50.3242 98.0878 51.2418 98.0878C52.4164 98.0878 52.4899 98.1613 52.2696 99.0069C51.9026 100.551 53.4075 100.22 54.4353 98.529C56.344 95.5143 56.968 94.0069 56.4909 93.4555C56.0871 92.9408 52.9303 92.7569 51.7557 93.1981ZM54.3252 95.0363C54.2885 95.7716 53.591 96.3231 52.5266 96.3966C51.1317 96.5069 50.8014 96.1393 51.6089 95.3672C52.1595 94.779 54.3252 94.5216 54.3252 95.0363Z" fill="url(#paint15_linear_10_7098)"/>
<path d="M58.3995 96.2862C57.3718 98.1612 56.5275 99.7054 56.5275 99.7789C56.5275 99.8524 56.9313 99.9259 57.4452 99.9259C58.0692 99.9259 58.5096 99.6318 58.8033 99.0068C59.1337 98.2715 59.464 98.0877 60.6386 98.0877C61.9601 98.0877 62.4372 98.5289 61.6664 99.0068C61.1158 99.3377 61.593 99.9259 62.3638 99.9259C63.0979 99.9259 64.2358 98.4554 64.2358 97.5362C64.2358 97.2421 64.3827 96.9848 64.5295 96.9848C64.713 96.9848 65.2269 96.2862 65.7041 95.4407C66.5116 93.9701 66.5116 93.8966 65.8876 93.4186C65.4472 93.1245 64.2358 92.9407 62.7309 92.9407H60.2716L58.3995 96.2862ZM63.8688 95.0363C63.8321 95.7348 63.2081 96.176 61.9601 96.323C60.5285 96.4701 60.4184 96.3598 60.7854 95.3671C60.9323 94.9627 61.4829 94.7789 62.4372 94.7789C63.2081 94.7789 63.8688 94.8892 63.8688 95.0363Z" fill="white"/>
<path d="M58.3995 96.2862C57.3718 98.1612 56.5275 99.7054 56.5275 99.7789C56.5275 99.8524 56.9313 99.9259 57.4452 99.9259C58.0692 99.9259 58.5096 99.6318 58.8033 99.0068C59.1337 98.2715 59.464 98.0877 60.6386 98.0877C61.9601 98.0877 62.4372 98.5289 61.6664 99.0068C61.1158 99.3377 61.593 99.9259 62.3638 99.9259C63.0979 99.9259 64.2358 98.4554 64.2358 97.5362C64.2358 97.2421 64.3827 96.9848 64.5295 96.9848C64.713 96.9848 65.2269 96.2862 65.7041 95.4407C66.5116 93.9701 66.5116 93.8966 65.8876 93.4186C65.4472 93.1245 64.2358 92.9407 62.7309 92.9407H60.2716L58.3995 96.2862ZM63.8688 95.0363C63.8321 95.7348 63.2081 96.176 61.9601 96.323C60.5285 96.4701 60.4184 96.3598 60.7854 95.3671C60.9323 94.9627 61.4829 94.7789 62.4372 94.7789C63.2081 94.7789 63.8688 94.8892 63.8688 95.0363Z" fill="url(#paint16_linear_10_7098)"/>
<path d="M69.0812 94.1172C67.6864 96.5069 66.0713 99.4848 66.0713 99.7054C66.0713 100.11 71.1368 99.926 72.1278 99.4848C73.1556 99.0069 75.6149 95.1834 75.6149 94.0804C75.6149 93.1613 74.9175 92.9407 72.1278 92.9407C69.8887 92.9407 69.7786 92.9775 69.0812 94.1172ZM72.605 96.3231C71.8709 97.6834 71.5772 97.9039 70.3659 98.0142C69.6318 98.0878 69.0078 98.0142 69.0078 97.9039C69.0078 97.7936 69.3748 97.0216 69.852 96.2495C70.5862 94.9628 70.8064 94.779 72.0544 94.779H73.4493L72.605 96.3231Z" fill="white"/>
<path d="M69.0812 94.1172C67.6864 96.5069 66.0713 99.4848 66.0713 99.7054C66.0713 100.11 71.1368 99.926 72.1278 99.4848C73.1556 99.0069 75.6149 95.1834 75.6149 94.0804C75.6149 93.1613 74.9175 92.9407 72.1278 92.9407C69.8887 92.9407 69.7786 92.9775 69.0812 94.1172ZM72.605 96.3231C71.8709 97.6834 71.5772 97.9039 70.3659 98.0142C69.6318 98.0878 69.0078 98.0142 69.0078 97.9039C69.0078 97.7936 69.3748 97.0216 69.852 96.2495C70.5862 94.9628 70.8064 94.779 72.0544 94.779H73.4493L72.605 96.3231Z" fill="url(#paint17_linear_10_7098)"/>
<path d="M83.1769 94.3746C80.2037 99.1173 79.8733 100.036 81.1948 99.8526C81.7821 99.779 82.4428 99.007 83.4706 97.2423C84.6819 95.1099 85.0122 94.779 85.9299 94.779C87.2513 94.779 87.2513 95.0364 85.8932 97.3526C84.5717 99.5952 84.535 99.9996 85.6362 99.8526C86.1868 99.779 86.8842 98.9702 87.912 97.279C89.16 95.1467 89.5271 94.779 90.4081 94.779C91.6561 94.779 91.6561 95.1099 90.2979 97.6099C89.6739 98.7496 89.2335 99.7423 89.3436 99.8158C89.4537 99.9261 89.8942 99.9261 90.3713 99.779C90.9586 99.632 91.6561 98.7496 92.6104 96.9114C93.3446 95.4408 93.9686 94.0438 93.9686 93.8232C93.9686 93.1614 92.7206 92.9776 88.2057 93.0144H84.0211L83.1769 94.3746Z" fill="white"/>
<path d="M83.1769 94.3746C80.2037 99.1173 79.8733 100.036 81.1948 99.8526C81.7821 99.779 82.4428 99.007 83.4706 97.2423C84.6819 95.1099 85.0122 94.779 85.9299 94.779C87.2513 94.779 87.2513 95.0364 85.8932 97.3526C84.5717 99.5952 84.535 99.9996 85.6362 99.8526C86.1868 99.779 86.8842 98.9702 87.912 97.279C89.16 95.1467 89.5271 94.779 90.4081 94.779C91.6561 94.779 91.6561 95.1099 90.2979 97.6099C89.6739 98.7496 89.2335 99.7423 89.3436 99.8158C89.4537 99.9261 89.8942 99.9261 90.3713 99.779C90.9586 99.632 91.6561 98.7496 92.6104 96.9114C93.3446 95.4408 93.9686 94.0438 93.9686 93.8232C93.9686 93.1614 92.7206 92.9776 88.2057 93.0144H84.0211L83.1769 94.3746Z" fill="url(#paint18_linear_10_7098)"/>
<path d="M98.1529 93.198C97.272 93.3819 94.3355 97.6465 94.3355 98.7862C94.3355 99.7421 95.5468 100.073 98.0061 99.8524C100.062 99.6318 100.465 99.3009 102.264 96.2127C103.549 94.0436 103.585 93.8966 102.961 93.4186C102.301 92.9774 99.8781 92.8671 98.1529 93.198ZM100.576 95.2201C100.576 95.4774 100.245 96.2495 99.8414 96.8745C99.2908 97.8304 98.8503 98.0877 98.0061 98.0877C96.7214 98.0877 96.6113 97.6098 97.639 95.9554C98.1896 95.0363 98.6301 94.7789 99.4744 94.7789C100.098 94.7789 100.576 94.9627 100.576 95.2201Z" fill="white"/>
<path d="M98.1529 93.198C97.272 93.3819 94.3355 97.6465 94.3355 98.7862C94.3355 99.7421 95.5468 100.073 98.0061 99.8524C100.062 99.6318 100.465 99.3009 102.264 96.2127C103.549 94.0436 103.585 93.8966 102.961 93.4186C102.301 92.9774 99.8781 92.8671 98.1529 93.198ZM100.576 95.2201C100.576 95.4774 100.245 96.2495 99.8414 96.8745C99.2908 97.8304 98.8503 98.0877 98.0061 98.0877C96.7214 98.0877 96.6113 97.6098 97.639 95.9554C98.1896 95.0363 98.6301 94.7789 99.4744 94.7789C100.098 94.7789 100.576 94.9627 100.576 95.2201Z" fill="url(#paint19_linear_10_7098)"/>
<path d="M106.265 93.823L104.797 94.7054L106.191 94.8524L107.55 94.9627L106.265 97.0951C104.797 99.5583 104.723 99.9259 105.678 99.9259C106.448 99.9259 107.366 98.823 108.614 96.323C109.238 95.1098 109.605 94.7789 110.376 94.7789C111.184 94.7789 113.79 93.4921 113.79 93.0877C113.79 93.0142 112.432 92.9407 110.78 92.9407C108.21 92.9407 107.513 93.0877 106.265 93.823Z" fill="white"/>
<path d="M106.265 93.823L104.797 94.7054L106.191 94.8524L107.55 94.9627L106.265 97.0951C104.797 99.5583 104.723 99.9259 105.678 99.9259C106.448 99.9259 107.366 98.823 108.614 96.323C109.238 95.1098 109.605 94.7789 110.376 94.7789C111.184 94.7789 113.79 93.4921 113.79 93.0877C113.79 93.0142 112.432 92.9407 110.78 92.9407C108.21 92.9407 107.513 93.0877 106.265 93.823Z" fill="url(#paint20_linear_10_7098)"/>
<path d="M116.69 93.4921C115.809 93.9701 114.047 96.4333 113.313 98.2348C112.872 99.3377 113.68 99.9259 115.772 99.9259C118.231 99.9259 119.222 99.3745 120.691 97.1686C122.159 94.926 122.526 93.7127 121.829 93.2716C121.021 92.7569 117.754 92.9039 116.69 93.4921ZM119.663 95.1466C119.663 95.8818 118.598 97.6465 118.011 97.8671C117.24 98.1612 115.625 98.1612 115.625 97.8671C115.625 97.5362 116.433 96.1024 117.02 95.4039C117.607 94.7421 119.663 94.5216 119.663 95.1466Z" fill="white"/>
<path d="M116.69 93.4921C115.809 93.9701 114.047 96.4333 113.313 98.2348C112.872 99.3377 113.68 99.9259 115.772 99.9259C118.231 99.9259 119.222 99.3745 120.691 97.1686C122.159 94.926 122.526 93.7127 121.829 93.2716C121.021 92.7569 117.754 92.9039 116.69 93.4921ZM119.663 95.1466C119.663 95.8818 118.598 97.6465 118.011 97.8671C117.24 98.1612 115.625 98.1612 115.625 97.8671C115.625 97.5362 116.433 96.1024 117.02 95.4039C117.607 94.7421 119.663 94.5216 119.663 95.1466Z" fill="url(#paint21_linear_10_7098)"/>
<path d="M125.463 93.7496C124.655 94.9996 122.232 99.4481 122.232 99.7055C122.232 100.33 123.774 99.8158 124.288 99.0069C124.765 98.2716 125.206 98.0878 126.343 98.0878C127.628 98.0878 127.738 98.1613 127.371 98.7863C126.857 99.8158 126.894 99.926 127.922 99.926C128.656 99.926 129.023 99.5952 129.5 98.529C129.867 97.7937 130.528 96.5805 130.968 95.8819C132.51 93.4555 132.033 92.9408 128.289 92.9408C126.307 92.9408 125.903 93.0511 125.463 93.7496ZM129.207 95.5143C128.913 96.029 128.436 96.2496 127.555 96.2496C126.16 96.2496 126.16 96.2496 126.49 95.3672C126.637 94.9628 127.188 94.779 128.142 94.779C129.5 94.779 129.574 94.8525 129.207 95.5143Z" fill="white"/>
<path d="M125.463 93.7496C124.655 94.9996 122.232 99.4481 122.232 99.7055C122.232 100.33 123.774 99.8158 124.288 99.0069C124.765 98.2716 125.206 98.0878 126.343 98.0878C127.628 98.0878 127.738 98.1613 127.371 98.7863C126.857 99.8158 126.894 99.926 127.922 99.926C128.656 99.926 129.023 99.5952 129.5 98.529C129.867 97.7937 130.528 96.5805 130.968 95.8819C132.51 93.4555 132.033 92.9408 128.289 92.9408C126.307 92.9408 125.903 93.0511 125.463 93.7496ZM129.207 95.5143C128.913 96.029 128.436 96.2496 127.555 96.2496C126.16 96.2496 126.16 96.2496 126.49 95.3672C126.637 94.9628 127.188 94.779 128.142 94.779C129.5 94.779 129.574 94.8525 129.207 95.5143Z" fill="url(#paint22_linear_10_7098)"/>
<path d="M139.558 93.9334C138.42 95.5878 136.548 99.0804 136.548 99.5216C136.548 100.294 137.943 99.926 138.53 99.0069C139.044 98.2349 139.411 98.0878 141.063 98.0878C143.375 98.0878 144.367 97.4996 145.394 95.4775C146.422 93.3819 145.982 92.9408 142.751 92.9408C140.439 92.9408 140.219 93.0143 139.558 93.9334ZM143.449 95.404C143.375 95.8452 142.862 96.1393 141.944 96.2863C140.366 96.5437 140.109 96.3966 140.622 95.4775C141.136 94.5216 143.632 94.4849 143.449 95.404Z" fill="white"/>
<path d="M139.558 93.9334C138.42 95.5878 136.548 99.0804 136.548 99.5216C136.548 100.294 137.943 99.926 138.53 99.0069C139.044 98.2349 139.411 98.0878 141.063 98.0878C143.375 98.0878 144.367 97.4996 145.394 95.4775C146.422 93.3819 145.982 92.9408 142.751 92.9408C140.439 92.9408 140.219 93.0143 139.558 93.9334ZM143.449 95.404C143.375 95.8452 142.862 96.1393 141.944 96.2863C140.366 96.5437 140.109 96.3966 140.622 95.4775C141.136 94.5216 143.632 94.4849 143.449 95.404Z" fill="url(#paint23_linear_10_7098)"/>
<path d="M150.312 93.2716C149.909 93.4555 149.285 93.8966 148.954 94.2643C148.037 95.3304 145.761 99.4848 146.018 99.7054C146.495 100.22 147.523 99.8525 148.073 99.0069C148.514 98.3084 148.991 98.0878 149.945 98.0878C151.157 98.0878 151.23 98.1613 151.01 99.0437C150.79 99.8893 150.863 99.9628 151.634 99.8525C152.258 99.779 152.918 99.0069 154.13 96.8378C155.671 94.0805 155.708 93.8966 155.084 93.4187C154.313 92.904 151.487 92.7937 150.312 93.2716ZM153.065 95.0363C153.029 95.7716 152.368 96.2128 151.12 96.3599C149.652 96.5437 149.248 95.8452 150.422 95.1834C151.157 94.7422 153.065 94.6687 153.065 95.0363Z" fill="white"/>
<path d="M150.312 93.2716C149.909 93.4555 149.285 93.8966 148.954 94.2643C148.037 95.3304 145.761 99.4848 146.018 99.7054C146.495 100.22 147.523 99.8525 148.073 99.0069C148.514 98.3084 148.991 98.0878 149.945 98.0878C151.157 98.0878 151.23 98.1613 151.01 99.0437C150.79 99.8893 150.863 99.9628 151.634 99.8525C152.258 99.779 152.918 99.0069 154.13 96.8378C155.671 94.0805 155.708 93.8966 155.084 93.4187C154.313 92.904 151.487 92.7937 150.312 93.2716ZM153.065 95.0363C153.029 95.7716 152.368 96.2128 151.12 96.3599C149.652 96.5437 149.248 95.8452 150.422 95.1834C151.157 94.7422 153.065 94.6687 153.065 95.0363Z" fill="url(#paint24_linear_10_7098)"/>
<path d="M158.278 94.1171C156.883 96.5068 155.268 99.4848 155.268 99.7054C155.268 99.8157 155.672 99.9259 156.186 99.9259C156.81 99.9259 157.251 99.6318 157.544 99.0068C157.875 98.2715 158.205 98.0877 159.38 98.0877C160.664 98.0877 160.774 98.1612 160.407 98.7862C159.893 99.8157 159.93 99.9259 160.958 99.9259C161.692 99.9259 162.059 99.6318 162.536 98.5289C162.867 97.7936 163.527 96.6539 164.005 95.9921C164.959 94.6686 165.069 93.4921 164.225 93.1613C163.894 93.051 162.61 92.9407 161.325 92.9407C159.086 92.9407 158.976 92.9774 158.278 94.1171ZM162.169 95.4039C162.096 95.8818 161.655 96.1024 160.664 96.176C159.233 96.2863 159.196 96.2862 159.526 95.3671C159.673 94.9995 160.187 94.7789 161.031 94.7789C162.022 94.7789 162.279 94.926 162.169 95.4039Z" fill="white"/>
<path d="M158.278 94.1171C156.883 96.5068 155.268 99.4848 155.268 99.7054C155.268 99.8157 155.672 99.9259 156.186 99.9259C156.81 99.9259 157.251 99.6318 157.544 99.0068C157.875 98.2715 158.205 98.0877 159.38 98.0877C160.664 98.0877 160.774 98.1612 160.407 98.7862C159.893 99.8157 159.93 99.9259 160.958 99.9259C161.692 99.9259 162.059 99.6318 162.536 98.5289C162.867 97.7936 163.527 96.6539 164.005 95.9921C164.959 94.6686 165.069 93.4921 164.225 93.1613C163.894 93.051 162.61 92.9407 161.325 92.9407C159.086 92.9407 158.976 92.9774 158.278 94.1171ZM162.169 95.4039C162.096 95.8818 161.655 96.1024 160.664 96.176C159.233 96.2863 159.196 96.2862 159.526 95.3671C159.673 94.9995 160.187 94.7789 161.031 94.7789C162.022 94.7789 162.279 94.926 162.169 95.4039Z" fill="url(#paint25_linear_10_7098)"/>
<path d="M167.931 93.8598L166.463 94.7421L167.675 94.7789C168.299 94.7789 168.849 94.8524 168.849 94.9627C168.849 95.073 168.372 96.0289 167.748 97.0951C166.427 99.448 166.353 99.9995 167.454 99.8524C168.005 99.7789 168.702 98.97 169.693 97.2421C170.831 95.2936 171.308 94.7789 171.969 94.7789C172.74 94.7789 175.456 93.4554 175.456 93.0877C175.456 93.0142 174.098 92.9407 172.446 92.9407C169.84 92.9407 169.179 93.0877 167.931 93.8598Z" fill="white"/>
<path d="M167.931 93.8598L166.463 94.7421L167.675 94.7789C168.299 94.7789 168.849 94.8524 168.849 94.9627C168.849 95.073 168.372 96.0289 167.748 97.0951C166.427 99.448 166.353 99.9995 167.454 99.8524C168.005 99.7789 168.702 98.97 169.693 97.2421C170.831 95.2936 171.308 94.7789 171.969 94.7789C172.74 94.7789 175.456 93.4554 175.456 93.0877C175.456 93.0142 174.098 92.9407 172.446 92.9407C169.84 92.9407 169.179 93.0877 167.931 93.8598Z" fill="url(#paint26_linear_10_7098)"/>
<path d="M178.54 93.3085C177.549 93.7129 176.19 95.404 176.19 96.2864C176.19 96.8746 176.484 96.9849 178.246 96.9849C180.045 96.9849 180.265 97.0584 179.861 97.5364C179.604 97.8305 178.797 98.0879 178.062 98.0879C177.328 98.0879 176.19 98.4555 175.456 98.9334L174.172 99.7423L176.19 99.8526C179.274 100.036 180.448 99.6687 181.513 98.3084C182.981 96.3599 182.761 95.882 180.412 95.882C179.31 95.882 178.393 95.7349 178.393 95.5511C178.393 95.0732 179.384 94.779 181.036 94.779C182.284 94.779 185 93.6393 185 93.0879C185 92.7938 179.31 92.9776 178.54 93.3085Z" fill="white"/>
<path d="M178.54 93.3085C177.549 93.7129 176.19 95.404 176.19 96.2864C176.19 96.8746 176.484 96.9849 178.246 96.9849C180.045 96.9849 180.265 97.0584 179.861 97.5364C179.604 97.8305 178.797 98.0879 178.062 98.0879C177.328 98.0879 176.19 98.4555 175.456 98.9334L174.172 99.7423L176.19 99.8526C179.274 100.036 180.448 99.6687 181.513 98.3084C182.981 96.3599 182.761 95.882 180.412 95.882C179.31 95.882 178.393 95.7349 178.393 95.5511C178.393 95.0732 179.384 94.779 181.036 94.779C182.284 94.779 185 93.6393 185 93.0879C185 92.7938 179.31 92.9776 178.54 93.3085Z" fill="url(#paint27_linear_10_7098)"/>
<defs>
<linearGradient id="paint0_linear_10_7098" x1="92.5" y1="0" x2="92.5" y2="100" gradientUnits="userSpaceOnUse">
<stop stop-color="#EBD9C0"/>
<stop offset="1" stop-color="#75563A"/>
</linearGradient>
<linearGradient id="paint1_linear_10_7098" x1="92.5" y1="0" x2="92.5" y2="100" gradientUnits="userSpaceOnUse">
<stop stop-color="#EBD9C0"/>
<stop offset="1" stop-color="#75563A"/>
</linearGradient>
<linearGradient id="paint2_linear_10_7098" x1="92.5" y1="0" x2="92.5" y2="100" gradientUnits="userSpaceOnUse">
<stop stop-color="#EBD9C0"/>
<stop offset="1" stop-color="#75563A"/>
</linearGradient>
<linearGradient id="paint3_linear_10_7098" x1="92.5" y1="0" x2="92.5" y2="100" gradientUnits="userSpaceOnUse">
<stop stop-color="#EBD9C0"/>
<stop offset="1" stop-color="#75563A"/>
</linearGradient>
<linearGradient id="paint4_linear_10_7098" x1="92.5" y1="0" x2="92.5" y2="100" gradientUnits="userSpaceOnUse">
<stop stop-color="#EBD9C0"/>
<stop offset="1" stop-color="#75563A"/>
</linearGradient>
<linearGradient id="paint5_linear_10_7098" x1="92.5" y1="0" x2="92.5" y2="100" gradientUnits="userSpaceOnUse">
<stop stop-color="#EBD9C0"/>
<stop offset="1" stop-color="#75563A"/>
</linearGradient>
<linearGradient id="paint6_linear_10_7098" x1="92.5" y1="0" x2="92.5" y2="100" gradientUnits="userSpaceOnUse">
<stop stop-color="#EBD9C0"/>
<stop offset="1" stop-color="#75563A"/>
</linearGradient>
<linearGradient id="paint7_linear_10_7098" x1="92.5" y1="0" x2="92.5" y2="100" gradientUnits="userSpaceOnUse">
<stop stop-color="#EBD9C0"/>
<stop offset="1" stop-color="#75563A"/>
</linearGradient>
<linearGradient id="paint8_linear_10_7098" x1="92.5" y1="0" x2="92.5" y2="100" gradientUnits="userSpaceOnUse">
<stop stop-color="#EBD9C0"/>
<stop offset="1" stop-color="#75563A"/>
</linearGradient>
<linearGradient id="paint9_linear_10_7098" x1="92.5" y1="0" x2="92.5" y2="100" gradientUnits="userSpaceOnUse">
<stop stop-color="#EBD9C0"/>
<stop offset="1" stop-color="#75563A"/>
</linearGradient>
<linearGradient id="paint10_linear_10_7098" x1="92.5" y1="0" x2="92.5" y2="100" gradientUnits="userSpaceOnUse">
<stop stop-color="#EBD9C0"/>
<stop offset="1" stop-color="#75563A"/>
</linearGradient>
<linearGradient id="paint11_linear_10_7098" x1="92.5" y1="0" x2="92.5" y2="100" gradientUnits="userSpaceOnUse">
<stop stop-color="#EBD9C0"/>
<stop offset="1" stop-color="#75563A"/>
</linearGradient>
<linearGradient id="paint12_linear_10_7098" x1="92.5" y1="0" x2="92.5" y2="100" gradientUnits="userSpaceOnUse">
<stop stop-color="#EBD9C0"/>
<stop offset="1" stop-color="#75563A"/>
</linearGradient>
<linearGradient id="paint13_linear_10_7098" x1="92.5" y1="0" x2="92.5" y2="100" gradientUnits="userSpaceOnUse">
<stop stop-color="#EBD9C0"/>
<stop offset="1" stop-color="#75563A"/>
</linearGradient>
<linearGradient id="paint14_linear_10_7098" x1="92.5" y1="0" x2="92.5" y2="100" gradientUnits="userSpaceOnUse">
<stop stop-color="#EBD9C0"/>
<stop offset="1" stop-color="#75563A"/>
</linearGradient>
<linearGradient id="paint15_linear_10_7098" x1="92.5" y1="0" x2="92.5" y2="100" gradientUnits="userSpaceOnUse">
<stop stop-color="#EBD9C0"/>
<stop offset="1" stop-color="#75563A"/>
</linearGradient>
<linearGradient id="paint16_linear_10_7098" x1="92.5" y1="0" x2="92.5" y2="100" gradientUnits="userSpaceOnUse">
<stop stop-color="#EBD9C0"/>
<stop offset="1" stop-color="#75563A"/>
</linearGradient>
<linearGradient id="paint17_linear_10_7098" x1="92.5" y1="0" x2="92.5" y2="100" gradientUnits="userSpaceOnUse">
<stop stop-color="#EBD9C0"/>
<stop offset="1" stop-color="#75563A"/>
</linearGradient>
<linearGradient id="paint18_linear_10_7098" x1="92.5" y1="0" x2="92.5" y2="100" gradientUnits="userSpaceOnUse">
<stop stop-color="#EBD9C0"/>
<stop offset="1" stop-color="#75563A"/>
</linearGradient>
<linearGradient id="paint19_linear_10_7098" x1="92.5" y1="0" x2="92.5" y2="100" gradientUnits="userSpaceOnUse">
<stop stop-color="#EBD9C0"/>
<stop offset="1" stop-color="#75563A"/>
</linearGradient>
<linearGradient id="paint20_linear_10_7098" x1="92.5" y1="0" x2="92.5" y2="100" gradientUnits="userSpaceOnUse">
<stop stop-color="#EBD9C0"/>
<stop offset="1" stop-color="#75563A"/>
</linearGradient>
<linearGradient id="paint21_linear_10_7098" x1="92.5" y1="0" x2="92.5" y2="100" gradientUnits="userSpaceOnUse">
<stop stop-color="#EBD9C0"/>
<stop offset="1" stop-color="#75563A"/>
</linearGradient>
<linearGradient id="paint22_linear_10_7098" x1="92.5" y1="0" x2="92.5" y2="100" gradientUnits="userSpaceOnUse">
<stop stop-color="#EBD9C0"/>
<stop offset="1" stop-color="#75563A"/>
</linearGradient>
<linearGradient id="paint23_linear_10_7098" x1="92.5" y1="0" x2="92.5" y2="100" gradientUnits="userSpaceOnUse">
<stop stop-color="#EBD9C0"/>
<stop offset="1" stop-color="#75563A"/>
</linearGradient>
<linearGradient id="paint24_linear_10_7098" x1="92.5" y1="0" x2="92.5" y2="100" gradientUnits="userSpaceOnUse">
<stop stop-color="#EBD9C0"/>
<stop offset="1" stop-color="#75563A"/>
</linearGradient>
<linearGradient id="paint25_linear_10_7098" x1="92.5" y1="0" x2="92.5" y2="100" gradientUnits="userSpaceOnUse">
<stop stop-color="#EBD9C0"/>
<stop offset="1" stop-color="#75563A"/>
</linearGradient>
<linearGradient id="paint26_linear_10_7098" x1="92.5" y1="0" x2="92.5" y2="100" gradientUnits="userSpaceOnUse">
<stop stop-color="#EBD9C0"/>
<stop offset="1" stop-color="#75563A"/>
</linearGradient>
<linearGradient id="paint27_linear_10_7098" x1="92.5" y1="0" x2="92.5" y2="100" gradientUnits="userSpaceOnUse">
<stop stop-color="#EBD9C0"/>
<stop offset="1" stop-color="#75563A"/>
</linearGradient>
</defs>
</svg>
