<svg width="100" height="100" viewBox="0 0 100 100" fill="none" xmlns="http://www.w3.org/2000/svg">
<path fill-rule="evenodd" clip-rule="evenodd" d="M19.3054 6.38717C13.0422 7.40446 8.35848 11.5946 6.69548 17.6681C6.18196 19.5438 6.18811 23.3587 6.70762 25.2923C8.77282 32.9761 16.4093 37.9469 24.0865 36.605L25.6183 36.3372L30.5282 41.3294L35.4382 46.3218L40.8384 40.9369C43.8087 37.9753 46.2195 35.4998 46.1958 35.436C46.1722 35.3721 43.9733 33.0843 41.3092 30.352L36.4655 25.3841L36.687 24.3979C37.0276 22.8792 36.9392 19.4094 36.5196 17.83C34.6856 10.9273 29.1813 6.52087 22.1269 6.30767C21.0454 6.27501 19.7757 6.31075 19.3054 6.38717ZM75.7364 6.48069C72.5273 7.07328 69.8156 8.49167 67.5378 10.7692C65.0283 13.278 63.5975 16.2817 63.1405 20.0001C62.9541 21.5163 63.0596 23.3639 63.4377 25.2068C63.5155 25.5858 61.3832 27.7741 44.5789 44.5606L25.6325 63.4873L23.837 63.2159C20.0799 62.6483 16.0704 63.5741 12.8598 65.7506C10.6482 67.2499 8.50879 69.8938 7.45063 72.4351C6.14707 75.5658 5.8408 80.2333 6.85006 81.5849C7.43677 82.3706 7.99937 82.682 8.83318 82.682C9.26206 82.682 9.79302 82.5893 10.0131 82.4761C10.2332 82.3629 11.4169 81.2824 12.6436 80.075C15.4448 77.3179 16.1595 76.932 18.2541 77.0462C19.8203 77.1315 20.4993 77.4054 21.5002 78.3552C23.2494 80.0152 23.58 82.6777 22.2885 84.7051C22.019 85.1283 20.9051 86.3593 19.8133 87.4407C18.7214 88.522 17.7115 89.627 17.5692 89.896C17.2014 90.5915 17.2366 91.8375 17.6397 92.3817C18.256 93.214 18.9733 93.5594 20.3547 93.6888C26.4167 94.2568 32.5518 90.823 35.3361 85.3035C36.0102 83.9672 36.643 81.7632 36.8604 79.9953C37.0468 78.4791 36.9413 76.6316 36.5632 74.7887C36.4854 74.4097 38.6209 72.2173 55.4395 55.4088L74.4036 36.4562L75.412 36.6817C76.9787 37.0322 80.42 36.9473 82.0193 36.5185C84.7046 35.7988 86.5008 34.8771 88.4043 33.2425C91.5233 30.5637 93.4697 26.6163 93.7151 22.4712C93.8509 20.1766 93.5935 18.8039 92.8917 18.08C92.3635 17.5352 91.4136 17.1229 90.9855 17.2525C90.8751 17.2861 90.5567 17.3639 90.2781 17.4256C89.9392 17.5005 89.0005 18.2962 87.4401 19.8309C84.5307 22.6924 83.8523 23.064 81.7468 22.9492C80.1806 22.8639 79.5015 22.59 78.5006 21.6403C76.7514 19.9803 76.4209 17.3178 77.7123 15.2904C77.9818 14.8672 79.0957 13.6362 80.1876 12.5548C81.2794 11.4734 82.2894 10.3684 82.4316 10.0995C83.0218 8.9839 82.6816 7.66758 81.5932 6.85512C80.7613 6.23398 78.021 6.0589 75.7364 6.48069ZM24.2645 13.6227C24.7647 13.8652 29.2899 18.3728 29.5774 18.915C29.9597 19.6363 29.8782 20.2843 28.9891 23.5923C28.0616 27.0432 27.9718 27.2625 27.2841 27.752C26.8167 28.0847 20.7119 29.823 20.0106 29.823C19.2129 29.823 18.151 29.0353 16.0025 26.8503C13.7016 24.5106 13.4058 24.0787 13.4058 23.0602C13.4058 22.3372 14.833 16.951 15.228 16.1839C15.6603 15.3441 16.2937 15.049 19.4764 14.205C23.4134 13.1609 23.332 13.1708 24.2645 13.6227ZM59.0636 59.1447L53.679 64.5302L58.6094 69.4619L63.5397 74.3934L63.2446 76.158C61.98 83.7193 66.9138 91.1973 74.5393 93.2771C76.5006 93.8121 80.2732 93.8121 82.2345 93.2771C87.5638 91.8235 91.8337 87.5543 93.2876 82.226C93.8226 80.2651 93.8226 76.4931 93.2876 74.5322C91.2073 66.9081 83.728 61.9752 76.1654 63.2395L74.4005 63.5346L69.5098 58.6469C66.8199 55.9587 64.5805 53.7591 64.5336 53.7591C64.4866 53.7591 62.0252 56.1827 59.0636 59.1447ZM81.177 70.7038C81.3824 70.808 82.6873 72.0196 84.0767 73.3967C86.7235 76.0195 87.0867 76.5793 86.8338 77.6462C86.3178 79.8226 85.2154 83.7186 84.995 84.145C84.5789 84.9494 83.8655 85.2726 80.5547 86.1561C76.1974 87.3189 76.5803 87.4241 73.3162 84.1679C71.2126 82.0696 70.647 81.4055 70.4997 80.8622C70.3366 80.2593 70.4079 79.8327 71.129 77.1008C72.0345 73.6709 72.3379 72.9304 73.0205 72.483C73.6113 72.0961 79.2782 70.5402 80.151 70.5255C80.5097 70.5194 80.9714 70.5995 81.177 70.7038Z" fill="white"/>
</svg>
