<svg width="100" height="100" viewBox="0 0 100 100" fill="none" xmlns="http://www.w3.org/2000/svg">
<path fill-rule="evenodd" clip-rule="evenodd" d="M40.4101 0.300627C39.5523 0.723647 38.9643 1.59296 38.866 2.5845C38.7528 3.72292 41.0022 16.3875 41.4347 17.0478C41.8047 17.6126 43.184 18.3591 43.8574 18.3591C45.0656 18.3591 46.5028 17.1563 46.7267 15.9576C46.9074 14.9909 44.5854 1.97941 44.12 1.35065C43.1699 0.0671155 41.7177 -0.343975 40.4101 0.300627ZM57.4121 0.77254C56.6659 0.930366 55.7414 1.73846 55.4452 2.4918C55.3337 2.77499 54.7614 5.79695 54.1732 9.20712C53.0114 15.944 53.0047 16.2134 53.971 17.362C55.2389 18.8691 57.9889 18.4621 58.7169 16.6597C59.089 15.7388 61.1282 3.63198 61.0113 3.03921C60.7 1.46193 59.0538 0.42501 57.4121 0.77254ZM72.3374 6.69462C72.0148 6.84384 71.5615 7.17534 71.3302 7.43114C71.0991 7.68675 69.5262 10.2965 67.835 13.2302C64.4756 19.0582 64.2648 19.6217 64.964 20.9015C65.7997 22.4312 67.7422 22.9526 69.131 22.02C70.1165 21.3581 76.3377 10.5603 76.3426 9.50322C76.3523 7.33238 74.2083 5.82903 72.3374 6.69462ZM15.1472 11.9044C9.39578 13.0659 4.41434 14.1646 4.07743 14.3459C2.91498 14.9722 2.27148 16.8972 2.84596 18.0297C2.96523 18.2646 4.14665 19.5569 5.4716 20.9015L7.88078 23.3461L7.09688 24.6173C4.39889 28.9926 1.95823 35.1934 0.900386 40.3608C0.153248 44.0111 -0.00552596 45.7523 0.000144548 50.2371C0.00659719 55.3177 0.290709 57.6624 1.45903 62.2774C2.41207 66.0428 3.27848 68.383 5.08346 72.0671C9.92314 81.945 18.0433 90.0614 27.951 94.9247C31.6068 96.7188 33.9518 97.5874 37.7151 98.5402C42.358 99.716 44.6659 99.9935 49.8509 99.9999C56.8321 100.009 62.0773 99.0493 68.1334 96.6559C79.7214 92.0764 89.3661 83.1875 94.8135 72.0671C97.9667 65.6299 99.6219 59.2281 99.9397 52.2392C100.054 49.7361 100.033 49.4928 99.6401 48.7228C98.9084 47.2885 98.2939 47.108 94.1395 47.108C90.9822 47.108 90.5218 47.15 89.8327 47.5017C88.7979 48.0297 88.2735 49.0719 88.2735 50.5997C88.2735 52.3291 87.9125 55.5232 87.4769 57.6473C85.4249 67.6541 79.3773 76.4777 70.6754 82.1609C54.5375 92.7008 33.1726 89.4806 20.694 74.6275C15.1025 67.9721 12.0642 60.1704 11.691 51.5083C11.4471 45.852 12.5329 40.4238 15.0352 34.787C16.4675 31.5607 16.1802 31.6303 18.5198 33.9414C19.6203 35.0284 20.7129 36.0152 20.9478 36.1347C22.05 36.6946 23.9404 36.0923 24.6033 34.9701C24.9032 34.462 29.222 13.5521 29.222 12.6075C29.222 12.3967 29.0408 11.8497 28.8192 11.392C28.3703 10.4646 27.1869 9.73927 26.1783 9.7733C25.8627 9.78386 20.8989 10.7429 15.1472 11.9044ZM84.626 17.2414C83.6978 17.7651 74.7294 25.4757 74.3778 26.0524C73.2883 27.8398 74.731 30.2889 76.8734 30.2889C77.3468 30.2889 77.9716 30.1616 78.2621 30.0059C79.1811 29.5132 87.9464 22.0068 88.4133 21.3126C89.6266 19.508 88.1818 16.9797 85.947 16.9969C85.4521 17.0008 84.8577 17.1107 84.626 17.2414ZM87.6869 33.1925C84.5143 34.354 81.7268 35.4078 81.4924 35.5343C80.8291 35.8918 80.2642 36.8223 80.1455 37.7528C79.939 39.3716 81.2675 40.8497 82.9286 40.8497C84.1776 40.8497 95.3544 36.7678 96.1238 36.0305C97.927 34.3026 96.6039 31.0575 94.1036 31.0759C93.7469 31.0786 90.8594 32.031 87.6869 33.1925ZM39.0965 35.6516C37.4501 36.0637 36.2177 36.7674 34.9762 38.0044C33.3312 39.6436 32.3506 41.9179 32.3506 44.094C32.3506 45.66 33.7596 47.108 35.2836 47.108C36.2538 47.108 37.3803 46.4162 37.823 45.5485C38.0395 45.1241 38.2166 44.5057 38.2166 44.1744C38.2166 43.2363 38.8678 42.1688 39.7385 41.6793C40.704 41.1366 41.5217 41.1235 42.5235 41.6345C43.9618 42.3685 44.4243 44.1126 43.771 46.339C43.3754 47.6871 42.1252 48.9405 39.7062 50.4143C34.6569 53.4908 32.77 56.1551 32.4206 60.7006C32.315 62.0746 32.3533 62.3836 32.7188 63.0998C32.9974 63.6462 33.3967 64.0538 33.9098 64.3157C34.6372 64.6867 35.0529 64.7094 41.1496 64.7094C47.2464 64.7094 47.6621 64.6867 48.3895 64.3157C49.2571 63.8729 49.9487 62.7462 49.9487 61.7758C49.9487 60.8967 49.2575 59.6844 48.5291 59.2864C47.9908 58.992 47.2052 58.9254 43.3054 58.8422L38.715 58.7445L39.4401 57.9422C40.1886 57.114 40.3151 57.0207 43.5938 54.8722C47.8223 52.1015 49.5565 49.4527 49.8762 45.2765C50.1026 42.3167 49.2768 39.9685 47.3176 37.9999C45.1125 35.7842 42.0557 34.9112 39.0965 35.6516ZM57.3595 35.7631C56.9721 35.9679 56.5239 36.3381 56.3632 36.5857C55.9319 37.2506 49.9487 55.327 49.9487 55.9654C49.9487 56.8836 50.6595 58.0156 51.5079 58.4486C52.2179 58.8108 52.6549 58.8422 56.9801 58.8422H61.6808V60.6102C61.6808 61.996 61.7658 62.5448 62.0744 63.1499C62.5171 64.0176 63.6436 64.7094 64.6138 64.7094C65.584 64.7094 66.7105 64.0176 67.1532 63.1499C67.4618 62.5448 67.5468 61.996 67.5468 60.6102V58.8422H69.3145C70.7 58.8422 71.2487 58.7572 71.8537 58.4486C72.7213 58.0058 73.4129 56.8791 73.4129 55.9087C73.4129 54.9383 72.7213 53.8116 71.8537 53.3688C71.2487 53.0602 70.7 52.9751 69.3145 52.9751H67.5468V48.2736C67.5468 43.9476 67.5153 43.5105 67.1532 42.8003C66.7105 41.9326 65.584 41.2409 64.6138 41.2409C63.6436 41.2409 62.5171 41.9326 62.0744 42.8003C61.7123 43.5105 61.6808 43.9476 61.6808 48.2736V52.9751H59.3344C58.0438 52.9751 56.9879 52.9516 56.9879 52.9231C56.9879 52.8945 58.0438 49.7058 59.3344 45.8368C60.6249 41.9678 61.6794 38.5369 61.6777 38.2126C61.673 37.3666 60.9129 36.1586 60.1196 35.7363C59.2569 35.2771 58.2603 35.2869 57.3595 35.7631Z" fill="white"/>
</svg>
