<svg width="100" height="100" viewBox="0 0 100 100" fill="none" xmlns="http://www.w3.org/2000/svg">
<path fill-rule="evenodd" clip-rule="evenodd" d="M10.022 6.46829C8.37892 6.98709 7.02553 8.10326 6.29693 9.54047C6.02442 10.0778 4.58873 15.4074 2.87173 22.2542C0.0089541 33.6714 -0.0807763 34.0902 0.026353 35.5528C0.584676 43.185 6.52566 49.3835 13.7755 49.8978C18.0389 50.2003 22.1278 48.5964 25.2215 45.408L26.541 44.0479L27.8606 45.4056C33.7453 51.4597 42.7958 51.4597 48.6804 45.4056L50 44.0479L51.3196 45.4056C57.2042 51.4597 66.2547 51.4597 72.1394 45.4056L73.459 44.0479L74.7785 45.408C77.8722 48.5964 81.9611 50.2003 86.2245 49.8978C93.4743 49.3835 99.4153 43.185 99.9736 35.5528C100.081 34.0902 99.991 33.6714 97.1283 22.2542C95.4113 15.4074 93.9756 10.0778 93.7031 9.54047C93.1385 8.42666 91.9165 7.28118 90.6861 6.71255L89.7825 6.29496L50.2932 6.25823C18.9376 6.22911 10.6429 6.2723 10.022 6.46829ZM25.2703 53.3282C23.9965 54.1319 21.4843 55.1537 19.5948 55.6367C15.7382 56.6227 10.6454 56.1975 6.93893 54.5803L6.20173 54.2587L6.25471 71.6053L6.30769 88.952L6.81987 90.0435C7.47086 91.4311 8.51928 92.4791 9.90746 93.1298L10.9995 93.6417L24.244 93.6959L37.4886 93.75V81.2387V68.7274H50H62.5114V81.2387V93.75L75.756 93.6959L89.0005 93.6417L90.0925 93.1298C91.4807 92.4791 92.5291 91.4311 93.1801 90.0435L93.6923 88.952L93.7453 71.6053L93.7983 54.2587L93.0611 54.5803C90.4779 55.7074 86.6323 56.3531 83.7201 56.1485C80.7287 55.9382 77.2415 54.8539 74.811 53.378C74.2005 53.0073 73.5954 52.704 73.4662 52.704C73.3372 52.704 72.7329 52.9962 72.1234 53.3532C66.0186 56.9289 57.4404 56.9289 51.3356 53.3532C50.7261 52.9962 50.1251 52.704 50 52.704C49.8749 52.704 49.2739 52.9962 48.6644 53.3532C42.5596 56.9289 33.9814 56.9289 27.8766 53.3532C27.2671 52.9962 26.6513 52.7058 26.5082 52.7078C26.3649 52.7097 25.8079 52.989 25.2703 53.3282Z" fill="white"/>
</svg>
