<svg width="100" height="100" viewBox="0 0 100 100" fill="none" xmlns="http://www.w3.org/2000/svg">
<path fill-rule="evenodd" clip-rule="evenodd" d="M76.2742 0.107623C75.9518 0.148069 75.0505 0.317508 74.2711 0.484198L72.8542 0.787344V3.20387V5.62019L71.1442 6.44402C70.2038 6.89717 68.9681 7.62106 68.3986 8.05281L67.363 8.83777L65.2735 7.65464L63.1842 6.47151L62.6245 7.0028C61.1306 8.42134 59.1855 11.4809 58.2042 13.9561C57.1473 16.6218 57.0784 16.404 59.4024 17.7393L61.4216 18.8993V22.175V25.4509L59.4212 26.604C58.3209 27.2381 57.4196 27.865 57.418 27.9968C57.4125 28.4711 58.5922 31.4627 59.2873 32.7379C60.1337 34.2902 61.6197 36.3397 62.5566 37.2468L63.2328 37.9012L65.2893 36.6961L67.3458 35.4908L68.39 36.2899C68.9644 36.7295 70.2038 37.4632 71.1442 37.9203L72.8542 38.7515V41.1359C72.8542 43.8897 72.6355 43.6256 75.2721 44.0554C77.5631 44.4286 79.9735 44.4257 82.1604 44.047C84.8358 43.5836 84.58 43.8936 84.58 41.1166V38.6974L86.0772 37.9831C86.9007 37.5902 88.1296 36.8708 88.8081 36.3843L90.0417 35.5L92.1072 36.7106L94.1729 37.921L94.6726 37.453C96.3707 35.8622 98.9742 31.427 99.7035 28.8824L100 27.8481L99.2765 27.3989C98.8788 27.1519 97.9816 26.6179 97.2829 26.2123L96.0126 25.475V22.1744V18.8738L97.835 17.8179C98.8374 17.2373 99.7457 16.7085 99.8534 16.643C100.091 16.4983 99.2452 13.9341 98.4027 12.2464C97.6597 10.7581 96.202 8.60452 95.0918 7.35503L94.2346 6.39042L92.1496 7.61478L90.0645 8.83934L88.8056 7.93677C88.1132 7.44043 86.8792 6.72439 86.0633 6.34566L84.58 5.6571V3.22841V0.799713L83.6517 0.583153C81.3984 0.0573609 78.2792 -0.143689 76.2742 0.107623ZM81.16 14.4365C83.6263 15.1844 85.5951 17.1776 86.435 19.7767C86.951 21.3737 86.7803 24.0547 86.0678 25.5479C83.5816 30.7571 76.892 31.9384 72.9076 27.8719C69.7119 24.6103 69.8088 19.4604 73.1251 16.3098C75.3571 14.1891 78.1768 13.5318 81.16 14.4365ZM40.4809 28.7629C39.7474 30.7787 38.6001 33.6733 38.494 33.776C38.4209 33.8468 36.7449 33.9352 34.7698 33.9723L31.1788 34.0398L30.0129 31.3893C29.3715 29.9315 28.8329 28.725 28.8159 28.7083C28.7987 28.6916 27.9675 28.886 26.9685 29.1404C24.484 29.773 22.1449 30.6556 19.6399 31.9053C17.7155 32.8653 14.3515 34.952 14.119 35.3298C14.0664 35.4154 14.5464 36.6729 15.1854 38.1244L16.3477 40.7634L14.3429 42.8008C13.2403 43.9215 12.1231 45.1254 11.86 45.4763L11.3818 46.1142L9.82324 45.5083C8.96608 45.1749 7.71143 44.6917 7.03524 44.4343L5.80579 43.9665L5.01489 45.1877C3.08482 48.1679 1.15632 53.0879 0.351737 57.0845C0.126211 58.2047 -0.029937 59.1496 0.00484946 59.1844C0.0394405 59.2193 1.28921 59.7241 2.78191 60.3064L5.49584 61.3651L5.46457 63.802C5.44737 65.1424 5.50385 66.7848 5.59004 67.4516L5.74658 68.6639L3.19485 69.7909C1.79127 70.4108 0.562411 70.9888 0.463914 71.0752C0.00289517 71.4802 1.82762 77.1648 3.48076 80.4736C4.4757 82.4647 6.68777 85.9711 6.94925 85.9711C7.03583 85.9711 8.27915 85.438 9.71224 84.7868L12.3177 83.6023L13.809 85.1461C14.6291 85.9952 15.8198 87.1311 16.4551 87.67L17.6101 88.6501L16.6017 91.2885C16.0471 92.7398 15.5933 94.019 15.5933 94.1313C15.5933 94.68 20.9903 97.4517 24.1707 98.5363C26.3486 99.2792 30.4528 100.186 30.6488 99.9668C30.7248 99.8822 31.2425 98.6201 31.7991 97.1623L32.8111 94.5118H35.2928C36.6577 94.5118 38.295 94.4676 38.9311 94.4136L40.0877 94.3154L41.2222 96.8678C41.8462 98.2716 42.3869 99.5046 42.424 99.6077C42.5122 99.8523 45.8544 98.9692 48.3413 98.0441C51.5469 96.8519 57.2198 93.6029 57.2198 92.9595C57.2198 92.8213 56.7111 91.5736 56.0895 90.1868L54.9593 87.6655L56.5665 86.1152C57.4506 85.2625 58.5415 84.0861 58.991 83.501C59.4403 82.9157 59.899 82.437 60.0104 82.437C60.1218 82.437 61.3942 82.897 62.8381 83.4592L65.4633 84.4811L65.8293 83.9991C66.576 83.0154 68.2292 79.8234 69.075 77.7316C69.9443 75.5817 70.9675 71.9249 71.2021 70.1292L71.3256 69.1842L68.793 68.23C67.4002 67.705 66.1733 67.2191 66.0664 67.1502C65.9554 67.0783 65.8315 65.4701 65.7767 63.3923L65.681 59.76L66.8737 59.2231C67.5295 58.9278 68.7375 58.3823 69.5581 58.0113L71.05 57.3365L70.7682 56.094C69.8972 52.2537 67.9317 47.6875 65.6517 44.2066L64.4662 42.3967L62.2598 43.3922C58.6607 45.0159 59.103 45.0047 57.7256 43.5068C56.5753 42.256 54.999 40.8054 54.109 40.1793L53.6777 39.8758L54.7547 37.0703C55.7459 34.4885 55.8053 34.245 55.4999 34.0161C54.4739 33.2472 51.0411 31.4423 49.147 30.6756C46.899 29.7658 43.385 28.7637 41.6154 28.5279C40.7453 28.4118 40.5976 28.4425 40.4809 28.7629ZM39.9859 48.4626C46.7061 50.3865 51.4353 56.3088 51.8836 63.3624C52.5129 73.2616 43.8128 81.5384 33.9197 80.4522C28.3756 79.8434 23.6833 76.5655 21.1627 71.5403C19.9477 69.1181 19.4726 67.1618 19.4464 64.4721C19.368 56.4755 24.7126 49.8466 32.5957 48.163C34.3911 47.7795 38.1297 47.9311 39.9859 48.4626Z" fill="white"/>
</svg>
