<svg width="100" height="100" viewBox="0 0 100 100" fill="none" xmlns="http://www.w3.org/2000/svg">
<path fill-rule="evenodd" clip-rule="evenodd" d="M25.1992 0.355032C24.2854 0.813958 23.684 1.77184 23.5377 3.00079C23.4711 3.55931 23.4434 13.1997 23.476 24.4238C23.534 44.4249 23.543 44.8446 23.9258 45.4943C24.1406 45.8591 24.5645 46.3425 24.8678 46.5684L25.4193 46.9795H50H74.5807L75.1322 46.5684C75.4355 46.3425 75.8594 45.8591 76.0742 45.4943C76.4584 44.8423 76.4648 44.4802 76.4648 23.545C76.4648 2.60982 76.4584 2.24776 76.0742 1.59569C75.8594 1.2309 75.4355 0.74756 75.1324 0.521612C74.5971 0.122445 74.3596 0.10897 66.8805 0.0552663L59.1797 0V7.78904C59.1797 18.5039 60.0375 17.5882 50 17.5882C42.2652 17.5882 42.1516 17.5706 41.2637 16.2417C40.8213 15.5794 40.8203 15.5615 40.8203 7.79548V0.012889L33.3496 0.0132795C26.627 0.0134748 25.8109 0.0476501 25.1992 0.355032ZM46.4844 5.87151V11.7301H50H53.5156V5.87151V0.012889H50H46.4844V5.87151ZM65.0352 33.7492C66.0109 34.2391 66.6016 35.215 66.6016 36.3363C66.6016 37.4577 66.0109 38.4335 65.0352 38.9235C64.4633 39.2108 63.7975 39.2651 60.8398 39.2651C56.8848 39.2651 56.3268 39.1237 55.5215 37.9186C54.5924 36.5279 55.1367 34.5065 56.6445 33.7492C57.6496 33.2442 64.0301 33.2442 65.0352 33.7492ZM1.51582 53.3384C1.06953 53.5742 0.632812 54.0233 0.392773 54.4938C0.00644529 55.2511 0 55.6102 0 76.4679C0 97.3339 0.00625001 97.6845 0.393164 98.4428C0.646289 98.939 1.06113 99.3538 1.55742 99.6069C2.3166 99.9941 2.66387 100 24.6992 100H47.0703V76.4679V52.9358H39.9414H32.8125V60.5598C32.8125 67.8153 32.7936 68.2209 32.4193 68.9544C32.1662 69.4506 31.7514 69.8654 31.2551 70.1185C30.5252 70.4907 30.1145 70.5116 23.5207 70.5116C16.6684 70.5116 16.5447 70.5046 15.7779 70.0738C14.2607 69.2212 14.2578 69.2032 14.2578 60.5598V52.9358L8.25195 52.9444C2.65879 52.9524 2.1959 52.9795 1.51582 53.3384ZM20.1172 58.7944V64.653H23.5352H26.9531V58.7944V52.9358H23.5352H20.1172V58.7944ZM52.9297 76.4679V100H75.3008C97.3361 100 97.6834 99.9941 98.4426 99.6069C98.9389 99.3538 99.3537 98.939 99.6068 98.4428C99.9938 97.6845 100 97.3339 100 76.4679C100 55.6018 99.9938 55.2513 99.6068 54.493C99.3537 53.9968 98.9389 53.582 98.4426 53.3289C97.7199 52.9604 97.2996 52.9358 91.707 52.9358H85.7422V60.5598C85.7422 67.8153 85.7232 68.2209 85.349 68.9544C85.0959 69.4506 84.6811 69.8654 84.1848 70.1185C83.4549 70.4907 83.0441 70.5116 76.4504 70.5116C69.598 70.5116 69.4744 70.5046 68.7076 70.0738C67.1904 69.2212 67.1875 69.2032 67.1875 60.5598V52.9358H60.0586H52.9297V76.4679ZM73.0469 58.7944V64.653H76.4648H79.8828V58.7944V52.9358H76.4648H73.0469V58.7944ZM38.677 86.723C39.5436 87.1651 40.2344 88.2902 40.2344 89.2592C40.2344 90.2282 39.5436 91.3533 38.677 91.7954C37.9883 92.1467 37.5287 92.1885 34.3605 92.1885C31.0492 92.1885 30.7635 92.1596 30.0357 91.7507C28.0701 90.6461 28.0502 87.973 29.9986 86.7937C30.727 86.3529 30.9242 86.3318 34.334 86.3309C37.5299 86.3301 37.9873 86.3713 38.677 86.723ZM91.6066 86.723C92.4732 87.1651 93.1641 88.2902 93.1641 89.2592C93.1641 90.2282 92.4732 91.3533 91.6066 91.7954C90.918 92.1467 90.4584 92.1885 87.2902 92.1885C83.9789 92.1885 83.6932 92.1596 82.9654 91.7507C80.9998 90.6461 80.9799 87.973 82.9283 86.7937C83.6566 86.3529 83.8539 86.3318 87.2637 86.3309C90.4596 86.3301 90.917 86.3713 91.6066 86.723Z" fill="white"/>
</svg>
