<svg width="100" height="100" viewBox="0 0 100 100" fill="none" xmlns="http://www.w3.org/2000/svg">
<path fill-rule="evenodd" clip-rule="evenodd" d="M7.26627 5.15548C5.4914 7.99101 4.03935 10.3594 4.03935 10.4186C4.03935 10.4779 6.216 10.5263 8.87644 10.5263H13.7135L16.3542 5.26316L18.9948 0H14.744H10.4932L7.26627 5.15548ZM20.3125 5.26316L17.6719 10.5263H22.6774H27.6829L29.6053 5.40943C30.6627 2.59496 31.5278 0.226535 31.5278 0.146272C31.5278 0.0657894 29.5985 0 27.2405 0H22.9531L20.3125 5.26316ZM33.4502 5.11689C32.3929 7.93136 31.5278 10.2998 31.5278 10.38C31.5278 10.4605 33.7455 10.5263 36.4563 10.5263H41.3849L41.5129 9.70395C41.5833 9.25175 41.8399 7.25329 42.0833 5.26316C42.3268 3.27303 42.5834 1.27478 42.6538 0.822368L42.7818 0H39.0772H35.3726L33.4502 5.11689ZM46.1723 0.822368C46.1019 1.27478 45.8453 3.27303 45.6018 5.26316C45.3584 7.25329 45.1018 9.25175 45.0314 9.70395L44.9034 10.5263H50H55.0966L54.9686 9.70395C54.8982 9.25175 54.6416 7.25329 54.3981 5.26316C54.1547 3.27303 53.8981 1.27478 53.8277 0.822368L53.6997 0H50H46.3003L46.1723 0.822368ZM57.3462 0.822368C57.4166 1.27478 57.6732 3.27303 57.9167 5.26316C58.1601 7.25329 58.4167 9.25175 58.4871 9.70395L58.6151 10.5263H63.5437C66.2545 10.5263 68.4722 10.4605 68.4722 10.38C68.4722 10.2998 67.6071 7.93136 66.5498 5.11689L64.6274 0H60.9228H57.2182L57.3462 0.822368ZM68.4722 0.146272C68.4722 0.226535 69.3373 2.59496 70.3947 5.40943L72.3171 10.5263H77.3226H82.3281L79.6875 5.26316L77.0469 0H72.7595C70.4015 0 68.4722 0.0657894 68.4722 0.146272ZM83.6458 5.26316L86.2865 10.5263H91.1236C93.784 10.5263 95.9606 10.4779 95.9606 10.4186C95.9606 10.3594 94.5086 7.99101 92.7337 5.15548L89.5068 0H85.256H81.0052L83.6458 5.26316ZM2.5 15.2706C2.5 17.1741 2.89539 18.1724 4.14183 19.4153C6.39258 21.6599 9.49833 21.6121 11.582 19.3009C12.6681 18.0963 13.0556 17.0364 13.0556 15.2706V14.0351H7.77778H2.5V15.2706ZM16.5741 15.2706C16.5741 17.1741 16.9695 18.1724 18.2159 19.4153C20.4667 21.6599 23.5724 21.6121 25.656 19.3009C26.7421 18.0963 27.1296 17.0364 27.1296 15.2706V14.0351H21.8519H16.5741V15.2706ZM30.6481 15.2706C30.6481 17.1741 31.0435 18.1724 32.29 19.4153C34.5407 21.6599 37.6465 21.6121 39.7301 19.3009C40.8162 18.0963 41.2037 17.0364 41.2037 15.2706V14.0351H35.9259H30.6481V15.2706ZM44.7222 15.2706C44.7222 17.1741 45.1176 18.1724 46.3641 19.4153C48.6148 21.6599 51.7206 21.6121 53.8042 19.3009C54.8903 18.0963 55.2778 17.0364 55.2778 15.2706V14.0351H50H44.7222V15.2706ZM58.7963 15.2706C58.7963 17.1741 59.1917 18.1724 60.4381 19.4153C62.6889 21.6599 65.7946 21.6121 67.8783 19.3009C68.9644 18.0963 69.3518 17.0364 69.3518 15.2706V14.0351H64.0741H58.7963V15.2706ZM72.8704 15.2706C72.8704 15.9502 72.9907 16.9123 73.1378 17.4088C73.4947 18.6134 75.3164 20.43 76.5243 20.786C78.5862 21.3934 80.23 20.9651 81.7841 19.4153C83.0305 18.1724 83.4259 17.1741 83.4259 15.2706V14.0351H78.1481H72.8704V15.2706ZM86.9444 15.2706C86.9444 17.1741 87.3398 18.1724 88.5863 19.4153C90.837 21.6599 93.9428 21.6121 96.0264 19.3009C97.1125 18.0963 97.5 17.0364 97.5 15.2706V14.0351H92.2222H86.9444V15.2706ZM14.8148 45.6515V70.1754H50H85.1852V45.6515V21.1279L84.1646 22.1031C83.6032 22.6395 82.4898 23.3875 81.6906 23.7651C80.3795 24.3846 80.0327 24.4518 78.1481 24.4518C76.2635 24.4518 75.9167 24.3846 74.6057 23.7651C73.8065 23.3875 72.6931 22.6395 72.1317 22.1031L71.1111 21.1279L70.0905 22.1031C69.5291 22.6395 68.4157 23.3875 67.6166 23.7651C66.3055 24.3846 65.9587 24.4518 64.0741 24.4518C62.1895 24.4518 61.8427 24.3846 60.5316 23.7651C59.7324 23.3875 58.619 22.6395 58.0576 22.1031L57.037 21.1279L56.0164 22.1031C55.455 22.6395 54.3416 23.3875 53.5425 23.7651C52.2314 24.3846 51.8846 24.4518 50 24.4518C48.1154 24.4518 47.7686 24.3846 46.4575 23.7651C45.6584 23.3875 44.545 22.6395 43.9836 22.1031L42.963 21.1279L41.9424 22.1031C41.3809 22.6395 40.2676 23.3875 39.4684 23.7651C38.1573 24.3846 37.8105 24.4518 35.9259 24.4518C34.0413 24.4518 33.6945 24.3846 32.3834 23.7651C31.5843 23.3875 30.4709 22.6395 29.9095 22.1031L28.8889 21.1279L27.8683 22.1031C27.3069 22.6395 26.1935 23.3875 25.3943 23.7651C24.0832 24.3846 23.7365 24.4518 21.8519 24.4518C19.9672 24.4518 19.6205 24.3846 18.3094 23.7651C17.5102 23.3875 16.3968 22.6395 15.8354 22.1031L14.8148 21.1279V45.6515ZM9.97685 24.2434C9.43258 24.3989 8.71524 24.534 8.38252 24.5439L7.77778 24.5614V50.3583C7.77778 69.9715 7.84199 76.3717 8.04519 77.0579C8.4021 78.2625 10.2238 80.0792 11.4318 80.4351C12.7457 80.8221 87.2543 80.8221 88.5682 80.4351C89.7762 80.0792 91.5979 78.2625 91.9548 77.0579C92.158 76.3717 92.2222 50.4029 92.2222 50.4029V24.6504L90.8478 24.4086C90.092 24.2757 89.3001 24.0969 89.0885 24.0116C88.7235 23.8645 88.7037 25.1044 88.7037 48.232V72.6077L88.1638 73.1458L87.6242 73.6842H50H12.3758L11.8362 73.1458L11.2963 72.6077V48.2555C11.2963 34.8618 11.222 23.9164 11.1314 23.9322C11.0408 23.9478 10.5211 24.0879 9.97685 24.2434ZM52.9786 75.977C53.3191 76.3162 53.5185 76.7658 53.5185 77.193C53.5185 77.6202 53.3191 78.0697 52.9786 78.409C52.4704 78.9158 52.2963 78.9474 50 78.9474C47.7037 78.9474 47.5296 78.9158 47.0214 78.409C46.6809 78.0697 46.4815 77.6202 46.4815 77.193C46.4815 76.7658 46.6809 76.3162 47.0214 75.977C47.5296 75.4702 47.7037 75.4386 50 75.4386C52.2963 75.4386 52.4704 75.4702 52.9786 75.977ZM42.963 87.7193V91.2281H50H57.037V87.7193V84.2105H50H42.963V87.7193ZM27.6695 95.2752C27.1716 95.7715 27.1296 95.9765 27.1296 97.9068V100H50H72.8704V97.9068C72.8704 95.9765 72.8284 95.7715 72.3305 95.2752L71.7908 94.7368H50H28.2092L27.6695 95.2752Z" fill="white"/>
<path fill-rule="evenodd" clip-rule="evenodd" d="M35.0902 30.207C35.6749 30.3322 36.5488 30.7312 37.0319 31.094C37.9547 31.7865 39.0589 33.6377 39.0589 34.4919V34.9709L52.4408 35.0274L65.8227 35.084L66.3266 35.6687C66.6037 35.9901 66.8304 36.415 66.8304 36.6127C66.8304 36.9992 62.682 48.0869 62.1619 49.0903C61.6895 50.0016 60.5952 50.9775 59.6426 51.3367C58.9116 51.6125 57.4081 51.6498 48.9998 51.6007L39.2082 51.5436L38.8269 51.0227C38.5583 50.656 38.0173 48.151 36.9985 42.5585C36.2028 38.1897 35.4423 34.4113 35.3089 34.1625C34.9679 33.5266 34.2575 33.3131 32.4828 33.3131C31.0709 33.3131 30.9103 33.2683 30.5129 32.7641C30.2749 32.4622 30.0801 32.0142 30.0801 31.7688C30.0801 31.1919 30.6288 30.4156 31.1987 30.1862C31.8362 29.9293 33.843 29.9401 35.0902 30.207ZM39.7905 38.9906C39.8586 39.3629 40.2645 41.5897 40.6922 43.9389L41.47 48.21L49.948 48.2644C57.7863 48.3148 58.4589 48.291 58.86 47.9519C59.1231 47.7295 59.9558 45.8144 60.9742 43.0892C61.8982 40.6167 62.6542 38.5305 62.6542 38.4535C62.6542 38.3766 57.482 38.3134 51.1604 38.3134H39.6663L39.7905 38.9906ZM44.9857 53.5679C46.7802 54.0969 48.4552 56.3887 48.4552 58.3149C48.4552 60.2411 46.7802 62.5329 44.9857 63.0619C43.0279 63.639 41.467 63.2321 39.9914 61.7597C37.8789 59.6519 37.8789 56.9802 39.9914 54.8678C41.4562 53.4031 43.0339 52.9924 44.9857 53.5679ZM58.3494 53.5679C60.1439 54.0969 61.819 56.3887 61.819 58.3149C61.819 60.8966 59.3949 63.3153 56.8076 63.3153C55.4942 63.3153 54.4366 62.8388 53.3552 61.7597C51.2426 59.6519 51.2426 56.9802 53.3552 54.8678C54.8199 53.4031 56.3977 52.9924 58.3494 53.5679ZM42.286 57.1596C41.2501 58.193 41.9841 59.9817 43.4438 59.9817C44.3023 59.9817 45.1143 59.1714 45.1143 58.3149C45.1143 57.4584 44.3023 56.6481 43.4438 56.6481C43.0371 56.6481 42.609 56.8371 42.286 57.1596ZM55.6498 57.1596C55.3265 57.4819 55.1371 57.909 55.1371 58.3149C55.1371 58.7208 55.3265 59.1479 55.6498 59.4702C55.9728 59.7927 56.4008 59.9817 56.8076 59.9817C57.2144 59.9817 57.6424 59.7927 57.9654 59.4702C58.2887 59.1479 58.4781 58.7208 58.4781 58.3149C58.4781 57.909 58.2887 57.4819 57.9654 57.1596C57.6424 56.8371 57.2144 56.6481 56.8076 56.6481C56.4008 56.6481 55.9728 56.8371 55.6498 57.1596Z" fill="url(#paint0_linear_10_7053)" fill-opacity="0.8"/>
<defs>
<linearGradient id="paint0_linear_10_7053" x1="48.4552" y1="30" x2="48.4552" y2="63.3153" gradientUnits="userSpaceOnUse">
<stop stop-color="#161717"/>
<stop offset="1" stop-color="#0E1010"/>
</linearGradient>
</defs>
</svg>
