<svg width="100" height="100" viewBox="0 0 100 100" fill="none" xmlns="http://www.w3.org/2000/svg">
<path fill-rule="evenodd" clip-rule="evenodd" d="M26.5093 94.1794V90.8586L25.6787 90.6486C24.3312 90.3079 21.9859 89.4629 20.9942 88.961C20.4872 88.7043 19.9861 88.4942 19.8805 88.4942C19.775 88.4942 18.8041 89.5465 17.7231 90.8326C16.6422 92.1187 15.6839 93.2164 15.5938 93.2722C15.5037 93.328 13.899 92.0875 12.0278 90.5154C10.1563 88.9433 8.37766 87.4498 8.0749 87.1964L7.5247 86.736L9.60882 84.2821C10.9399 82.7151 11.6525 81.7225 11.581 81.5355C11.5192 81.3744 11.1197 80.7279 10.6932 80.0989C10.2667 79.4699 9.54882 78.2161 9.09791 77.313C8.64699 76.4099 8.25198 75.6401 8.22032 75.6023C8.18866 75.5647 6.7507 75.7787 5.02484 76.0778C3.29899 76.377 1.84539 76.5802 1.79458 76.5295C1.67183 76.4065 -0.0827584 66.5123 0.00304583 66.4264C0.0395957 66.3896 1.42302 66.1278 3.07695 65.8445C4.73108 65.5612 6.15261 65.2709 6.23588 65.1994C6.31914 65.128 6.47472 64.2832 6.58163 63.3221C6.68855 62.3611 6.95769 60.8409 7.17972 59.9436C7.40195 59.0465 7.52509 58.2537 7.45336 58.1816C7.38182 58.1098 6.16493 57.3766 4.74925 56.5525C3.33358 55.7285 2.17532 54.9356 2.17532 54.7905C2.17532 54.4385 7.01691 46.0177 7.22175 46.0136C7.30989 46.0119 8.61259 46.7251 10.1166 47.5983L12.8512 49.1862L14.2565 47.8312C15.0293 47.0861 16.2603 46.0518 16.9923 45.533C17.9746 44.8364 18.2899 44.5065 18.1975 44.2722C17.201 41.7484 16.1405 38.5073 16.273 38.3918C16.3668 38.3102 18.4664 37.5124 20.9389 36.6191C23.4114 35.7257 25.5297 34.9587 25.6464 34.9144C25.7684 34.8682 26.3326 36.1515 26.9733 37.9321L28.0882 41.0303L29.9067 40.8837C30.9068 40.803 32.4932 40.8046 33.4315 40.887C34.8767 41.0139 35.1613 40.9904 35.2903 40.7337C35.3741 40.5671 35.8657 39.2415 36.3829 37.7878C36.9001 36.3342 37.3758 35.0822 37.4401 35.0057C37.5398 34.8866 46.9044 38.1821 47.1416 38.4196C47.1882 38.4662 46.7437 39.8188 46.154 41.4254C45.5643 43.0319 45.0837 44.4345 45.0859 44.5422C45.088 44.6498 45.6368 45.1072 46.3053 45.5583C46.9737 46.0095 48.1938 47.0002 49.0166 47.7598L50.5124 49.1408L53.2826 47.5515C54.8552 46.6493 56.1259 46.0362 56.222 46.1333C56.4083 46.3216 61.3001 54.7557 61.3001 54.8886C61.3001 54.9342 60.023 55.7064 58.4623 56.6048C56.3452 57.8233 55.6537 58.3138 55.7397 58.536C56.0827 59.4234 56.6255 62.1735 56.7361 63.5851C56.8483 65.0168 56.9104 65.2145 57.2736 65.2964C57.7354 65.4001 63.1726 66.3714 63.2926 66.3714C63.335 66.3714 62.9718 68.662 62.4854 71.4616C61.6711 76.1487 61.5699 76.5516 61.2063 76.5495C60.9892 76.5483 59.6241 76.329 58.1729 76.0624C56.7216 75.7957 55.4269 75.5764 55.2958 75.5753C55.1646 75.5739 54.7606 76.2117 54.3977 76.9923C54.0349 77.7729 53.241 79.1515 52.6333 80.0558L51.5288 81.7L53.4941 84.0344C54.5751 85.3183 55.5008 86.4765 55.5512 86.6083C55.6026 86.7424 53.9094 88.3033 51.7024 90.1562C47.8785 93.3664 47.752 93.4529 47.4456 93.0754C45.4603 90.63 43.6256 88.4942 43.5105 88.4942C43.4315 88.4942 42.706 88.7959 41.898 89.1648C40.6498 89.7347 39.791 90.0289 37.2104 90.7715C36.902 90.8602 36.8684 91.1958 36.8684 94.1849V97.5H31.6889H26.5093V94.1794ZM82.9036 83.7705C82.8499 83.6227 82.6703 82.8461 82.5045 82.0445C82.3388 81.243 82.1758 80.56 82.1425 80.5265C82.1091 80.4932 81.4118 80.3808 80.5928 80.2767C79.7738 80.1727 78.8994 80.0363 78.6496 79.9734C78.2452 79.8718 78.1039 80.0316 77.3569 81.4359C76.8956 82.303 76.4519 83.0125 76.371 83.0125C76.2594 83.0125 71.583 80.567 71.3126 80.3673C71.2833 80.3456 71.6498 79.5956 72.1273 78.7007L72.9953 77.0735L71.692 75.6414C70.9751 74.854 70.3008 74.2083 70.1933 74.207C70.0858 74.2054 69.3069 74.4734 68.4623 74.8025C67.6178 75.1316 66.9026 75.3734 66.8731 75.3399C66.6401 75.0766 64.8066 70.0375 64.907 69.9371C64.9782 69.8658 65.7129 69.5355 66.5399 69.2029L68.0433 68.5983L67.9999 66.5581L67.9565 64.5179L66.3587 63.9801C65.4797 63.6843 64.7225 63.404 64.6758 63.3572C64.6004 63.2816 65.7498 59.397 66.1933 58.2284L66.3649 57.7763L68.0837 58.36C69.7713 58.933 69.8076 58.9367 70.0956 58.5642C70.2568 58.3556 70.8064 57.6587 71.3171 57.0154C71.8279 56.3722 72.2455 55.7767 72.2455 55.6923C72.2455 55.6077 71.8404 54.8873 71.3449 54.0912C70.8496 53.2952 70.4757 52.6158 70.5142 52.5814C70.5527 52.5471 71.6756 51.8429 73.0096 51.0165C74.8402 49.8826 75.4752 49.5768 75.5993 49.769C75.6898 49.9092 76.1257 50.6185 76.568 51.3454C77.0103 52.0724 77.4145 52.6669 77.4663 52.6669C77.5181 52.6669 78.0136 52.5416 78.5677 52.3887C79.1218 52.2356 79.9775 52.0563 80.4693 51.9903L81.3633 51.8701L81.6021 50.0733C81.7335 49.085 81.8609 48.2565 81.8851 48.232C81.9348 48.1825 87.5592 48.9726 87.6409 49.0407C87.6694 49.0646 87.5726 49.8975 87.4259 50.8912L87.1587 52.6985L88.2532 53.2382C88.8552 53.535 89.6591 53.9663 90.0399 54.1966L90.732 54.6151L92.0439 53.4291C92.7655 52.7768 93.4285 52.2724 93.5174 52.3083C93.7396 52.3977 97.2636 56.3654 97.2636 56.5261C97.2636 56.5974 96.6732 57.1968 95.9516 57.8584L94.6397 59.0612L95.1482 60.2202C95.4281 60.8575 95.759 61.7021 95.8837 62.097L96.1105 62.8149L97.9262 62.7064L99.7418 62.5978L99.871 64.7108C99.942 65.8729 100 67.2066 100 67.6745V68.5249L99.0716 68.5422C98.5609 68.5515 97.712 68.6175 97.1853 68.689L96.2272 68.8186L95.8937 69.9933C95.7102 70.6393 95.4596 71.416 95.3369 71.719C95.2141 72.0221 95.1137 72.3396 95.1137 72.4244C95.1137 72.5092 95.7258 73.054 96.4742 73.6353C97.2224 74.2164 97.8381 74.7444 97.8424 74.8084C97.8535 74.9778 94.5115 79.1825 94.3027 79.2618C94.2058 79.2986 93.5205 78.8385 92.7801 78.2392L91.4338 77.1497L89.6927 78.2367L87.9514 79.3234L88.3029 80.9233C88.4962 81.8031 88.6564 82.615 88.659 82.7274C88.6615 82.8398 87.6301 83.1333 86.3671 83.3793C85.1041 83.6254 83.8299 83.8745 83.5359 83.9328C83.1833 84.0029 82.9683 83.9477 82.9036 83.7705ZM34.8161 78.9808C35.4611 78.8281 36.6925 78.3569 37.5525 77.9334C44.2135 74.6532 46.8405 66.4969 43.3762 59.852C42.2604 57.7111 39.7984 55.3082 37.6502 54.2625C35.4562 53.1946 34.038 52.8541 31.7608 52.8482C29.4669 52.8424 27.6486 53.241 25.8008 54.1545C22.4081 55.8319 19.8962 58.8541 18.8989 62.459C17.8167 66.371 18.423 70.1509 20.6733 73.521C23.7403 78.1141 29.3407 80.2761 34.8161 78.9808ZM85.4101 72.9217C86.8968 72.2118 88.2495 70.8752 88.9684 69.4059C89.4938 68.3323 89.5432 68.0541 89.5432 66.1715C89.5432 64.2433 89.5026 64.0291 88.908 62.8192C88.1549 61.287 86.9282 60.084 85.3752 59.3547C84.3948 58.8944 84.0275 58.8339 82.2137 58.8339C80.3385 58.8339 80.0606 58.8837 78.9912 59.4095C77.4966 60.1445 76.1832 61.4624 75.4631 62.9496C74.9553 63.998 74.8957 64.3239 74.8902 66.0777C74.885 67.796 74.9477 68.1713 75.4041 69.1465C76.3212 71.1059 78.0843 72.6754 80.1196 73.3438C81.4727 73.788 84.0215 73.5848 85.4101 72.9217ZM65.9558 48.4863C64.3775 48.2553 63.0315 48.01 62.9644 47.9413C62.8974 47.8725 62.9806 46.8242 63.1495 45.6115C63.3184 44.3987 63.4331 43.3838 63.4044 43.3561C63.3758 43.3285 62.8575 43.0872 62.2526 42.8197C61.6476 42.5523 60.6684 42.0231 60.0762 41.6439L58.9998 40.9542L57.2669 42.5018C56.3139 43.353 55.4873 44.0281 55.4301 44.0022C55.3445 43.9633 52.3663 40.703 50.8717 39.0119L50.4827 38.5717L51.6402 37.5249C52.277 36.9491 53.0578 36.2551 53.3756 35.9828L53.9532 35.4875L53.3467 34.1415C53.0133 33.4013 52.5893 32.3241 52.4048 31.7477L52.0692 30.6999L49.7508 30.7688L47.4325 30.8377L47.3408 30.3483C47.2902 30.0791 47.2222 28.4052 47.1893 26.6285L47.1297 23.3982L49.457 23.3003L51.7843 23.2024L52.2078 21.6362C52.4408 20.7748 52.7787 19.7289 52.9589 19.3119C53.1391 18.8949 53.2865 18.4957 53.2865 18.4247C53.2865 18.3536 52.4949 17.6844 51.5274 16.9375C50.5599 16.1906 49.7683 15.5121 49.7683 15.4295C49.7683 15.3466 50.7499 14.0224 51.9494 12.4865C53.1489 10.9505 54.1524 9.66518 54.179 9.63033C54.2055 9.59549 55.0151 10.1903 55.9777 10.9518C56.9405 11.7136 57.8375 12.3368 57.9712 12.3368C58.1048 12.3368 58.5348 12.0826 58.9265 11.7721C59.3182 11.4618 60.2353 10.8794 60.9645 10.4782C61.9309 9.94652 62.2651 9.66167 62.198 9.42751C61.992 8.70901 61.2913 5.23258 61.3425 5.18403C61.373 5.15525 63.0017 4.78524 64.962 4.36177C68.0837 3.68752 68.5372 3.63054 68.6148 3.90208C68.6635 4.0724 68.8892 5.09006 69.1161 6.16351C69.3433 7.23676 69.5465 8.12617 69.568 8.13988C69.5893 8.15359 70.4865 8.2783 71.5615 8.41711C72.6365 8.55591 73.7799 8.70607 74.1024 8.7509C74.67 8.8298 74.7229 8.76617 75.7508 6.77316L76.8131 4.71397L77.8031 5.26841C78.3476 5.57323 79.828 6.37005 81.0926 7.03883L83.3921 8.2548L82.2934 10.3064L81.1948 12.3579L82.3486 13.5709C82.9832 14.2382 83.7455 15.1076 84.0426 15.5033L84.5828 16.2224L86.7328 15.3357C87.9153 14.8478 88.9131 14.4801 88.95 14.5185C88.987 14.5569 89.6386 16.1135 90.3979 17.9777L91.7788 21.3672L91.2474 21.5614C90.9552 21.6683 90.0123 22.0424 89.1523 22.3931L87.5887 23.0305L87.618 25.6367L87.6475 28.2427L89.768 28.9264C90.9345 29.3023 91.9209 29.6394 91.9602 29.6756C92.022 29.7322 89.8726 36.6296 89.7531 36.7584C89.7289 36.7847 88.797 36.4983 87.6821 36.1222C86.5672 35.7463 85.552 35.4385 85.4262 35.4385C85.3005 35.4385 84.9526 35.813 84.6532 36.2706C84.3539 36.7281 83.6759 37.6068 83.1466 38.2231C82.5554 38.9114 82.2381 39.44 82.3243 39.5935C82.4013 39.7309 82.9357 40.602 83.5117 41.5288C84.0879 42.4558 84.5591 43.2606 84.5591 43.3174C84.5591 43.4642 78.5824 47.1852 78.3464 47.1852C78.2389 47.1852 78.1037 47.0616 78.0458 46.9107C77.988 46.7595 77.4567 45.8848 76.8655 44.9668L75.7905 43.2974L74.5611 43.6702C73.8848 43.8754 72.8202 44.1011 72.1951 44.172C71.4405 44.2573 71.0054 44.4071 70.9 44.6172C70.8127 44.7912 70.6299 45.8368 70.4941 46.9404L70.247 48.9472L69.536 48.9268C69.1451 48.9156 67.5339 48.7175 65.9558 48.4863ZM71.4542 35.6361C74.858 34.9896 77.8948 32.1076 78.7868 28.6773C80.3155 22.7985 75.7491 16.853 69.6968 16.842C67.0388 16.8371 64.5101 17.9233 62.7525 19.8247C60.9874 21.7345 60.134 23.8232 60.1297 26.2448C60.1188 32.2742 65.5297 36.7616 71.4542 35.6361Z" fill="white"/>
</svg>
