<svg width="100" height="100" viewBox="0 0 100 100" fill="none" xmlns="http://www.w3.org/2000/svg">
<path fill-rule="evenodd" clip-rule="evenodd" d="M42.9439 0.438613C40.1686 1.91331 34.3792 5.36533 33.9101 5.82519C33.5467 6.18131 33.3209 6.64292 33.2494 7.17623C33.1519 7.90195 33.2652 8.20865 34.3389 10.1248C34.9979 11.3008 35.5372 12.3065 35.5372 12.3592C35.5372 12.412 35.2189 12.9891 34.8302 13.6413L34.1232 14.8275L31.7515 14.8304C29.0978 14.8335 28.6508 14.9709 27.9606 15.9945C27.5077 16.6661 27.5069 16.6771 27.5638 22.5022L27.6207 28.3371L28.3508 29.0056L29.081 29.6741H31.6063H34.1316L34.7854 30.7973C35.1451 31.415 35.4688 31.9874 35.5051 32.0689C35.5413 32.1503 35.0356 33.1691 34.3812 34.3324C32.3317 37.9768 32.369 38.0397 38.7712 41.7225C44.0858 44.7793 44.4871 44.916 45.6912 44.0811C46.0792 43.8119 46.7573 42.884 47.4397 41.6881L48.5544 39.7346H50.0019H51.4493L52.5641 41.6881C54.5934 45.2446 55.016 45.2921 59.8776 42.5093C66.1527 38.9178 66.1513 38.9186 66.4938 38.1972C67.0057 37.1192 66.8824 36.5727 65.6226 34.3324C64.9681 33.1691 64.4625 32.1503 64.4986 32.0689C64.535 31.9874 64.8587 31.415 65.2184 30.7973L65.8722 29.6741H68.3975H70.9227L71.653 29.0056L72.3831 28.3371L72.4399 22.5022C72.4968 16.6771 72.496 16.6661 72.0431 15.9945C71.3529 14.9709 70.9059 14.8335 68.2522 14.8304L65.8806 14.8275L65.1736 13.6413C64.7848 12.9891 64.4666 12.412 64.4666 12.3592C64.4666 12.3065 65.0059 11.3008 65.6648 10.1248C66.7385 8.20865 66.8519 7.90195 66.7543 7.17623C66.683 6.64429 66.4563 6.17955 66.0937 5.82226C65.3145 5.05453 56.7917 0.175086 56.0077 0.0479133C54.6968 -0.164627 54.0667 0.329412 52.6886 2.64978L51.4313 4.76698H50.0019H48.5724L47.3152 2.64978C46.3101 0.957462 45.9252 0.477097 45.3972 0.256742C44.4736 -0.129074 43.9371 -0.0892223 42.9439 0.438613ZM53.1513 15.672C54.4605 16.2995 56.1027 17.9619 56.707 19.2715C57.0614 20.0396 57.1355 20.5534 57.1359 22.2508C57.1365 24.0912 57.0816 24.4139 56.6017 25.3902C53.8931 30.902 46.1085 30.8977 43.3985 25.3828C42.9228 24.4149 42.8673 24.0877 42.8678 22.2508C42.8682 20.5534 42.9423 20.0396 43.2967 19.2715C44.1126 17.5038 46.0151 15.872 48.0472 15.1969C48.316 15.1076 49.3275 15.0598 50.2951 15.0904C51.7288 15.1358 52.2572 15.2434 53.1513 15.672ZM11.3819 19.7149C10.886 19.9603 10.4247 20.3946 10.1602 20.8648C9.75482 21.5854 9.73527 21.8495 9.73527 26.6014V31.5826L8.70906 31.9155C6.82924 32.5254 5.37671 33.4428 3.75255 35.0454C1.07522 37.6871 -0.185559 40.9258 0.022029 44.6279C0.1268 46.4925 0.799995 48.8992 1.57679 50.1858C2.33814 51.4464 3.65443 53.0192 4.23536 53.3622C5.44844 54.0783 7.58902 53.6177 8.18051 52.5132C8.93346 51.1073 8.77317 49.924 7.64923 48.5882C6.3863 47.0872 5.92285 45.8332 5.9293 43.9346C5.93399 42.5584 6.02332 42.0837 6.4512 41.1614C7.10719 39.7475 8.35995 38.4933 9.84356 37.7653C10.8545 37.2693 11.2222 37.1956 12.6673 37.1993C14.7017 37.2044 16.081 37.7637 17.4614 39.1435C18.8385 40.5195 19.3985 41.8998 19.4053 43.9346C19.4118 45.8332 18.9483 47.0872 17.6854 48.5882C16.5614 49.924 16.4012 51.1073 17.1541 52.5132C17.7456 53.6177 19.9821 54.0971 21.0992 53.3589C21.7248 52.9455 23.0635 51.3579 23.7103 50.262C25.1101 47.891 25.6916 44.1878 25.1026 41.3951C24.1935 37.0833 20.7767 33.2625 16.6256 31.9155L15.5993 31.5826V28.3818V25.181H18.6291H21.6589V22.2508V19.3205L16.9188 19.3207C12.5584 19.3209 12.1147 19.3524 11.3819 19.7149ZM78.3449 22.2508V25.181H81.3746H84.4044V28.3818V31.5826L83.3782 31.9155C81.4984 32.5254 80.0458 33.4428 78.4217 35.0454C75.7444 37.6871 74.4836 40.9258 74.6912 44.6279C74.7959 46.4925 75.4691 48.8992 76.2459 50.1858C77.0073 51.4464 78.3236 53.0192 78.9045 53.3622C80.1176 54.0783 82.2582 53.6177 82.8496 52.5132C83.6026 51.1073 83.4423 49.924 82.3184 48.5882C81.0554 47.0872 80.592 45.8332 80.5984 43.9346C80.6031 42.5584 80.6925 42.0837 81.1203 41.1614C81.7763 39.7475 83.0291 38.4933 84.5127 37.7653C85.5237 37.2693 85.8913 37.1956 87.3364 37.1993C89.3709 37.2044 90.7501 37.7637 92.1305 39.1435C93.5076 40.5195 94.0676 41.8998 94.0745 43.9346C94.0809 45.8332 93.6174 47.0872 92.3545 48.5882C91.2306 49.924 91.0703 51.1073 91.8232 52.5132C92.4147 53.6177 94.6513 54.0971 95.7684 53.3589C96.3939 52.9455 97.7327 51.3579 98.3795 50.262C99.7792 47.891 100.361 44.1878 99.7718 41.3951C98.8627 37.0833 95.4459 33.2625 91.2947 31.9155L90.2685 31.5826V26.6014C90.2685 21.8423 90.2495 21.5864 89.8416 20.8611C89.5695 20.3774 89.1217 19.9603 88.607 19.7112C87.8677 19.3535 87.4 19.3205 83.0721 19.3205H78.3449V22.2508ZM12.0948 61.2688C11.2599 61.6984 10.7394 62.3938 10.5087 63.387C10.411 63.8085 10.3289 67.384 10.3264 71.3324L10.3217 78.5115H20.6919H31.0623L31.0029 70.844C30.9468 63.5866 30.9227 63.141 30.5527 62.5134C30.3377 62.1484 29.9135 61.665 29.6102 61.4389C29.0728 61.0385 28.8469 61.0264 20.9118 60.9758C13.4474 60.9283 12.7089 60.9529 12.0948 61.2688ZM41.4151 61.2688C40.5803 61.6984 40.0597 62.3938 39.8291 63.387C39.7313 63.8085 39.6493 67.384 39.6467 71.3324L39.642 78.5115H50.0122H60.3826L60.3232 70.844C60.2671 63.5866 60.2431 63.141 59.8731 62.5134C59.658 62.1484 59.2339 61.665 58.9305 61.4389C58.3932 61.0385 58.1672 61.0264 50.2321 60.9758C42.7678 60.9283 42.0293 60.9529 41.4151 61.2688ZM70.7355 61.2688C69.9006 61.6984 69.3801 62.3938 69.1494 63.387C69.0517 63.8085 68.9696 67.384 68.967 71.3324L68.9624 78.5115H79.3326H89.703L89.6436 70.844C89.5875 63.5866 89.5634 63.141 89.1934 62.5134C88.9784 62.1484 88.5542 61.665 88.2508 61.4389C87.7135 61.0385 87.4875 61.0264 79.5525 60.9758C72.0881 60.9283 71.3496 60.9529 70.7355 61.2688ZM6.14216 84.5767C4.90523 84.8874 3.14484 85.9286 2.29025 86.8551C1.85142 87.331 1.2138 88.3077 0.873687 89.0253C0.313473 90.2069 0.255028 90.5064 0.255028 92.1962C0.255028 93.9572 0.296076 94.145 0.985105 95.5382C1.86432 97.3163 2.99609 98.4237 4.81336 99.284C5.99419 99.8431 6.29678 99.9023 7.97605 99.9023C9.65532 99.9023 9.95791 99.8431 11.1387 99.284C12.956 98.4237 14.0878 97.3163 14.967 95.5382C15.6568 94.1434 15.6971 93.9588 15.6971 92.186C15.6971 90.4132 15.6568 90.2286 14.967 88.8338C13.6462 86.1628 11.2996 84.5955 8.41566 84.4584C7.58257 84.4187 6.55949 84.472 6.14216 84.5767ZM19.3535 84.5185C21.1659 88.1591 21.6589 89.7988 21.6589 92.186C21.6589 94.5732 21.1659 96.213 19.3535 99.8535C19.3134 99.9342 23.6493 100 28.989 100C34.3286 100 38.6645 99.9342 38.6244 99.8535C36.812 96.213 36.319 94.5732 36.319 92.186C36.319 89.7988 36.812 88.1591 38.6244 84.5185C38.6645 84.4379 34.3286 84.372 28.989 84.372C23.6493 84.372 19.3134 84.4379 19.3535 84.5185ZM48.168 84.5767C46.9311 84.8874 45.1707 85.9286 44.3161 86.8551C43.8772 87.331 43.2396 88.3077 42.8995 89.0253C42.3393 90.2069 42.2809 90.5064 42.2809 92.1962C42.2809 93.9572 42.3219 94.145 43.0109 95.5382C43.8901 97.3163 45.0219 98.4237 46.8392 99.284C48.02 99.8431 48.3226 99.9023 50.0019 99.9023C51.6811 99.9023 51.9837 99.8431 53.1646 99.284C54.9818 98.4237 56.1136 97.3163 56.9928 95.5382C57.6826 94.1434 57.7229 93.9588 57.7229 92.186C57.7229 90.4132 57.6826 90.2286 56.9928 88.8338C55.672 86.1628 53.3254 84.5955 50.4415 84.4584C49.6084 84.4187 48.5853 84.472 48.168 84.5767ZM61.3793 84.5185C63.1917 88.1591 63.6847 89.7988 63.6847 92.186C63.6847 94.5732 63.1917 96.213 61.3793 99.8535C61.3393 99.9342 65.6752 100 71.0148 100C76.3544 100 80.6903 99.9342 80.6502 99.8535C78.8378 96.213 78.3449 94.5732 78.3449 92.186C78.3449 89.7988 78.8378 88.1591 80.6502 84.5185C80.6903 84.4379 76.3544 84.372 71.0148 84.372C65.6752 84.372 61.3393 84.4379 61.3793 84.5185ZM90.1938 84.5767C88.9569 84.8874 87.1965 85.9286 86.3419 86.8551C85.9031 87.331 85.2654 88.3077 84.9253 89.0253C84.3651 90.2069 84.3067 90.5064 84.3067 92.1962C84.3067 93.9572 84.3477 94.145 85.0367 95.5382C85.916 97.3163 87.0477 98.4237 88.865 99.284C90.0458 99.8431 90.3484 99.9023 92.0277 99.9023C93.707 99.9023 94.0096 99.8431 95.1904 99.284C97.0077 98.4237 98.1394 97.3163 99.0186 95.5382C99.7085 94.1434 99.7487 93.9588 99.7487 92.186C99.7487 90.4132 99.7085 90.2286 99.0186 88.8338C97.6979 86.1628 95.3513 84.5955 92.4673 84.4584C91.6342 84.4187 90.6111 84.472 90.1938 84.5767Z" fill="white"/>
</svg>
