<svg width="100" height="100" viewBox="0 0 100 100" fill="none" xmlns="http://www.w3.org/2000/svg">
<path fill-rule="evenodd" clip-rule="evenodd" d="M46.9149 0.0453988C39.6038 0.679667 35.0795 2.1895 31.1415 5.30957C26.7886 8.75822 24.0317 14.4236 23.0692 21.8976L22.9376 22.9191C22.8722 23.4267 22.4412 23.8077 21.9294 23.8104C19.8641 23.8212 18.7662 24.3758 18.0568 25.7666C17.623 26.6173 17.6174 26.7271 17.6217 34.2683C17.6256 41.2617 17.6562 41.9742 17.9847 42.6909C18.7676 44.3992 19.6694 44.7461 23.3241 44.7446C24.8583 44.744 26.4252 44.6569 26.8058 44.5508C27.5912 44.3322 28.6254 43.3508 28.9338 42.5314C29.2174 41.7775 29.2174 26.7739 28.9338 26.0201C28.8197 25.7171 28.4543 25.1866 28.1217 24.841C27.7398 24.4441 27.5601 23.8946 27.6336 23.3488L27.749 22.4925C29.1155 12.3583 33.5519 7.26091 42.6159 5.41016C48.0973 4.29095 57.0803 4.71718 61.264 6.29512C68.1106 8.87721 71.2986 13.3459 72.6213 22.2143L72.7985 23.4018C72.8776 23.9324 72.706 24.4697 72.334 24.8562C72.0096 25.1934 71.6508 25.7171 71.5367 26.0201C71.2027 26.908 71.257 41.8482 71.5972 42.6482C71.8959 43.3504 72.5162 43.9692 73.3461 44.3927L73.8979 44.6743L72.5648 45.2849C69.7236 46.5863 65.9247 47.2288 59.9448 47.419L55.8848 47.5482L55.2572 46.9533C54.2424 45.991 53.957 45.92 51.1048 45.92C48.7547 45.92 48.3454 45.9693 47.7051 46.3298C46.7701 46.8564 46.2963 47.6727 46.2963 48.7576C46.2963 49.8508 46.7711 50.6595 47.7301 51.1996C48.4254 51.5912 48.7051 51.6186 51.3976 51.5605C54.2371 51.499 54.3265 51.4841 54.8617 50.982L55.4111 50.4663L59.9034 50.3606C68.8683 50.1499 73.7018 48.8846 76.863 45.9217C78.0249 44.8326 78.1849 44.7458 79.0269 44.7458C80.6691 44.7458 81.8715 44.0314 82.4857 42.6909C82.8143 41.9742 82.8449 41.2617 82.8488 34.2683C82.8531 26.7271 82.8475 26.6173 82.4137 25.7666C81.7043 24.3758 80.6064 23.8212 78.5411 23.8104C78.0293 23.8077 77.5983 23.4267 77.5329 22.9191L77.4013 21.8976C76.0675 11.5413 71.4865 5.02032 63.4029 1.97188C61.7736 1.35719 59.2849 0.75873 56.876 0.402162C55.035 0.12955 48.6016 -0.10079 46.9149 0.0453988ZM47.1102 7.56836C41.1386 8.03119 37.718 9.3144 34.897 12.1503C32.5815 14.478 31.3936 17.1041 30.643 21.5551C30.386 23.0797 30.3907 23.1388 30.8266 23.8057C31.8524 25.375 31.8753 25.6036 31.8774 34.2515C31.8794 41.9592 31.8618 42.3496 31.4641 43.4843L31.4429 43.545C31.191 44.2636 31.241 45.0537 31.5815 45.7348C34.6111 51.7963 40.9647 57.0184 47.2733 58.6323C50.9866 59.5823 55.0297 58.6903 59.3612 55.9655C61.0458 54.9058 63.0988 53.365 63.117 53.1468C63.1221 53.0854 61.6595 53.0752 59.8669 53.1243C56.8266 53.2077 56.5414 53.248 55.6188 53.7255C54.66 54.2218 54.5232 54.2373 51.1142 54.2373C47.8102 54.2373 47.5455 54.2097 46.7195 53.7799C45.5961 53.1952 44.6498 52.2943 44.116 51.3018C43.5539 50.2567 43.5081 47.3372 44.0384 46.3628C44.6197 45.2947 45.5625 44.3544 46.6043 43.8036C47.5764 43.2895 47.6762 43.278 51.1142 43.278C54.4336 43.278 54.6789 43.3038 55.5088 43.7412C55.9922 43.9958 56.5418 44.3399 56.7301 44.5058C57.0229 44.7638 57.5723 44.7892 60.5388 44.6814C63.8307 44.5618 64.9182 44.45 67.7798 43.9383C68.9925 43.7214 69.0124 43.7078 68.854 43.204C68.7653 42.9218 68.6927 38.8553 68.6927 34.1675V27.0943C68.6927 26.1409 68.9172 25.201 69.3482 24.3505C69.9408 23.1808 69.9902 22.9566 69.8632 22.0123C69.5913 19.9876 68.8003 17.3159 67.9235 15.4616C65.8608 11.0984 61.6361 8.49402 55.4596 7.77795C52.9289 7.4846 49.3489 7.39477 47.1102 7.56836ZM33.2427 58.6629C20.2178 65.7743 17.9603 67.1275 16.4822 68.711C14.5837 70.7445 12.636 74.9834 11.2826 80.027C10.685 82.2549 10 85.6894 10 86.4591C10 88.6768 14.1429 92.5411 18.9168 94.7762C24.4571 97.3704 31.4364 98.9805 40.5671 99.7707C44.0986 100.076 56.3719 100.076 59.9034 99.7707C72.0304 98.7212 80.7392 96.1407 86.1968 91.98C88.6558 90.1056 90.4648 87.7764 90.4687 86.4804C90.4742 84.5725 88.5626 76.9838 87.3997 74.2967C85.5798 70.0916 84.0555 68.2401 80.7656 66.2379C75.6397 63.1186 63.7242 56.6835 63.074 56.6835C62.8054 56.6835 62.0169 57.0736 61.322 57.5505C59.3589 58.8973 57.6085 59.7578 55.491 60.4169C53.1984 61.1305 53.4531 60.7823 51.6038 65.7347C50.9308 67.5375 50.3147 69.0127 50.2352 69.0127C50.1558 69.0127 49.5397 67.5375 48.8667 65.7347C47.0174 60.7823 47.2721 61.1305 44.9795 60.4169C42.881 59.7637 41.1815 58.9318 39.1344 57.5558C38.4207 57.0761 37.6162 56.6849 37.3465 56.6867C37.0768 56.6884 35.23 57.5777 33.2427 58.6629ZM74.0639 76.9386C74.0639 77.7493 73.4067 78.4064 72.5961 78.4064H67.1301H61.6642C60.8535 78.4064 60.1964 77.7493 60.1964 76.9386C60.1964 76.128 60.8535 75.4709 61.6642 75.4709H67.1301H72.5961C73.4067 75.4709 74.0639 76.128 74.0639 76.9386Z" fill="white"/>
</svg>
