<svg width="18" height="18" viewBox="0 0 18 18" fill="none" xmlns="http://www.w3.org/2000/svg">
  <g opacity="0.3">
    <path d="M14.8454 4.46393C15.2069 4.10238 15.2069 3.51619 14.8454 3.15464C14.4838 2.79309 13.8976 2.79309 13.5361 3.15464L9 7.69071L4.46393 3.15464C4.10238 2.79309 3.51619 2.79309 3.15464 3.15464C2.79309 3.51619 2.79309 4.10238 3.15464 4.46393L7.69071 9L3.15464 13.5361C2.79309 13.8976 2.79309 14.4838 3.15464 14.8454C3.51619 15.2069 4.10238 15.2069 4.46393 14.8454L9 10.3093L13.5361 14.8454C13.8976 15.2069 14.4838 15.2069 14.8454 14.8454C15.2069 14.4838 15.2069 13.8976 14.8454 13.5361L10.3093 9L14.8454 4.46393Z" fill="#171E26"/>
  </g>
</svg>
