<svg width="24" height="24" viewBox="0 0 24 24" fill="none" xmlns="http://www.w3.org/2000/svg">
<path fill-rule="evenodd" clip-rule="evenodd" d="M4.01246 0.0449113C3.57022 0.106968 2.95473 0.308709 2.52131 0.533623C-0.304099 2.00008 -0.866185 5.70484 1.40282 7.90533C2.84753 9.30641 5.87025 10.8412 7.81352 11.1605L8.17825 11.2204L8.23395 11.5599L8.28969 11.8995L7.65139 12.5249C6.78428 13.3745 6.12874 14.2253 5.42648 15.4124C5.0135 16.1106 4.93799 16.2572 4.62819 16.9629C4.13784 18.0799 4.01284 18.6474 4.04864 19.594C4.06773 20.0984 4.09923 20.32 4.19798 20.6451C4.74307 22.4389 6.24367 23.7107 8.10852 23.9593C9.63136 24.1623 11.1947 23.5964 12.2146 22.473C12.8421 21.7819 13.1883 21.0746 13.3777 20.097C13.4989 19.4715 13.4968 17.2431 13.3743 16.3869C13.1896 15.0971 12.8817 13.8963 12.5486 13.1667C12.413 12.8697 12.4191 12.8226 12.6252 12.5765L12.713 12.4717L13.0639 12.6143C14.8742 13.3503 18.1172 13.6511 20.1205 13.269C22.0814 12.8949 23.4897 11.5486 23.9238 9.6332C24.0155 9.22845 24.0268 8.28316 23.9447 7.89694C23.5303 5.94979 22.1256 4.56921 20.1443 4.16197C19.9868 4.12961 19.6002 4.10451 19.2852 4.1062C18.3491 4.11122 17.7448 4.28069 16.4693 4.89605C14.4212 5.88416 12.4754 7.38065 11.6348 8.61417C11.3825 8.98435 11.3271 8.94115 11.2576 8.32026C10.969 5.74091 9.17967 2.17359 7.56033 0.948973C6.5823 0.209363 5.25371 -0.129203 4.01246 0.0449113ZM11.3454 9.04036C11.778 9.18666 12.0132 9.32625 12.2932 9.60313C12.7664 10.0709 12.965 10.5442 12.9649 11.2038C12.9648 11.8111 12.7653 12.2899 12.3235 12.743C11.8972 13.1801 11.333 13.4117 10.6943 13.4117C10.0477 13.4117 9.55934 13.2108 9.08903 12.7514C8.36143 12.0405 8.21954 11.0299 8.71366 10.0779C8.85159 9.81224 9.30185 9.36983 9.57485 9.23174C10.1423 8.94472 10.8396 8.86934 11.3454 9.04036ZM10.3904 10.3231C10.1619 10.3986 9.93596 10.6281 9.83711 10.8852C9.55418 11.6209 10.3439 12.3346 11.0781 12.0068C11.7376 11.7124 11.8047 10.8205 11.1971 10.4253C10.9902 10.2908 10.6274 10.2448 10.3904 10.3231Z" fill="#0071BC"/>
</svg>
