<svg width="24" height="24" viewBox="0 0 24 24" fill="none" xmlns="http://www.w3.org/2000/svg">
<path fill-rule="evenodd" clip-rule="evenodd" d="M8.35636 2.21095C8.62366 0.439086 8.66625 0.33276 9.20379 0.095637C9.41337 0.00318791 9.50669 0 11.9982 0C14.4897 0 14.5831 0.00318791 14.7926 0.095637C15.3332 0.33412 15.3815 0.453385 15.6399 2.18727C15.7569 2.97229 15.8526 3.62952 15.8526 3.64775C15.8526 3.66604 16.0206 3.76172 16.226 3.8604C16.4313 3.95909 16.7837 4.15721 17.0089 4.30066C17.2341 4.44412 17.4509 4.55888 17.4907 4.55574C17.5304 4.55255 18.1592 4.3159 18.8879 4.02979C19.6166 3.74372 20.3104 3.49778 20.4297 3.48329C20.7302 3.44687 21.0278 3.53636 21.2471 3.72914C21.3776 3.8439 21.7989 4.50942 22.666 5.97075C23.3442 7.11384 23.9233 8.1163 23.9527 8.19838C24.0453 8.45679 23.9845 8.87839 23.8223 9.10295C23.7368 9.22137 23.2184 9.65141 22.5245 10.1796L21.3692 11.0591L21.3637 11.9945L21.3582 12.9299L22.4959 13.7961C23.749 14.7501 23.8125 14.8063 23.9204 15.0576C24.0554 15.372 24.0193 15.7011 23.8074 16.0875C23.3283 16.9612 21.48 20.0141 21.3228 20.1914C21.1147 20.426 20.7364 20.5603 20.4103 20.5153C20.3017 20.5003 19.6166 20.2543 18.8879 19.9685C18.1592 19.6827 17.5304 19.4463 17.4907 19.4432C17.4509 19.44 17.2315 19.5555 17.0031 19.6997C16.7747 19.8439 16.4279 20.0398 16.2322 20.1351C16.0367 20.2304 15.873 20.3112 15.8685 20.3146C15.8641 20.3181 15.7705 20.9327 15.6606 21.6804C15.5507 22.4281 15.4387 23.127 15.4115 23.2334C15.3438 23.4997 15.1114 23.7573 14.8201 23.8893L14.5758 24L11.9982 23.9994C9.50732 23.9989 9.41332 23.9956 9.20379 23.9032C8.66596 23.666 8.62351 23.5599 8.35785 21.789C8.23687 20.9826 8.13377 20.3195 8.1288 20.3156C8.12384 20.3116 7.95974 20.2304 7.76418 20.1351C7.56857 20.0398 7.22168 19.8439 6.99331 19.6997C6.76488 19.5555 6.54548 19.44 6.50573 19.4432C6.46598 19.4463 5.83723 19.6827 5.10852 19.9685C4.3798 20.2543 3.69174 20.5007 3.57948 20.5162C3.29354 20.5556 2.97179 20.455 2.74612 20.2558C2.47978 20.0205 0.0656916 15.9562 0.0213181 15.6683C-0.024549 15.3709 0.0376992 15.0768 0.189658 14.8727C0.264047 14.7727 0.845962 14.2953 1.48275 13.8118L2.64051 12.9326L2.63391 11.9958L2.62726 11.0591L1.47191 10.1796C0.778028 9.65136 0.259663 9.22137 0.174144 9.10295C0.0128385 8.87961 -0.0489279 8.45712 0.0424208 8.20204C0.113438 8.00392 2.48966 4.00986 2.63993 3.83607C2.82918 3.61723 3.11421 3.496 3.44632 3.49309C3.70581 3.49084 3.87555 3.54537 5.10399 4.0258C5.8567 4.32017 6.49628 4.56062 6.52529 4.56019C6.55429 4.55973 6.78396 4.43259 7.0357 4.27764C7.28744 4.1227 7.63434 3.92721 7.80658 3.8432C7.97882 3.75914 8.12317 3.68765 8.12736 3.68423C8.13155 3.68085 8.23461 3.01786 8.35636 2.21095ZM14.2867 8.68655C13.8907 8.42674 13.7518 8.36172 13.2379 8.19567C12.8469 8.06932 12.7146 8.0501 12.1428 8.03655C11.4481 8.0201 11.4067 8.02366 10.9623 8.13791C8.57586 8.75134 7.28079 11.2575 8.19582 13.4914C8.66736 14.6424 9.63688 15.4766 10.9623 15.8718C11.1896 15.9395 11.4111 15.9581 11.9982 15.9583C12.6461 15.9587 12.7925 15.9443 13.1042 15.8495C14.1247 15.539 14.8522 15.0197 15.4165 14.1989C16.3265 12.8751 16.3265 11.1237 15.4165 9.80002C15.1094 9.35334 14.7239 8.97337 14.2867 8.68655Z" fill="#0071BC"/>
</svg>
