<svg width="26" height="26" viewBox="0 0 26 26" fill="none" xmlns="http://www.w3.org/2000/svg">
<g clip-path="url(#clip0_10_4177)">
<path fill-rule="evenodd" clip-rule="evenodd" d="M7.07134 0.102844C6.76773 0.256955 6.6614 0.505869 6.6614 1.06245C6.6614 1.31596 6.86692 1.52148 7.12043 1.52148L9.83062 1.52148H12.5408C12.7943 1.52148 12.9998 1.31596 12.9998 1.06245C12.9998 0.49683 12.894 0.255026 12.5786 0.100356C12.378 0.00199951 12.2741 -0.00175806 9.81953 0.000374616C7.3844 0.00250729 7.25991 0.00717886 7.07134 0.102844ZM7.0977 3.13368C6.88641 3.24442 3.66607 6.71606 3.56454 6.94248C3.50179 7.08242 3.49255 8.19035 3.50449 14.1276C3.51796 20.8409 3.52292 21.1582 3.61731 21.4002C3.67161 21.5395 3.79611 21.7736 3.89399 21.9207C4.00175 22.0827 4.00175 22.2935 3.89399 22.4555C2.98812 23.8168 3.75179 25.6032 5.3831 25.9389C5.7765 26.0198 20.217 26.0207 20.6166 25.9398C22.2428 25.6106 23.0102 23.8148 22.1057 22.4555C21.9979 22.2935 21.9979 22.0827 22.1057 21.9207C22.509 21.3146 22.4794 21.7914 22.4955 15.6515C22.5075 11.0192 22.4981 10.1296 22.4355 9.98971C22.3428 9.78254 15.9594 3.25544 15.7304 3.13368C15.5752 3.05116 15.2669 3.04482 11.4152 3.04482C7.56447 3.04482 7.25505 3.05116 7.0977 3.13368ZM14.8531 6.27653C15.0552 6.38225 15.5886 6.89454 17.0315 8.36873C18.0823 9.44238 18.9966 10.3918 19.0632 10.4785C19.1299 10.5652 19.222 10.7602 19.2679 10.9119C19.4763 11.6005 19.1418 12.3442 18.4715 12.6825C18.2414 12.7986 18.138 12.8181 17.7537 12.8181C17.0265 12.8181 17.0562 12.841 14.8451 10.5818C13.7866 9.50037 12.8664 8.54493 12.8001 8.45861C12.6554 8.27017 12.5245 7.86928 12.5245 7.61483C12.5245 7.15036 12.847 6.57744 13.2398 6.34401C13.7321 6.05153 14.372 6.02472 14.8531 6.27653ZM13.4553 15.473C13.644 15.6038 14.3881 16.7252 14.8013 17.5015C15.4544 18.7287 15.5259 19.3649 15.1019 20.1761C14.772 20.8073 14.1234 21.2619 13.3772 21.3849C12.1537 21.5866 10.9459 20.7904 10.6828 19.6086C10.5879 19.1822 10.6111 18.9143 10.7876 18.4029C11.0923 17.5193 12.2874 15.5878 12.6345 15.418C12.8657 15.3048 13.2496 15.3305 13.4553 15.473ZM12.7117 17.9921C12.41 18.5242 12.2075 18.9963 12.2075 19.1678C12.2075 19.5178 12.6207 19.9031 12.9959 19.9031C13.436 19.9031 13.8322 19.4816 13.7754 19.0739C13.7435 18.8456 13.1177 17.6133 13.0174 17.5813C12.9835 17.5705 12.8459 17.7553 12.7117 17.9921Z" fill="#0071BC"/>
</g>
<defs>
<clipPath id="clip0_10_4177">
<rect width="26" height="26" fill="white"/>
</clipPath>
</defs>
</svg>
