<svg width="18" height="18" viewBox="0 0 18 18" fill="none" xmlns="http://www.w3.org/2000/svg">
<g clip-path="url(#clip0_1_27672)">
<path fill-rule="evenodd" clip-rule="evenodd" d="M4.89556 0.0712C4.68537 0.177892 4.61176 0.350217 4.61176 0.735539C4.61176 0.911051 4.75404 1.05333 4.92955 1.05333L6.80583 1.05333H8.68212C8.85763 1.05333 8.99991 0.911051 8.99991 0.735539C8.99991 0.343959 8.92662 0.176556 8.70831 0.0694775C8.56943 0.00138428 8.4975 -0.00121712 6.79815 0.00025935C5.1123 0.00173582 5.02611 0.00496998 4.89556 0.0712ZM4.91381 2.16947C4.76754 2.24614 2.53806 4.64958 2.46778 4.80633C2.42434 4.90322 2.41794 5.67024 2.4262 9.78061C2.43553 14.4283 2.43897 14.648 2.50431 14.8155C2.5419 14.9119 2.62809 15.0741 2.69585 15.1759C2.77046 15.288 2.77046 15.434 2.69585 15.5461C2.06872 16.4886 2.59741 17.7253 3.72678 17.9577C3.99914 18.0137 13.9964 18.0143 14.273 17.9583C15.3989 17.7304 15.9302 16.4872 15.304 15.5461C15.2294 15.434 15.2294 15.288 15.304 15.1759C15.5832 14.7562 15.5627 15.0863 15.5738 10.8356C15.5822 7.6287 15.5756 7.0128 15.5323 6.91595C15.4681 6.77253 11.0488 2.25377 10.8903 2.16947C10.7828 2.11234 10.5694 2.10795 7.90287 2.10795C5.23696 2.10795 5.02274 2.11234 4.91381 2.16947ZM10.2829 4.34529C10.4229 4.41848 10.7921 4.77315 11.791 5.79374C12.5185 6.53703 13.1515 7.19434 13.1976 7.25435C13.2438 7.31435 13.3075 7.44938 13.3393 7.55439C13.4836 8.03114 13.252 8.54601 12.788 8.78017C12.6286 8.86057 12.5571 8.8741 12.291 8.8741C11.7876 8.8741 11.8082 8.88992 10.2774 7.32585C9.54459 6.57718 8.9075 5.91572 8.86161 5.85596C8.76148 5.7255 8.67079 5.44796 8.67079 5.2718C8.67079 4.95025 8.89408 4.55361 9.16604 4.39201C9.50688 4.18952 9.94983 4.17096 10.2829 4.34529ZM9.3152 10.7121C9.44585 10.8026 9.96098 11.579 10.2471 12.1164C10.6992 12.9661 10.7487 13.4065 10.4552 13.968C10.2268 14.4051 9.77778 14.7197 9.26118 14.8049C8.41409 14.9446 7.57796 14.3933 7.39582 13.5752C7.33011 13.28 7.3462 13.0945 7.46833 12.7405C7.67933 12.1287 8.50671 10.7916 8.74697 10.674C8.90702 10.5956 9.17284 10.6134 9.3152 10.7121ZM8.80043 12.4561C8.59155 12.8244 8.45139 13.1513 8.45139 13.27C8.45139 13.5123 8.73742 13.7791 8.9972 13.7791C9.30188 13.7791 9.57618 13.4872 9.53683 13.205C9.51478 13.047 9.08153 12.1938 9.01208 12.1717C8.98861 12.1642 8.89335 12.2922 8.80043 12.4561Z" fill="white"/>
</g>
<defs>
<clipPath id="clip0_1_27672">
<rect width="18" height="18" fill="white"/>
</clipPath>
</defs>
</svg>
