<svg width="18" height="18" viewBox="0 0 18 18" fill="none" xmlns="http://www.w3.org/2000/svg">
<path fill-rule="evenodd" clip-rule="evenodd" d="M3.05604 0.0510726C2.89165 0.0781565 2.7176 0.115441 2.66925 0.133978C2.53138 0.186739 2.39168 0.348011 2.35012 0.50239C2.2779 0.770662 2.32909 0.838864 3.42485 1.93432L4.42737 2.93657V3.68423C4.42737 4.09647 4.09318 4.43192 3.68094 4.43192H2.93452L1.91404 3.41497C0.766201 2.27111 0.743451 2.25507 0.435711 2.37266C0.201073 2.46228 0.115242 2.61174 0.0501216 3.04388C-0.0159835 3.48257 -0.0166164 3.79422 0.0477306 4.22102C0.270167 5.69706 1.23027 6.79308 2.68683 7.23363C2.979 7.32202 3.05185 7.32955 3.63622 7.33156C4.1998 7.33352 4.30497 7.32435 4.59611 7.2476C4.79856 7.19424 5.01412 7.25249 5.16214 7.40056L7.88202 10.1213L10.6018 12.8421C10.7499 12.9902 10.8082 13.2058 10.7548 13.4083C10.6781 13.6996 10.6689 13.8048 10.6709 14.3686C10.6729 14.9531 10.6804 15.026 10.7688 15.3183C11.1843 16.693 12.1618 17.6118 13.545 17.928C13.8953 18.008 14.7584 18.0079 15.1159 17.9278C15.4216 17.8592 15.5943 17.7201 15.6432 17.5031C15.7059 17.2252 15.6772 17.1869 14.5861 16.0913L13.5696 15.0705V14.3238C13.5696 13.9119 13.9035 13.5772 14.3155 13.5772H15.0614L16.0999 14.6109C17.0447 15.5513 17.1515 15.6468 17.282 15.6682C17.4641 15.6981 17.6929 15.6115 17.7891 15.4765C17.978 15.2111 18.0468 14.1655 17.9154 13.5596C17.5939 12.0781 16.4757 10.9879 14.9917 10.709C14.5337 10.6229 13.7642 10.652 13.37 10.7704C13.1931 10.8235 13.0012 10.775 12.8707 10.6442L10.1145 7.88171L7.35402 5.11491C7.22615 4.98674 7.17911 4.79865 7.23159 4.62538C7.33894 4.27093 7.37857 3.52074 7.3119 3.10459C7.09984 1.78051 6.21509 0.691379 4.9874 0.243193C4.828 0.185015 4.58539 0.113506 4.44822 0.084312C4.08921 0.00787897 3.41585 -0.00819553 3.05604 0.0510726ZM15.0184 0.788213C13.4181 1.58765 13.2839 1.66946 13.2349 1.87572C13.2249 1.91775 13.1391 2.497 13.0441 3.16291C12.932 3.94881 12.5681 4.67718 12.007 5.2387L11.6824 5.56354L10.871 6.37542C10.6623 6.5842 10.6624 6.92257 10.8711 7.13131C11.0797 7.34003 11.418 7.34006 11.6267 7.13138L12.4383 6.31974L12.7633 5.99475C13.3245 5.43361 14.0525 5.06966 14.8381 4.95756C15.5038 4.86255 16.0829 4.77666 16.1249 4.76667C16.3311 4.71764 16.4129 4.58341 17.212 2.98261C17.7123 1.98058 18 1.36577 18 1.29894C18 1.11125 17.9074 0.974706 17.4842 0.538267C17.0645 0.105452 16.9112 0 16.7015 0C16.6347 0 16.0201 0.287829 15.0184 0.788213ZM2.92857 11.3344C0.601677 13.6679 0.409585 13.8784 0.224069 14.298C-0.101322 15.034 -0.0577211 15.9946 0.331209 16.6585C0.394779 16.767 0.471955 16.8669 0.560861 16.9558L1.04983 17.445C1.13873 17.5339 1.23862 17.6111 1.34708 17.6747C1.89354 17.995 2.71475 18.0911 3.33734 17.9076C4.04462 17.699 4.04023 17.7028 6.66938 15.0773L7.12466 14.6226C8.1598 13.5889 8.1604 11.9116 7.126 10.8772C6.09183 9.84296 4.41472 9.84412 3.38198 10.8797L2.92857 11.3344Z" fill="white"/>
</svg>
