<svg width="18" height="18" viewBox="0 0 18 18" fill="none" xmlns="http://www.w3.org/2000/svg">
<path fill-rule="evenodd" clip-rule="evenodd" d="M6.26727 1.65821C6.46774 0.329315 6.49969 0.24957 6.90284 0.0717277C7.06003 0.00239093 7.13002 0 8.99866 0C10.8673 0 10.9373 0.00239093 11.0945 0.0717277C11.4999 0.25059 11.5362 0.340039 11.7299 1.64046C11.8176 2.22922 11.8894 2.72214 11.8894 2.73581C11.8894 2.74953 12.0155 2.82129 12.1695 2.8953C12.3235 2.96932 12.5877 3.11791 12.7567 3.2255C12.9256 3.33309 13.0882 3.41916 13.118 3.41681C13.1478 3.41442 13.6194 3.23692 14.1659 3.02234C14.7125 2.80779 15.2328 2.62334 15.3222 2.61247C15.5477 2.58515 15.7709 2.65227 15.9353 2.79685C16.0332 2.88293 16.3492 3.38207 16.9995 4.47806C17.5082 5.33538 17.9424 6.08722 17.9645 6.14879C18.0339 6.34259 17.9883 6.65879 17.8667 6.82721C17.8026 6.91603 17.4138 7.23856 16.8934 7.63468L16.0269 8.29429L16.0228 8.99585L16.0187 9.69745L16.872 10.347C17.8117 11.0626 17.8594 11.1047 17.9403 11.2932C18.0416 11.529 18.0145 11.7758 17.8555 12.0657C17.4963 12.7209 16.11 15.0106 15.9921 15.1435C15.836 15.3195 15.5523 15.4202 15.3077 15.3865C15.2263 15.3753 14.7125 15.1907 14.1659 14.9764C13.6194 14.762 13.1478 14.5847 13.118 14.5824C13.0882 14.58 12.9237 14.6666 12.7523 14.7747C12.5811 14.8829 12.3209 15.0298 12.1742 15.1013C12.0275 15.1728 11.9048 15.2334 11.9014 15.236C11.8981 15.2386 11.8279 15.6995 11.7455 16.2603C11.6631 16.8211 11.579 17.3452 11.5587 17.4251C11.5079 17.6248 11.3336 17.818 11.1151 17.917L10.9319 18L8.99866 17.9996C7.13049 17.9992 7.05999 17.9967 6.90284 17.9274C6.49947 17.7495 6.46764 17.6699 6.26839 16.3418C6.17765 15.737 6.10033 15.2396 6.0966 15.2367C6.09288 15.2337 5.96981 15.1728 5.82314 15.1013C5.67643 15.0298 5.41626 14.8829 5.24498 14.7747C5.07366 14.6666 4.90911 14.58 4.8793 14.5824C4.84948 14.5847 4.37793 14.762 3.83139 14.9764C3.28485 15.1907 2.76881 15.3755 2.68461 15.3871C2.47015 15.4167 2.22885 15.3413 2.05959 15.1918C1.85984 15.0154 0.0492687 11.9671 0.0159886 11.7512C-0.0184117 11.5282 0.0282744 11.3076 0.142243 11.1545C0.198036 11.0795 0.634471 10.7215 1.11206 10.3588L1.98038 9.69942L1.97543 8.99684L1.97045 8.29429L1.10393 7.63468C0.583521 7.23852 0.194747 6.91603 0.130608 6.82721C0.00962882 6.65971 -0.0366959 6.34284 0.0318156 6.15153C0.0850782 6.00294 1.86725 3.0074 1.97995 2.87706C2.12189 2.71293 2.33566 2.622 2.58474 2.61982C2.77936 2.61813 2.90666 2.65902 3.82799 3.01935C4.39252 3.24012 4.87221 3.42046 4.89397 3.42015C4.91572 3.41979 5.08797 3.32444 5.27678 3.20823C5.46558 3.09203 5.72575 2.94541 5.85493 2.8824C5.98412 2.81936 6.09238 2.76574 6.09552 2.76317C6.09866 2.76064 6.17596 2.2634 6.26727 1.65821ZM10.7151 6.51492C10.418 6.32006 10.3138 6.27129 9.92841 6.14675C9.63517 6.05199 9.53595 6.03757 9.10706 6.02741C8.58607 6.01507 8.55503 6.01774 8.22176 6.10343C6.4319 6.56351 5.4606 8.44313 6.14687 10.1185C6.50052 10.9818 7.22766 11.6075 8.22176 11.9038C8.39221 11.9547 8.55832 11.9685 8.99866 11.9688C9.4846 11.969 9.59441 11.9582 9.82817 11.8871C10.5935 11.6543 11.1391 11.2648 11.5624 10.6491C12.2449 9.65634 12.2449 8.34281 11.5624 7.35002C11.3321 7.01501 11.0429 6.73003 10.7151 6.51492Z" fill="white"/>
</svg>
