<svg width="24" height="24" viewBox="0 0 24 24" fill="none" xmlns="http://www.w3.org/2000/svg">
<path fill-rule="evenodd" clip-rule="evenodd" d="M4.07472 0.0680968C3.85554 0.104209 3.62347 0.153921 3.559 0.178637C3.37518 0.248985 3.18891 0.464015 3.13349 0.669853C3.0372 1.02755 3.10546 1.11849 4.56647 2.5791L5.90315 3.91542V4.9123V4.9123C5.90315 5.46195 5.45757 5.90923 4.90792 5.90923V5.90923H3.91269L2.55205 4.55329C1.0216 3.02815 0.991268 3.00676 0.580948 3.16355C0.268098 3.28304 0.153656 3.48232 0.0668288 4.05851C-0.0213113 4.64343 -0.0221552 5.05895 0.0636407 5.62802C0.360223 7.59608 1.64036 9.05744 3.58245 9.64484C3.972 9.7627 4.06914 9.77273 4.84829 9.77541C5.59973 9.77803 5.73995 9.76579 6.12815 9.66346V9.66346C6.39809 9.59232 6.6855 9.66999 6.88286 9.86741L10.5094 13.4951L14.1358 17.1227C14.3332 17.3202 14.4109 17.6077 14.3398 17.8778V17.8778C14.2375 18.2661 14.2252 18.4064 14.2278 19.1581C14.2305 19.9375 14.2405 20.0347 14.3584 20.4243C14.9124 22.2573 16.2157 23.4824 18.06 23.9039C18.5271 24.0107 19.6779 24.0105 20.1545 23.9037C20.5621 23.8123 20.7924 23.6269 20.8576 23.3375C20.9412 22.967 20.903 22.9159 19.4482 21.4551L18.0927 20.094V19.0984V19.0984C18.0927 18.5492 18.538 18.1029 19.0873 18.1029V18.1029H20.0818L21.4666 19.4812C22.7262 20.7351 22.8687 20.8624 23.0427 20.891C23.2855 20.9308 23.5906 20.8154 23.7187 20.6353C23.9706 20.2815 24.0624 18.8873 23.8872 18.0794C23.4585 16.1041 21.9676 14.6506 19.9889 14.2786C19.3783 14.1638 18.3523 14.2026 17.8267 14.3605V14.3605C17.5907 14.4313 17.3349 14.3667 17.1609 14.1923L13.486 10.5089L9.80536 6.81988C9.63487 6.64899 9.57214 6.3982 9.64212 6.16717V6.16717C9.78526 5.69457 9.83809 4.69432 9.7492 4.13946C9.46645 2.37401 8.28678 0.921839 6.64986 0.324257C6.43734 0.246687 6.11385 0.151342 5.93096 0.112416C5.45228 0.0105053 4.55447 -0.0109274 4.07472 0.0680968ZM20.0245 1.05095C17.8908 2.11686 17.7119 2.22595 17.6466 2.50096C17.6332 2.55701 17.5188 3.32933 17.3921 4.21722V4.21722C17.2427 5.26508 16.7575 6.23623 16.0093 6.98494L15.5765 7.41805L14.4947 8.50056C14.2165 8.77893 14.2165 9.23009 14.4948 9.50841V9.50841V9.50841C14.7729 9.7867 15.224 9.78675 15.5023 9.50851L16.5844 8.42632L17.0178 7.993C17.766 7.24481 18.7367 6.75955 19.7842 6.61008V6.61008C20.6718 6.48341 21.4438 6.36888 21.4999 6.35556C21.7748 6.29018 21.8838 6.11122 22.9494 3.97682C23.6164 2.64077 24 1.82103 24 1.73192C24 1.48167 23.8766 1.29961 23.3123 0.71769C22.7527 0.140602 22.5483 0 22.2687 0C22.1796 0 21.3601 0.383771 20.0245 1.05095ZM3.90477 15.1126C0.802236 18.2239 0.546114 18.5045 0.298759 19.064C-0.135096 20.0454 -0.0769615 21.3261 0.441612 22.2113V22.2113C0.526372 22.3559 0.629273 22.4892 0.747814 22.6078L1.39978 23.26C1.5183 23.3785 1.65149 23.4814 1.79611 23.5662V23.5662C2.52472 23.9934 3.61967 24.1215 4.44978 23.8768C5.39283 23.5987 5.38697 23.6037 8.89251 20.103L9.49955 19.4968C10.8797 18.1186 10.8805 15.8821 9.50133 14.5029V14.5029V14.5029C8.12244 13.1239 5.88629 13.1255 4.50931 14.5063L3.90477 15.1126Z" fill="#0071BC"/>
</svg>
