<svg width="18" height="18" viewBox="0 0 18 18" fill="none" xmlns="http://www.w3.org/2000/svg">
<path fill-rule="evenodd" clip-rule="evenodd" d="M3.00935 0.0336835C2.67766 0.0802257 2.21605 0.231532 1.89099 0.400217C-0.228075 1.50006 -0.649639 4.27863 1.05212 5.929C2.13565 6.97981 4.40269 8.13091 5.86014 8.37034L6.13369 8.41526L6.17546 8.66996L6.21727 8.92463L5.73854 9.39371C5.08821 10.0309 4.59656 10.669 4.06986 11.5593C3.76012 12.0829 3.70349 12.1929 3.47114 12.7222C3.10338 13.5599 3.00963 13.9855 3.03648 14.6955C3.0508 15.0738 3.07442 15.24 3.14848 15.4838C3.5573 16.8292 4.68275 17.783 6.08139 17.9695C7.22352 18.1217 8.396 17.6973 9.16095 16.8547C9.63156 16.3364 9.89122 15.806 10.0333 15.0728C10.1242 14.6036 10.1226 12.9324 10.0307 12.2902C9.89222 11.3228 9.6613 10.4222 9.41142 9.87503C9.30972 9.65231 9.3143 9.61692 9.4689 9.43237L9.53477 9.35374L9.7979 9.46072C11.1556 10.0127 13.5879 10.2384 15.0903 9.95176C16.561 9.6712 17.6173 8.66145 17.9429 7.2249C18.0116 6.92134 18.0201 6.21237 17.9585 5.9227C17.6478 4.46234 16.5942 3.42691 15.1082 3.12148C14.9901 3.0972 14.7002 3.07838 14.4639 3.07965C13.7618 3.08341 13.3086 3.21052 12.352 3.67203C10.8159 4.41312 9.35654 5.53548 8.72611 6.46063C8.53689 6.73827 8.49534 6.70587 8.44322 6.2402C8.22673 4.30569 6.88475 1.63019 5.67024 0.71173C4.93672 0.157022 3.94028 -0.0969022 3.00935 0.0336835ZM8.50905 6.78027C8.83353 6.88999 9.0099 6.99469 9.21991 7.20235C9.57482 7.55319 9.72377 7.90815 9.72369 8.40285C9.72362 8.85831 9.57396 9.21746 9.2426 9.55726C8.92291 9.88509 8.49974 10.0588 8.02072 10.0588C7.5358 10.0588 7.1695 9.9081 6.81677 9.56352C6.27107 9.03034 6.16465 8.2724 6.53524 7.55844C6.63869 7.35918 6.97639 7.02737 7.18114 6.9238C7.60671 6.70854 8.12972 6.65201 8.50905 6.78027ZM7.79278 7.74235C7.62142 7.79896 7.45197 7.97109 7.37783 8.16391C7.16564 8.71566 7.75791 9.25095 8.30855 9.00512C8.80318 8.78433 8.85354 8.1154 8.39783 7.81901C8.24262 7.71808 7.97054 7.6836 7.79278 7.74235Z" fill="white"/>
</svg>
