<svg viewBox="0 0 74 40" fill="none"
     xmlns="http://www.w3.org/2000/svg">
  <path d="M39.2757 0.220669C37.7634 1.01478 33.8285 3.60301 31.6408 5.23535C29.0861 7.16182 26.267 9.41181 26.3257 9.48534C26.3698 9.51475 27.1773 9.02946 28.1317 8.3824C31.4793 6.14712 35.7373 3.54418 38.3654 2.10301L39.6722 1.41184L41.346 1.8236C42.271 2.04419 43.0198 2.27948 43.0198 2.3236C43.0198 2.38242 42.4472 2.73536 41.7424 3.11772C41.023 3.50007 40.6119 3.77948 40.8174 3.72065C41.023 3.67654 42.0507 3.41183 43.0932 3.14713C44.1504 2.86772 45.5012 2.5736 46.1031 2.47066C46.7051 2.36772 47.2484 2.23537 47.3071 2.19125C47.3658 2.13243 46.4408 1.8089 45.2515 1.45596C44.0623 1.10302 42.4765 0.617726 41.7131 0.382432C40.142 -0.0881535 39.8924 -0.102859 39.2757 0.220669Z" fill="#0071BC"/>
  <path d="M52.1232 2.42649C48.2323 2.77943 46.6466 3.00002 44.1212 3.51472C38.4097 4.69119 31.8759 7.14706 26.5021 10.147C24.5347 11.2647 22.5378 12.5294 22.391 12.7794C22.3176 12.8676 22.5672 12.7647 22.9196 12.5147C23.8593 11.8676 26.414 10.5294 28.1759 9.7647C34.9446 6.79412 42.9025 4.9706 51.6533 4.38237C54.1787 4.2206 58.5835 4.17649 58.5835 4.33825C58.5835 4.38237 57.9081 5.13236 57.0712 5.9853C56.249 6.83824 55.0303 8.10294 54.3696 8.77941L53.195 10.0147L51.9617 9.7794C45.2077 8.48529 33.6525 10.9118 21.2898 16.2206C20.0418 16.7647 18.8966 17.2353 18.7644 17.2794C18.5882 17.3235 18.2212 17.1323 17.722 16.7206C15.593 14.9853 14.3743 12.4706 14.4037 9.88235C14.4037 8.77941 14.4331 8.70588 14.8442 8.38235L15.27 8.02941L17.0025 8.35294C19.7775 8.85294 19.9977 8.89705 20.1005 9.04411C20.6878 9.91176 21.6275 11.147 21.6569 11.1176C21.7156 11.0588 21.0402 8.2647 20.9374 8.07353C20.8934 8 20.6731 7.91177 20.4529 7.88235C20.218 7.83824 18.8966 7.52941 17.5164 7.20589C14.991 6.58824 14.3156 6.4853 14.2128 6.70589C14.1981 6.76471 13.7577 7.14706 13.2438 7.54412L12.3041 8.2647L12.4069 8.94117C12.6858 10.9559 13.4934 13.3676 14.4184 14.9411C15.3581 16.5588 17.7807 18.647 18.7204 18.647C18.8525 18.647 19.337 18.4558 19.7922 18.2205C22.2295 16.9558 25.8561 15.4264 29.145 14.2941C37.9692 11.2206 46.1621 10.5 51.4625 12.3235C52.4168 12.647 52.2847 12.6912 53.2831 11.7353C57.3355 7.86765 62.3863 2.83826 62.2982 2.75002C61.9752 2.4559 54.3843 2.20591 52.1232 2.42649Z" fill="#0071BC"/>
  <path d="M51.3891 4.92652C48.1589 5.14711 44.6791 5.61769 41.816 6.22063C39.8045 6.63239 36.5303 7.48533 36.6037 7.57357C36.6331 7.60298 37.4847 7.42651 38.4831 7.19121C43.2549 6.05887 49.3775 5.3971 53.0775 5.6324C54.0025 5.69122 54.766 5.79416 54.766 5.85298C54.766 5.91181 54.5311 6.30887 54.2522 6.72063C53.9585 7.13239 53.7676 7.47063 53.8264 7.47063C53.8704 7.47063 54.5605 6.92651 55.3533 6.25004C56.4692 5.32358 56.7482 5.01475 56.5573 4.94122C56.3077 4.85299 52.6811 4.82358 51.3891 4.92652Z" fill="#0071BC"/>
  <path d="M15.5194 9.20589C15.3432 9.39706 15.2698 9.75 15.2698 10.4412C15.2698 11.4412 15.7249 13.2647 16.0333 13.4412C16.1507 13.5147 16.1654 13.4559 16.1067 13.2794C15.6222 12.0294 15.6075 10.3382 16.0773 9.82353C16.2975 9.57353 16.5325 9.52942 17.5309 9.51471L18.7202 9.5L17.6924 9.29412C15.7396 8.91177 15.769 8.92648 15.5194 9.20589Z" fill="#0071BC"/>
  <path d="M1.61508 24.3088C1.61508 24.3676 1.92341 24.7941 2.29048 25.2793L2.96588 26.1617L2.21707 27.8823C1.80595 28.8234 1.14524 30.3676 0.734127 31.294C0.337699 32.2058 0 33.0293 0 33.0881C0 33.147 0.646032 33.2058 1.43889 33.2058H2.89246L3.81746 31.0293C4.31667 29.8382 4.97738 28.3087 5.28572 27.6176L5.84366 26.3676H8.22223C10.3952 26.3676 10.6155 26.397 10.8064 26.647C11.0853 27.044 11.0706 27.2646 10.7183 27.6176C10.4687 27.8676 10.2337 27.9117 9.0885 27.9117H7.7377L6.37223 28.7499C5.28572 29.4116 4.80998 29.8234 4.80998 29.8234C4.80998 29.8234 6.24008 29.8234 7.75239 29.8234C11.8929 29.8234 12.9647 29.4852 13.8163 27.9558C14.6091 26.6764 14.2568 25.2205 12.9647 24.5882C12.4508 24.3382 11.9663 24.3088 7.01826 24.2646C4.0377 24.2499 1.61508 24.2646 1.61508 24.3088Z" fill="#0071BC"/>
  <path d="M15.2699 24.3235C15.2699 24.3676 15.5636 24.7941 15.9307 25.2499L16.5914 26.1029L16.1362 27.1176C15.5049 28.544 15.4021 28.7646 14.3449 31.1029L13.3906 33.2058H23.7858L24.1382 32.4117C24.843 30.8381 25.1954 30.9999 21.0842 30.9999C19.1021 30.9999 17.4723 30.9852 17.4723 30.9558C17.4723 30.8676 18.2065 29.0882 19.2196 26.7499C19.7922 25.4117 20.262 24.3088 20.262 24.2794C20.262 24.2499 19.1461 24.2352 17.766 24.2352C16.4005 24.2352 15.2699 24.2794 15.2699 24.3235Z" fill="#0071BC"/>
  <path d="M27.3094 24.3088C27.3094 24.3676 27.6031 24.7646 27.9701 25.2205C28.3372 25.6617 28.6308 26.1176 28.6308 26.2205C28.6308 26.3235 28.4693 26.7646 28.2784 27.1911C27.3681 29.2205 25.6943 33.0734 25.6943 33.1323C25.6943 33.1764 26.3257 33.2058 27.0892 33.2058H28.4987L28.9832 32.1323C29.2475 31.5587 29.5411 30.8529 29.6439 30.6029C29.7614 30.3382 29.8935 30.147 29.9523 30.1911C30.011 30.2205 30.2459 30.8823 30.4661 31.6617C30.7011 32.4264 30.9213 33.0587 30.98 33.0587C31.0241 33.0587 31.4058 32.7793 31.8023 32.4264C32.2134 32.0881 32.8594 31.544 33.2558 31.2205C33.6376 30.897 34.0781 30.4999 34.2396 30.3529C34.6066 29.9558 34.5919 30.294 34.1955 31.147C34.034 31.5146 33.7697 32.1176 33.6082 32.4999L33.3292 33.2058H36.1336L36.5594 32.2793C37.0146 31.294 39.9217 24.7205 40.0392 24.4117C40.0979 24.2794 39.7749 24.2352 38.7031 24.2352H37.2935L35.6491 25.9411C34.7388 26.8823 33.711 27.9558 33.3733 28.3235C32.9328 28.794 32.7273 28.9264 32.6832 28.7793C32.6392 28.6617 32.5511 27.6176 32.4923 26.4411L32.3749 24.3088L29.8495 24.2646C28.4546 24.2499 27.3094 24.2646 27.3094 24.3088Z" fill="#0071BC"/>
  <path d="M40.9642 24.2646C40.9642 24.2646 41.4194 24.9558 41.7277 25.3676L42.2857 26.147L44.6496 26.1764L47.0135 26.2205L45.9416 26.9558C44.6936 27.8088 40.0833 30.9558 40.0833 30.9558L39.3491 33.2352C39.3491 33.2352 42.0507 33.1911 45.0607 33.1764H50.5813L50.9631 32.1028C51.198 31.544 51.3888 31.0146 51.3888 30.9999C51.3888 30.9999 49.9353 30.9999 48.1587 30.9999C46.3821 30.9999 44.9285 30.9411 44.9285 30.8823C44.9285 30.8087 45.4131 30.4264 46.0004 30.044C46.573 29.647 47.0869 29.2793 47.1309 29.2352C47.175 29.1911 47.9384 28.6617 48.8194 28.0735C51.3888 26.3578 51.6091 26.397 52.123 25.294C52.3873 24.7793 52.5634 24.2352 52.5634 24.2352C52.5634 24.2352 49.95 24.2352 46.7492 24.2352C42.1535 24.2352 40.9642 24.2646 40.9642 24.2646Z" fill="#0071BC"/>
  <path d="M53.7383 24.3382C53.7383 24.397 54.0319 24.8235 54.399 25.294L55.0744 26.1323L54.1934 28.1617C53.7236 29.2793 53.0629 30.8087 52.7252 31.5587C52.3875 32.3087 52.1232 32.9852 52.1232 33.0734C52.1232 33.1617 52.6664 33.2058 53.5327 33.1764L54.9569 33.1322L56.4839 29.6029C58.0402 25.9852 58.7303 24.3676 58.7303 24.2793C58.7303 24.2499 57.6144 24.2352 56.2343 24.2352C54.8688 24.2352 53.7383 24.2793 53.7383 24.3382Z" fill="#0071BC"/>
  <path d="M59.758 24.3142C59.758 24.373 60.0664 24.7995 60.4334 25.2848L61.1088 26.1671L60.36 27.8877C59.9489 28.8289 59.2882 30.373 58.8771 31.2995C58.4806 32.2112 58.1429 33.0348 58.1429 33.0936C58.1429 33.1524 58.789 33.2112 59.5818 33.2112H61.0354L61.9604 31.0348C62.4596 29.8436 63.1203 28.3142 63.4287 27.623L63.9866 26.373H66.3652C68.5382 26.373 68.7584 26.4024 68.9493 26.6524C69.2283 27.0495 69.2136 27.2701 68.8612 27.623C68.6116 27.873 68.3767 27.9171 67.2314 27.9171H65.8806L64.5152 28.7554C63.4287 29.4171 62.9529 29.8289 62.9529 29.8289C62.9529 29.8289 64.383 29.8289 65.8953 29.8289C70.0358 29.8289 71.1076 29.4906 71.9592 27.9613C72.7521 26.6819 72.3997 25.226 71.1076 24.5936C70.5937 24.3436 70.1092 24.3142 65.1612 24.2701C62.1806 24.2554 59.758 24.2701 59.758 24.3142Z" fill="#0071BC"/>
  <path d="M1.70336 37.2793C1.35098 37.3675 1.01328 37.7646 0.440658 38.7646C-0.117279 39.7352 0.000181755 39.9705 1.05733 39.9705C2.11447 39.9705 2.64304 39.6616 3.20098 38.7058C3.71487 37.8087 3.78828 37.3969 3.4359 37.2646C3.17161 37.1616 2.12915 37.1764 1.70336 37.2793ZM2.64304 38.0881C2.72832 38.3577 2.34939 38.7499 2.34939 38.7499C2.34939 38.7499 1.9763 39.1958 1.64463 39.2352C1.44243 39.2592 1.23352 39.2646 1.13074 39.1469C1.02796 39.0293 1.23575 38.3999 1.5859 38.1616C1.92822 37.9287 2.51806 37.693 2.64304 38.0881Z" fill="#0071BC"/>
  <path d="M4.84536 37.6469C4.68385 37.9116 4.37552 38.4851 4.1406 38.9116C3.67076 39.8381 3.75885 39.9704 4.91877 39.9704C5.93187 39.9704 6.47512 39.6028 7.10647 38.4557C7.70846 37.3822 7.75251 37.1763 7.35608 37.1763C7.1652 37.1763 6.88623 37.4704 6.51917 38.0881C6.21084 38.6028 5.88782 39.0587 5.81441 39.1175C5.60885 39.2646 4.84536 39.2646 4.84536 39.1175C4.84536 39.0587 5.05092 38.6616 5.28584 38.2204C5.79973 37.2793 5.81441 37.1763 5.43266 37.1763C5.25647 37.1763 5.02155 37.3675 4.84536 37.6469Z" fill="#0071BC"/>
  <path d="M9.10321 37.2058L8.14884 37.9117H9.25003L8.07543 39.9263H8.95638L10.131 37.9117H10.9385L11.7461 37.2058H9.10321Z" fill="#0071BC"/>
  <path d="M12.0398 38.4263C11.6434 39.1175 11.3057 39.7499 11.3057 39.8234C11.3057 39.9116 11.7755 39.9704 12.3481 39.9704C13.5668 39.9704 14.1394 39.7057 14.4037 39.0293C14.5065 38.7793 14.712 38.4116 14.8588 38.2204C15.1818 37.794 15.1965 37.3822 14.8882 37.2646C14.7561 37.2205 14.2422 37.1763 13.7283 37.1763H12.7886L12.0398 38.4263ZM14.2422 38.044C14.2422 38.2351 13.9632 38.3087 13.4787 38.2352C12.862 38.1469 12.9795 37.9116 13.6549 37.9116C13.9779 37.9116 14.2422 37.9704 14.2422 38.044ZM13.6549 38.9263C13.6549 39.0881 13.2878 39.2351 12.8326 39.2351C12.4949 39.2351 12.3775 39.0881 12.583 38.8969C12.7299 38.7499 13.6549 38.7793 13.6549 38.9263Z" fill="#0071BC"/>
  <path d="M16.7969 37.3235C16.2096 37.5588 15.1525 39.294 15.314 39.7205C15.4314 40.044 16.8703 40.0587 17.4723 39.7499C18.0596 39.4411 19.0433 37.6911 18.7937 37.397C18.5882 37.147 17.3255 37.1029 16.7969 37.3235ZM17.8247 38.0293C17.8687 38.1029 17.7366 38.397 17.531 38.6911C17.2521 39.1176 17.0759 39.2352 16.7382 39.2352C16.2243 39.2352 16.1949 39.044 16.5913 38.3823C16.8116 38.0293 16.9878 37.9117 17.3108 37.9117C17.5604 37.9117 17.7806 37.9705 17.8247 38.0293Z" fill="#0071BC"/>
  <path d="M20.7023 37.2793C20.5848 37.3234 20.3646 37.4705 20.2178 37.6028C19.9094 37.8675 18.9404 39.544 18.9404 39.794C18.9404 40.1175 19.513 39.9705 19.7626 39.6028C19.9388 39.3234 20.1297 39.2352 20.4967 39.2352C20.9666 39.2352 20.9959 39.2646 20.9078 39.6028C20.761 40.2205 21.363 40.0881 21.7741 39.4116C22.5376 38.2058 22.7872 37.6028 22.5963 37.3822C22.4348 37.1764 21.1721 37.1028 20.7023 37.2793ZM21.7301 38.0146C21.7154 38.3087 21.4364 38.5293 21.0106 38.5587C20.4527 38.6028 20.3205 38.4558 20.6436 38.1469C20.8638 37.9117 21.7301 37.8087 21.7301 38.0146Z" fill="#0071BC"/>
  <path d="M23.3598 38.5146C22.9487 39.2646 22.611 39.8822 22.611 39.9116C22.611 39.941 22.7725 39.9704 22.9781 39.9704C23.2277 39.9704 23.4039 39.8528 23.5213 39.6028C23.6535 39.3087 23.7856 39.2351 24.2554 39.2351C24.784 39.2351 24.9749 39.4116 24.6666 39.6028C24.4463 39.7351 24.6372 39.9704 24.9455 39.9704C25.2392 39.9704 25.6943 39.3822 25.6943 39.0146C25.6943 38.8969 25.7531 38.794 25.8118 38.794C25.8852 38.794 26.0908 38.5146 26.2816 38.1763C26.6047 37.5881 26.6047 37.5587 26.3551 37.3675C26.1789 37.2499 25.6943 37.1763 25.0924 37.1763H24.1086L23.3598 38.5146ZM25.5475 38.0146C25.5328 38.294 25.2832 38.4704 24.784 38.5293C24.2114 38.5881 24.1674 38.544 24.3142 38.1469C24.3729 37.9852 24.5931 37.9116 24.9749 37.9116C25.2832 37.9116 25.5475 37.9557 25.5475 38.0146Z" fill="#0071BC"/>
  <path d="M27.6325 37.6469C27.0745 38.6028 26.4285 39.794 26.4285 39.8822C26.4285 40.044 28.4547 39.9705 28.8511 39.794C29.2622 39.6028 30.246 38.0734 30.246 37.6322C30.246 37.2646 29.967 37.1764 28.8511 37.1764C27.9555 37.1764 27.9115 37.1911 27.6325 37.6469ZM29.042 38.5293C28.7484 39.0734 28.6309 39.1616 28.1464 39.2058C27.8527 39.2352 27.6031 39.2058 27.6031 39.1616C27.6031 39.1175 27.7499 38.8087 27.9408 38.4999C28.2345 37.9852 28.3226 37.9116 28.8218 37.9116H29.3797L29.042 38.5293Z" fill="#0071BC"/>
  <path d="M33.2708 37.7499C32.0815 39.647 31.9493 40.0146 32.4779 39.9411C32.7128 39.9117 32.9771 39.6028 33.3882 38.897C33.8727 38.044 34.0049 37.9117 34.3719 37.9117C34.9005 37.9117 34.9005 38.0146 34.3573 38.9411C33.8287 39.8381 33.814 39.9999 34.2545 39.9411C34.4747 39.9117 34.7537 39.5881 35.1648 38.9117C35.664 38.0587 35.8108 37.9117 36.1632 37.9117C36.6624 37.9117 36.6624 38.044 36.1192 39.044C35.8696 39.4999 35.6934 39.897 35.7374 39.9264C35.7815 39.9705 35.9577 39.9705 36.1485 39.9117C36.3835 39.8528 36.6624 39.4999 37.0442 38.7646C37.3378 38.1764 37.5874 37.6176 37.5874 37.5293C37.5874 37.2646 37.0882 37.1911 35.2823 37.2058H33.6085L33.2708 37.7499Z" fill="#0071BC"/>
  <path d="M39.2612 37.2793C38.9088 37.3528 37.7342 39.0587 37.7342 39.5146C37.7342 39.8969 38.2187 40.0293 39.2024 39.941C40.0247 39.8528 40.1862 39.7204 40.9056 38.4851C41.4195 37.6175 41.4342 37.5587 41.1846 37.3675C40.9203 37.191 39.9513 37.1469 39.2612 37.2793ZM40.2302 38.0881C40.2302 38.191 40.0981 38.4999 39.9366 38.7499C39.7163 39.1322 39.5401 39.2351 39.2024 39.2351C38.6886 39.2351 38.6445 39.044 39.0556 38.3822C39.2759 38.0146 39.452 37.9116 39.7897 37.9116C40.0393 37.9116 40.2302 37.9851 40.2302 38.0881Z" fill="#0071BC"/>
  <path d="M42.5059 37.5293L41.9186 37.8822L42.4766 37.941L43.0198 37.9852L42.5059 38.8381C41.9186 39.8234 41.8893 39.9704 42.271 39.9704C42.5794 39.9704 42.9464 39.5293 43.4456 38.5293C43.6952 38.044 43.8421 37.9116 44.1504 37.9116C44.4734 37.9116 45.5159 37.3969 45.5159 37.2352C45.5159 37.2057 44.9726 37.1763 44.3119 37.1763C43.2841 37.1763 43.0051 37.2352 42.5059 37.5293Z" fill="#0071BC"/>
  <path d="M46.6759 37.3969C46.3235 37.5881 45.6188 38.5734 45.3251 39.294C45.1489 39.7351 45.4719 39.9704 46.3088 39.9704C47.2926 39.9704 47.689 39.7499 48.2763 38.8675C48.8636 37.9704 49.0104 37.4852 48.7315 37.3087C48.4084 37.1028 47.1017 37.1616 46.6759 37.3969ZM47.8652 38.0587C47.8652 38.3528 47.4394 39.0587 47.2045 39.1469C46.8961 39.2646 46.2501 39.2646 46.2501 39.1469C46.2501 39.0146 46.5731 38.441 46.808 38.1616C47.043 37.8969 47.8652 37.8087 47.8652 38.0587Z" fill="#0071BC"/>
  <path d="M50.185 37.4999C49.862 37.9999 48.8929 39.7793 48.8929 39.8822C48.8929 40.1322 49.5096 39.9264 49.7152 39.6028C49.906 39.3087 50.0822 39.2352 50.5374 39.2352C51.0513 39.2352 51.0953 39.2646 50.9485 39.5146C50.743 39.9264 50.7576 39.9705 51.1687 39.9705C51.4624 39.9705 51.6092 39.8381 51.8001 39.4117C51.9469 39.1175 52.2112 38.6322 52.3874 38.3528C53.0041 37.3823 52.8132 37.1764 51.3156 37.1764C50.5227 37.1764 50.3612 37.2205 50.185 37.4999ZM51.6826 38.2058C51.5652 38.4117 51.3743 38.4999 51.0219 38.4999C50.464 38.4999 50.464 38.4999 50.5961 38.147C50.6549 37.9852 50.8751 37.9117 51.2568 37.9117C51.8001 37.9117 51.8295 37.9411 51.6826 38.2058Z" fill="#0071BC"/>
  <path d="M55.8232 37.5734C55.368 38.2352 54.6192 39.6322 54.6192 39.8087C54.6192 40.1175 55.1772 39.9705 55.4121 39.6028C55.6176 39.294 55.7645 39.2352 56.4252 39.2352C57.3502 39.2352 57.7466 38.9999 58.1577 38.1911C58.5688 37.3528 58.3926 37.1764 57.1006 37.1764C56.1756 37.1764 56.0875 37.2058 55.8232 37.5734ZM57.3796 38.1617C57.3502 38.3381 57.1446 38.4558 56.7776 38.5146C56.1462 38.6175 56.0434 38.5587 56.249 38.1911C56.4545 37.8087 57.453 37.794 57.3796 38.1617Z" fill="#0071BC"/>
  <path d="M60.1249 37.3087C59.9634 37.3822 59.7138 37.5587 59.5817 37.7058C59.2146 38.1322 58.3043 39.794 58.4071 39.8822C58.5979 40.0881 59.0091 39.9411 59.2293 39.6028C59.4055 39.3234 59.5964 39.2352 59.9781 39.2352C60.4626 39.2352 60.492 39.2646 60.4039 39.6175C60.3158 39.9558 60.3452 39.9852 60.6535 39.9411C60.9031 39.9116 61.1674 39.6028 61.6519 38.7352C62.2686 37.6322 62.2833 37.5587 62.0337 37.3675C61.7253 37.1617 60.5948 37.1175 60.1249 37.3087ZM61.2261 38.0146C61.2114 38.3087 60.9472 38.4852 60.448 38.544C59.8606 38.6175 59.6991 38.3381 60.169 38.0734C60.4626 37.8969 61.2261 37.8675 61.2261 38.0146Z" fill="#0071BC"/>
  <path d="M63.3113 37.6469C62.7534 38.6028 62.1074 39.794 62.1074 39.8822C62.1074 39.9263 62.2689 39.9704 62.4744 39.9704C62.724 39.9704 62.9002 39.8528 63.0177 39.6028C63.1498 39.3087 63.282 39.2351 63.7518 39.2351C64.2657 39.2351 64.3097 39.2646 64.1629 39.5146C63.9574 39.9263 63.972 39.9704 64.3831 39.9704C64.6768 39.9704 64.8236 39.8528 65.0145 39.4116C65.1466 39.1175 65.4109 38.6616 65.6018 38.3969C65.9836 37.8675 66.0276 37.3969 65.6899 37.2646C65.5578 37.2205 65.0439 37.1763 64.53 37.1763C63.6343 37.1763 63.5903 37.191 63.3113 37.6469ZM64.8677 38.1616C64.8383 38.3528 64.6621 38.441 64.2657 38.4704C63.6931 38.5146 63.6784 38.5146 63.8105 38.1469C63.8693 37.9999 64.0748 37.9116 64.4125 37.9116C64.809 37.9116 64.9117 37.9704 64.8677 38.1616Z" fill="#0071BC"/>
  <path d="M67.1726 37.544L66.5853 37.8969L67.0698 37.9116C67.3194 37.9116 67.5397 37.941 67.5397 37.9851C67.5397 38.0293 67.3488 38.4116 67.0992 38.8381C66.5706 39.7793 66.5412 39.9998 66.9817 39.941C67.202 39.9116 67.4809 39.5881 67.8773 38.8969C68.3325 38.1175 68.5234 37.9116 68.7877 37.9116C69.096 37.9116 70.1825 37.3822 70.1825 37.2351C70.1825 37.2057 69.6393 37.1763 68.9785 37.1763C67.9361 37.1763 67.6718 37.2351 67.1726 37.544Z" fill="#0071BC"/>
  <path d="M71.4158 37.3234C71.0194 37.4852 70.4762 38.1617 70.4762 38.5146C70.4762 38.7499 70.5936 38.794 71.2984 38.794C72.0178 38.794 72.1059 38.8234 71.9444 39.0146C71.8416 39.1323 71.5186 39.2352 71.225 39.2352C70.9313 39.2352 70.4762 39.3823 70.1825 39.5734L69.6686 39.897L70.4762 39.9411C71.7095 40.0146 72.1793 39.8676 72.6051 39.3234C73.1924 38.544 73.1043 38.3529 72.1647 38.3529C71.7242 38.3529 71.3571 38.294 71.3571 38.2205C71.3571 38.0293 71.7535 37.9117 72.4143 37.9117C72.9135 37.9117 74 37.4558 74 37.2352C74 37.1176 71.7242 37.1911 71.4158 37.3234Z" fill="#0071BC"/>
</svg>
