<svg width="20" height="20" viewBox="0 0 20 20" fill="none" xmlns="http://www.w3.org/2000/svg">
<path d="M9.99931 0C5.96755 0 2.6875 3.33899 2.6875 7.44318C2.6875 9.73889 3.8486 12.5253 6.13864 15.7251C7.8145 18.0668 9.46591 19.7369 9.5354 19.8069C9.66314 19.9355 9.83119 20 9.99943 20C10.1628 20 10.3263 19.9391 10.453 19.8171C10.5226 19.75 12.1782 18.1475 13.8572 15.8382C16.1491 12.6858 17.3112 9.86131 17.3112 7.44314C17.3111 3.33899 14.031 0 9.99931 0ZM9.99931 10.6565C8.02821 10.6565 6.42466 9.05291 6.42466 7.08185C6.42466 5.11079 8.02825 3.50719 9.99931 3.50719C11.9704 3.50719 13.574 5.11079 13.574 7.08185C13.574 9.05291 11.9703 10.6565 9.99931 10.6565Z" fill="#0071BC"/>
</svg>
