<svg width="20" height="20" viewBox="0 0 20 20" fill="none" xmlns="http://www.w3.org/2000/svg">
<path fill-rule="evenodd" clip-rule="evenodd" d="M9.24668 0.0188202C7.76453 0.160766 6.66216 0.474242 5.41412 1.10866C3.93568 1.86013 2.60903 3.04845 1.6417 4.48764C1.23212 5.09701 0.731619 6.12572 0.491302 6.8521C0.297327 7.43841 0.143242 8.10565 0.0490705 8.76711C-0.0163568 9.22676 -0.0163568 10.7696 0.0490705 11.2293C0.212932 12.3804 0.517387 13.3888 0.993055 14.3558C1.53122 15.4499 2.05835 16.1849 2.92862 17.0546C3.78938 17.9148 4.53634 18.4519 5.5901 18.9685C6.32537 19.329 6.8001 19.5044 7.54549 19.6913C9.50143 20.1815 11.4631 20.0875 13.3741 19.4119C13.9533 19.2072 14.9645 18.7007 15.4844 18.355C16.6531 17.5779 17.726 16.4787 18.4917 15.2743C18.7733 14.8311 19.226 13.8962 19.4107 13.3761C20.3294 10.789 20.1695 8.01229 18.9621 5.58612C18.4748 4.607 17.9323 3.83963 17.1707 3.05201C16.3261 2.17853 15.4976 1.57588 14.3894 1.02866C13.2309 0.456694 12.1516 0.151386 10.8697 0.0330069C10.4712 -0.00376918 9.56545 -0.0117028 9.24668 0.0188202ZM10.3786 4.263C10.4702 4.31142 10.6006 4.42746 10.6683 4.52086C10.7484 4.6313 10.7917 4.76409 10.7923 4.90049L10.802 7.37373L10.8126 10.0567L12.8585 12.1086C14.6123 13.8675 14.9109 14.1834 14.95 14.3213C15.0198 14.5679 15.0051 14.7316 14.893 14.9566C14.7176 15.3081 14.3497 15.4789 13.961 15.3889C13.7696 15.3446 13.6963 15.2762 11.5414 13.1299C10.2965 11.8901 9.28567 10.8522 9.24308 10.7702C9.1694 10.6284 9.16737 10.5305 9.17754 7.65676L9.1873 4.89338C9.18777 4.76083 9.22898 4.63163 9.30534 4.52329C9.54226 4.18718 10.0172 4.07201 10.3786 4.263Z" fill="#0071BC"/>
</svg>
