<svg width="20" height="20" viewBox="0 0 20 20" fill="none" xmlns="http://www.w3.org/2000/svg">
<path d="M0.416966 4.0649C3.16189 6.09897 7.97837 9.67752 9.394 10.7933C9.58404 10.9439 9.78786 11.0205 9.99947 11.0205C10.2106 11.0205 10.4141 10.9446 10.6037 10.7947C12.0206 9.67786 16.837 6.09897 19.582 4.0649C19.7529 3.93851 19.779 3.71634 19.6406 3.56181C19.3208 3.20474 18.8439 3 18.3328 3H1.66615C1.15509 3 0.678177 3.20474 0.358372 3.56185C0.220013 3.71634 0.246067 3.93851 0.416966 4.0649Z" fill="#0071BC"/>
<path d="M19.7583 5.16729C19.6106 5.10713 19.4369 5.12812 19.314 5.22C16.2699 7.47798 12.3848 10.3722 11.1625 11.336C10.4764 11.8779 9.5243 11.8779 8.83664 11.3353C7.53375 10.3081 3.17094 7.06283 0.686016 5.21996C0.562305 5.12809 0.388164 5.10782 0.24168 5.16726C0.0944141 5.22711 0 5.356 0 5.49805V15.5418C0 16.3461 0.747461 17.0001 1.66668 17.0001H18.3334C19.2525 17.0001 20 16.3461 20 15.5418V5.49805C20 5.356 19.9056 5.22676 19.7583 5.16729Z" fill="#0071BC"/>
</svg>
