<svg width="20" height="20" viewBox="0 0 20 20" fill="none" xmlns="http://www.w3.org/2000/svg">
<path d="M18.528 14.2102L16.0108 11.6982C15.1117 10.8011 13.5834 11.16 13.2238 12.3262C12.9541 13.1337 12.0551 13.5822 11.246 13.4028C9.44795 12.9542 7.02061 10.6217 6.57111 8.73771C6.3014 7.93026 6.84081 7.03313 7.64992 6.76403C8.81864 6.40518 9.17825 4.88007 8.27923 3.98294L5.76199 1.47099C5.04278 0.843003 3.96397 0.843003 3.33466 1.47099L1.62653 3.17553C-0.0815973 4.96978 1.80633 9.72454 6.0317 13.941C10.2571 18.1575 15.0218 20.1312 16.8199 18.3369L18.528 16.6324C19.1573 15.9147 19.1573 14.8382 18.528 14.2102Z" fill="#0071BC"/>
</svg>
