<svg width="100" height="100" viewBox="0 0 100 100" fill="none" xmlns="http://www.w3.org/2000/svg">
<path fill-rule="evenodd" clip-rule="evenodd" d="M22.0081 13.7225C21.2407 14.0647 20.5452 14.7992 20.2495 15.5799C20.1132 15.9398 20.027 18.2198 20.027 21.4702V26.7735H48.9695C80.8165 26.7735 79.0342 26.7034 81.5716 28.0558C83.0326 28.8344 84.8437 30.6803 85.5886 32.1502C86.7704 34.4821 86.7581 34.2799 86.7581 51.222V66.8257L92.3737 66.764C97.6682 66.7058 98.0223 66.6776 98.5647 66.2723C98.8812 66.0359 99.3335 65.5834 99.57 65.2667C99.9985 64.6927 100 64.6111 100 40.1178C100 15.6245 99.9985 15.543 99.57 14.969C99.3335 14.6522 98.881 14.1998 98.5642 13.9633L97.9885 13.5334L60.3111 13.4886C29.2292 13.4515 22.5242 13.4925 22.0081 13.7225ZM1.98879 33.739C1.22139 34.0812 0.525924 34.8157 0.230222 35.5964C0.0938403 35.9563 0.00771571 38.2363 0.00771571 41.4867V46.79H40.0559H80.1041L80.0424 41.1752C79.9842 35.8814 79.9561 35.5274 79.5507 34.9851C79.3142 34.6685 78.8617 34.2163 78.5449 33.9798L77.9692 33.5499L40.2918 33.5051C9.20993 33.468 2.50492 33.509 1.98879 33.739ZM0.0558874 69.0848C0.111149 84.4944 0.117822 84.7154 0.541981 85.2832C0.778459 85.5999 1.23098 86.0524 1.54774 86.2888L2.12372 86.7188H40.0463H77.969L78.5449 86.2888C78.8617 86.0524 79.3142 85.5999 79.5507 85.2832C79.9749 84.7154 79.9815 84.4944 80.0368 69.0848L80.0927 53.4622H40.0463H0L0.0558874 69.0848ZM21.8242 60.6685C22.9181 61.4861 23.2593 62.152 23.2593 63.4704C23.2593 64.7886 22.9181 65.4548 21.8242 66.2723C21.2972 66.6664 20.9058 66.7079 17.1451 66.7694C12.5016 66.8455 11.8139 66.7237 10.8811 65.6616C9.79028 64.4195 9.75483 62.6026 10.7973 61.3639C11.7668 60.2119 12.1774 60.1333 16.9365 60.1885C20.9233 60.2348 21.2924 60.2711 21.8242 60.6685ZM28.4969 70.6768C29.591 71.4939 29.9324 72.1603 29.9324 73.4787C29.9324 74.797 29.591 75.4634 28.4969 76.2806C27.9449 76.693 27.6175 76.7132 20.4812 76.7749C15.6132 76.8172 12.7775 76.7622 12.2785 76.616C10.1583 75.9949 9.3413 73.1023 10.7973 71.3721C11.8212 70.1553 11.8925 70.1465 20.2727 70.1991C27.6333 70.245 27.943 70.2631 28.4969 70.6768ZM68.5355 70.6768C69.6297 71.4939 69.971 72.1601 69.971 73.4787C69.971 74.7973 69.6297 75.4634 68.5355 76.2806C67.9779 76.6969 67.6738 76.7126 58.8516 76.7743C52.8187 76.8166 49.4857 76.7628 48.9806 76.6154C46.8608 75.9962 46.0434 73.1023 47.4994 71.3721C48.5377 70.1384 48.4482 70.1478 58.643 70.1995C67.6895 70.2454 67.9766 70.2593 68.5355 70.6768Z" fill="#0071BC"/>
</svg>
